<?xml version="1.0" encoding="UTF-8" standalone="no"?>
<svg
   version="1.2"
   viewBox="0 0 3464 3464"
   width="3464"
   height="3464"
   id="svg154"
   sodipodi:docname="pinkNumo.svg"
   inkscape:version="1.2.1 (9c6d41e410, 2022-07-14, custom)"
   inkscape:export-filename="pinkNumo.png"
   inkscape:export-xdpi="96"
   inkscape:export-ydpi="96"
   xmlns:inkscape="http://www.inkscape.org/namespaces/inkscape"
   xmlns:sodipodi="http://sodipodi.sourceforge.net/DTD/sodipodi-0.dtd"
   xmlns="http://www.w3.org/2000/svg"
   xmlns:svg="http://www.w3.org/2000/svg">
  <defs
     id="defs158" />
  <sodipodi:namedview
     id="namedview156"
     pagecolor="#ffffff"
     bordercolor="#000000"
     borderopacity="0.25"
     inkscape:showpageshadow="2"
     inkscape:pageopacity="0.0"
     inkscape:pagecheckerboard="0"
     inkscape:deskcolor="#d1d1d1"
     showgrid="false"
     inkscape:zoom="2.7398826"
     inkscape:cx="1256.8057"
     inkscape:cy="1078.8783"
     inkscape:window-width="1920"
     inkscape:window-height="1038"
     inkscape:window-x="1920"
     inkscape:window-y="17"
     inkscape:window-maximized="1"
     inkscape:current-layer="svg154" />
  <style
     id="style2">.a{fill:none;stroke:#a5065b;stroke-width:15}.b{fill:none;stroke:#e60073;stroke-width:15}</style>
  <path
     class="b"
     d="m1895 264.6c-35.7 0-64.5-28.8-64.5-64.5 0-35.7 28.8-64.5 64.5-64.5 35.7 0 64.5 28.8 64.5 64.5 0 35.7-28.8 64.5-64.5 64.5z"
     id="path44"
     style="stroke:#f20587;stroke-opacity:1" />
  <g
     id="g1431"
     transform="translate(0,-64.986025)">
    <path
       class="a"
       d="m 2115.5,1121.6 c 0,0 -5,135.1 -744,187"
       id="path4" />
    <path
       class="a"
       d="m 1280.5,1433.6 c 0,0 142.5,367.6 351,594"
       id="path6" />
    <path
       class="a"
       d="m 1174.5,1638.6 c 0,0 319,180.6 463,383"
       id="path8" />
    <path
       class="a"
       d="m 2016.5,2887.6 -144.8342,23.8382"
       id="path10"
       sodipodi:nodetypes="cc" />
    <path
       class="a"
       d="m 1641,686.6 10,55"
       id="path12" />
    <path
       class="a"
       d="m 1971.5,3007.6 -94.095,-92.3742"
       id="path14"
       sodipodi:nodetypes="cc" />
    <path
       class="a"
       d="m 1648,677.6 57,-28"
       id="path16" />
    <path
       class="a"
       d="m 1790.5,3022.6 c 4.4905,2.6738 296.0751,137.9481 89,-116"
       id="path18"
       sodipodi:nodetypes="cc" />
    <path
       class="a"
       d="m 1859.5461,3218.1524 c 0,0 362.9539,-248.4524 22.9539,-308.6524"
       id="path20"
       sodipodi:nodetypes="cc" />
    <path
       class="a"
       d="m 1513.5,1979.6 127,51"
       id="path22" />
    <path
       class="a"
       d="m 1684.9263,575.96782 c 0,0 200.5737,124.23218 -39.9263,104.63218"
       id="path24"
       sodipodi:nodetypes="cc" />
    <path
       class="a"
       d="m 1609.5,1889.6 30.5924,133.0112"
       id="path26"
       sodipodi:nodetypes="cc" />
    <path
       class="a"
       d="m 1838.5809,678.5743 c 0,0 53.4191,147.6257 -198.5809,20.0257"
       id="path28"
       sodipodi:nodetypes="cc" />
    <path
       class="a"
       d="m 2265.5,1298.6 -887,13"
       id="path30" />
    <path
       class="a"
       d="m 1497.5,1358.6 -124,-52"
       id="path32" />
    <path
       class="a"
       d="m 1492.5,1230.6 -121,75"
       id="path34" />
    <path
       class="a"
       d="m 1867.5,2162.6 c 0,0 373,29.1 508,-734"
       id="path36" />
    <path
       class="a"
       d="m 2464.5,1547.6 -75,-116"
       id="path38" />
    <path
       class="a"
       d="m 2315.5,1532.6 53,-107"
       id="path40" />
    <path
       class="a"
       d="m 1858.3,2463.5 c 0,0 704.2,-516.3 525.2,-1028.9"
       id="path42"
       style="display:inline" />
    <path
       class="b"
       d="m 1858.2,2577.3 c 0,0 59.8,29.7 55.8,41.2"
       id="path46"
       style="stroke:#f20587;stroke-opacity:1" />
    <path
       class="b"
       d="m 1542,2126.6 57.7336,30.929"
       id="path48"
       style="stroke:#f20587;stroke-opacity:1"
       sodipodi:nodetypes="cc" />
    <path
       class="b"
       d="m 1546,2192.6 58,-34"
       id="path50"
       style="stroke:#f20587;stroke-opacity:1" />
    <path
       class="b"
       d="m 1922,2749.6 c 0,0 -52.5,68.5 -72,71"
       id="path52"
       style="stroke:#f20587;stroke-opacity:1" />
    <path
       class="b"
       d="m 1866,2753.6 -16,66"
       id="path54"
       style="stroke:#f20587;stroke-opacity:1" />
    <path
       class="b"
       d="m 1925,2810.6 -74,9"
       id="path56"
       style="stroke:#f20587;stroke-opacity:1" />
    <path
       class="b"
       d="m 1608,2937.6 c 0,0 -77,13.5 -92,-45"
       id="path58"
       style="stroke:#f20587;stroke-opacity:1" />
    <path
       class="b"
       d="m 1545,2762.6 c 0,0 28.5,-32 104,33"
       id="path60"
       style="stroke:#f20587;stroke-opacity:1" />
    <path
       class="b"
       d="m 1585,2788.6 64,7"
       id="path62"
       style="stroke:#f20587;stroke-opacity:1" />
    <path
       class="b"
       d="m 1811,2011.6 c 0,0 46,-118 26,-164"
       id="path64"
       style="stroke:#f20587;stroke-opacity:1" />
    <path
       class="b"
       d="m 1715,1809.6 c 0,0 -80.5,11.5 -29,186"
       id="path66"
       style="stroke:#f20587;stroke-opacity:1" />
    <path
       class="b"
       d="m 1642,1948.6 44,53"
       id="path68"
       style="stroke:#f20587;stroke-opacity:1" />
    <path
       class="b"
       d="m 1704,1931.6 -15,69"
       id="path70"
       style="stroke:#f20587;stroke-opacity:1" />
    <path
       class="b"
       d="m 1927,1985.6 c 0,0 -74,59.5 -81,62"
       id="path72"
       style="stroke:#f20587;stroke-opacity:1" />
    <path
       class="b"
       d="m 1866,1985.6 -22,59"
       id="path74"
       style="stroke:#f20587;stroke-opacity:1" />
    <path
       class="b"
       d="m 2341,1410.6 c 0,0 -263,473.1 -322,475"
       id="path76"
       style="stroke:#f20587;stroke-opacity:1" />
    <path
       class="b"
       d="m 2068,1042.6 c 0,0 -374.5,47.1 -515.5,-129"
       id="path78"
       style="stroke:#f20587;stroke-opacity:1" />
    <path
       class="b"
       d="m 1511.5,786.6 c 0,0 -3,-52.9 4,-68"
       id="path80"
       style="stroke:#f20587;stroke-opacity:1" />
    <path
       class="b"
       d="m 1485.5,762.6 32,-53"
       id="path82"
       style="stroke:#f20587;stroke-opacity:1" />
    <path
       class="b"
       d="m 1875.4641,694.96782 c 0,0 -24.9641,208.73218 -135.9641,152.63218"
       id="path84"
       style="stroke:#f20587;stroke-opacity:1"
       sodipodi:nodetypes="cc" />
    <path
       class="b"
       d="m 1646.5,749.6 -28,-48"
       id="path86"
       style="stroke:#f20587;stroke-opacity:1" />
    <path
       class="b"
       d="m 1665.5,725.6 -49,-28"
       id="path88"
       style="stroke:#f20587;stroke-opacity:1" />
    <path
       class="b"
       d="m 1615.5,750.6 1,-52"
       id="path90"
       style="stroke:#f20587;stroke-opacity:1" />
    <path
       class="b"
       d="m 1598.5,455.6 c 0,0 40,-77.9 71,-80"
       id="path92"
       style="stroke:#f20587;stroke-opacity:1" />
    <path
       class="b"
       d="m 1776.5,383.6 63.5458,76.95054"
       id="path94"
       style="stroke:#f20587;stroke-opacity:1"
       sodipodi:nodetypes="cc" />
    <path
       class="b"
       d="m 1772.5,425.6 66.7206,30.88427"
       id="path96"
       style="stroke:#f20587;stroke-opacity:1"
       sodipodi:nodetypes="cc" />
    <path
       class="b"
       d="m 1823.5,385.6 14.9569,73.44591"
       id="path98"
       style="stroke:#f20587;stroke-opacity:1"
       sodipodi:nodetypes="cc" />
    <path
       class="b"
       d="M 1192.3721,1176.8982 C 1159.49,1266.3676 852.47936,94.285412 1856.1257,213.74392"
       id="path100"
       style="stroke:#f20587;stroke-opacity:1"
       sodipodi:nodetypes="cc" />
    <path
       class="b"
       d="m 1952.3366,279.75602 c 0,0 27.6634,80.84398 1.1634,147.84398"
       id="path102"
       style="stroke:#f20587;stroke-opacity:1"
       sodipodi:nodetypes="cc" />
    <path
       class="b"
       d="m 1936.5,368.6 15,64.79303"
       id="path104"
       style="stroke:#f20587;stroke-opacity:1"
       sodipodi:nodetypes="cc" />
    <path
       class="b"
       d="m 1996.5,379.6 -46.0158,56.98718"
       id="path106"
       style="stroke:#f20587;stroke-opacity:1"
       sodipodi:nodetypes="cc" />
    <path
       class="b"
       d="m 1540.5,770.6 -31,-61"
       id="path108"
       style="stroke:#f20587;stroke-opacity:1" />
    <path
       class="b"
       d="m 1916,2044.6 -69,3"
       id="path110"
       style="stroke:#f20587;stroke-opacity:1" />
    <path
       class="b"
       d="m 1621,2731.6 22,62"
       id="path112"
       style="stroke:#f20587;stroke-opacity:1" />
    <path
       class="b"
       d="m 1105,1702.6 c 0,0 134.5,342.6 260,395"
       id="path114"
       style="stroke:#f20587;stroke-opacity:1" />
    <path
       class="b"
       d="m 1497,2153.6 c 0,0 76,10.5 108,3"
       id="path116"
       style="stroke:#f20587;stroke-opacity:1" />
    <path
       class="b"
       d="m 1732,410.6 c -35.7,0 -64.5,-28.8 -64.5,-64.5 0,-35.7 28.8,-64.5 64.5,-64.5 35.7,0 64.5,28.8 64.5,64.5 0,35.7 -28.8,64.5 -64.5,64.5 z"
       id="path118"
       style="stroke:#f20587;stroke-opacity:1" />
    <path
       class="b"
       d="m 1682,872.6 c -35.7,0 -64.5,-28.8 -64.5,-64.5 0,-35.7 28.8,-64.5 64.5,-64.5 35.7,0 64.5,28.8 64.5,64.5 0,35.7 -28.8,64.5 -64.5,64.5 z"
       id="path120"
       style="stroke:#f20587;stroke-opacity:1" />
    <path
       class="b"
       d="m 1519,920.6 c -35.7,0 -64.5,-28.8 -64.5,-64.5 0,-35.7 28.8,-64.5 64.5,-64.5 35.7,0 64.5,28.8 64.5,64.5 0,35.7 -28.8,64.5 -64.5,64.5 z"
       id="path122"
       style="stroke:#f20587;stroke-opacity:1" />
    <path
       class="b"
       d="m 1514.5,2888.6 c -35.7,0 -64.5,-28.8 -64.5,-64.5 0,-35.7 28.8,-64.5 64.5,-64.5 35.7,0 64.5,28.8 64.5,64.5 0,35.7 -28.8,64.5 -64.5,64.5 z"
       id="path124"
       style="stroke:#f20587;stroke-opacity:1" />
    <path
       class="b"
       d="m 1934.5,2746.6 c -35.7,0 -64.5,-28.8 -64.5,-64.5 0,-35.7 28.8,-64.5 64.5,-64.5 35.7,0 64.5,28.8 64.5,64.5 0,35.7 -28.8,64.5 -64.5,64.5 z"
       id="path126"
       style="stroke:#f20587;stroke-opacity:1" />
    <path
       class="b"
       d="m 1966.5,1994.6 c -35.7,0 -64.5,-28.8 -64.5,-64.5 0,-35.7 28.8,-64.5 64.5,-64.5 35.7,0 64.5,28.8 64.5,64.5 0,35.7 -28.8,64.5 -64.5,64.5 z"
       id="path128"
       style="stroke:#f20587;stroke-opacity:1" />
    <path
       class="b"
       d="m 1783.5,1868.6 c -35.7,0 -64.5,-28.8 -64.5,-64.5 0,-35.7 28.8,-64.5 64.5,-64.5 35.7,0 64.5,28.8 64.5,64.5 0,35.7 -28.8,64.5 -64.5,64.5 z"
       id="path130"
       style="stroke:#f20587;stroke-opacity:1" />
    <path
       class="b"
       d="m 1429.5,2193.6 c -35.7,0 -64.5,-28.8 -64.5,-64.5 0,-35.7 28.8,-64.5 64.5,-64.5 35.7,0 64.5,28.8 64.5,64.5 0,35.7 -28.8,64.5 -64.5,64.5 z"
       id="path132"
       style="stroke:#f20587;stroke-opacity:1" />
    <path
       class="b"
       d="m 1732,2655.87 c -74.1,0 -134,-59.9 -134,-134 0,-74.1 59.9,-134 134,-134 74.1,0 134,59.9 134,134 0,74.1 -59.9,134 -134,134 z"
       id="path134"
       style="stroke:#f20587;stroke-opacity:1" />
    <path
       class="b"
       d="m 1731.9923,3030.1897 c -70.2,0 -127.6,-53.8 -133.5,-122.4 -7,-82.4 62.7,-152.1 145.1,-145.1 68.7,5.9 122.4,63.3 122.4,133.5 0,74.3 -59.7,134 -134,134 z"
       id="path138"
       style="stroke:#f20587;stroke-opacity:1" />
    <path
       class="b"
       d="m 1732,2260.6 c -74.1,0 -134,-59.9 -134,-134 0,-74.1 59.9,-134 134,-134 74.1,0 134,59.9 134,134 0,74.1 -59.9,134 -134,134 z"
       id="path140"
       style="stroke:#f20587;stroke-opacity:1" />
    <path
       class="b"
       d="m 2204,1159.6 c -74.1,0 -134,-59.9 -134,-134 0,-74.1 59.9,-134 134,-134 74.1,0 134,59.9 134,134 0,74.1 -59.9,134 -134,134 z"
       id="path142"
       style="stroke:#f20587;stroke-opacity:1" />
    <path
       class="b"
       d="m 2405,1427.6 c -74.1,0 -134,-59.9 -134,-134 0,-74.1 59.9,-134 134,-134 74.1,0 134,59.9 134,134 0,74.1 -59.9,134 -134,134 z"
       id="path144"
       style="stroke:#f20587;stroke-opacity:1" />
    <path
       class="b"
       d="m 1059,1703.6 c -74.1,0 -134,-59.9 -134,-134 0,-74.1 59.9,-134 134,-134 74.1,0 134,59.9 134,134 0,74.1 -59.9,134 -134,134 z"
       id="path146"
       style="stroke:#f20587;stroke-opacity:1" />
    <path
       class="b"
       d="m 1233,1442.6 c -74.1,0 -134,-59.9 -134,-134 0,-74.1 59.9,-134 134,-134 74.1,0 134,59.9 134,134 0,74.1 -59.9,134 -134,134 z"
       id="path148"
       style="stroke:#f20587;stroke-opacity:1" />
    <path
       class="b"
       d="m 1918.9565,704.81486 c -74.1,0 -134,-59.9 -134,-134 0,-74.1 59.9,-134 134,-134 74.1,0 134,59.9 134,134 0,74.1 -59.9,134 -134,134 z"
       id="path150"
       style="stroke:#f20587;stroke-opacity:1" />
    <path
       class="b"
       d="m 1550.5,713.6 c -74.1,0 -134,-59.9 -134,-134 0,-74.1 59.9,-134 134,-134 74.1,0 134,59.9 134,134 0,74.1 -59.9,134 -134,134 z"
       id="path152"
       style="stroke:#f20587;stroke-opacity:1" />
    <path
       class="b"
       d="m 1731.9923,3396.0875 c -70.2,0 -127.6,-53.8 -133.5,-122.4 -7,-82.4 62.7,-152.1 145.1,-145.1 68.7,5.9 122.4,63.3 122.4,133.5 0,74.3 -59.7,134 -134,134 z"
       id="path138-3"
       style="fill:none;stroke:#f20587;stroke-width:15;stroke-opacity:1" />
  </g>
</svg>
