<?xml version="1.0" encoding="utf-8"?>
<!-- Generator: Adobe Illustrator 26.4.1, SVG Export Plug-In . SVG Version: 6.00 Build 0)  -->
<svg version="1.1" id="Symbol" xmlns="http://www.w3.org/2000/svg" xmlns:xlink="http://www.w3.org/1999/xlink" x="0px" y="0px"
	 viewBox="0 0 1937.3 1868" style="enable-background:new 0 0 1937.3 1868;" xml:space="preserve">
<style type="text/css">
	.st0{fill:#F20587;stroke:#ED1487;stroke-miterlimit:10;}
</style>
<g id="Layer_12">
	<g id="Layer_8">
		<path class="st0" d="M1466.9,1422.4l2-76l-64-1.7l1.7-64l-66-1.7l1.9-74l-69-1.8l1.8-69l-64.6-1.7c13.3-15.6,29.6-38,43.1-67.6
			c17.2-37.6,23-73.7,25-96.9c209.2-10.8,418.4-21.5,627.5-32.3c-209.5-12.9-419-25.8-628.5-38.7c-1.7-23.8-7.1-57.2-25.1-96.1
			c-12-25.9-26.1-46.1-38.2-60.8l245.8-245.8c9.8,40.8,19.7,81.6,29.5,122.4c44.3-110.6,88.7-221.2,133-331.8
			c-111.3,44.9-222.7,89.8-334,134.8c42.1,9.8,84.2,19.6,126.2,29.4l-245.8,245.4c-46-37.7-98-62.4-160-68.5V270l-8-10L1110,389.5
			h83.6l-173.8-196l169.7-185h-82.8l-76.2,88.9c-20.7,24.3-36.8,42.5-52.5,65.1c-8.6-10-15.3-20.8-24-31.2
			c-9.5-11.4-18.8-22.7-27.8-33.9L852.6,8.5h-83.6l163.9,187.9L762.3,389.5h82.8c33.2-40,66.4-80.1,99.5-120.1
			c2.6-3.1,5.2-6.2,7.8-9.4l-7,10v356.3c-61.1,6.5-121.8,30.7-167,67.4L728,643c10-10.7,20-21.3,30-32
			c-11.2-10.9-22.5-21.8-33.7-32.8l-30.7,30.7L533.9,449.5c40.7-10.2,81.4-20.5,122.1-30.8C545.7,374.2,435.4,329.6,325,285
			c46,108.6,92,217.2,138,325.8c8.6-38.7,17.1-77.4,25.7-116l159.6,159.6l-28.6,28.6c11.8,12,23.6,24.1,35.3,36.1
			c9.3-10,18.7-20,28-30c16.7,16.7,33.4,33.4,50,50c-36.2,44.6-60.3,101.6-67.1,161.7c-142.4-0.6-284.9-1.2-427.3-1.8
			c-18-38.2-55.4-62.2-94.6-61c-50,1.6-96.6,44.2-95.7,98.7c0.9,52.6,45.7,93.3,94.7,95.3c40.6,1.7,79.3-23.3,96.7-63
			c142.1,1,284.2,1.9,426.3,2.9c7.3,63.2,33.6,118.7,73.2,164.4c3.5,14.8,6.7,36.8-4.2,45.7c-25.6,20.9-106.3-47.8-118.5-34
			c-7,7.9,12.8,38.2,35.3,72.6c24.6,37.5,42.3,56.8,38.2,61.4c-4,4.6-22.7-12.4-58-22c-16.1-4.4-60.1-16.3-76.3,1.6
			c-20.3,22.4,19.3,80.1,3.5,91.2c-9.8,6.9-27.9-12.8-48.2-4.8c-11.5,4.5-18,15.6-21.9,25c-9.3-38.4-18.7-76.8-28-115.2
			c-45.3,108.8-90.7,217.5-136,326.2c107.3-44.4,214.6-88.8,322-133.2c-37-11.9-74-23.8-111-35.8c28-3.8,62.9-13,74-38.2
			c13.3-30.1-17-61.8-4.1-76.8c20.4-23.9,114,35.8,129.5,16c14-17.9-48.7-84-33.5-101c9.3-10.5,37.8,9.2,61.5-6
			c11.7-7.5,17.2-20.4,20-30.7c16.8,13.3,41.3,29.7,73.4,43c34.7,14.3,87.6,20.7,87.6,20.7v416.5h-84.8v85H946c0,39.8,0,81.3,0,121
			h65c0-39.7,0-81.2,0-121h81.6v-85h-83.7c1.2-133-1.4-283.3-2-416.5c72.5-7.1,134.7-39.2,183.8-87.5l-1.6,61.4l64.8,1.7l-1.9,73.9
			l71.6,1.9l-1.8,70.2l62.3,1.6l-1.8,68l70.5,1.9c-49.5,4.6-99.1,9.2-148.6,13.8c108.3,46.6,216.7,93.2,325,139.8
			c-43.7-105.9-87.3-211.8-131-317.8C1487.6,1321.3,1477.2,1371.8,1466.9,1422.4L1466.9,1422.4z M971.7,1211.6
			c-153.2,0-277.3-124.2-277.3-277.3S818.5,657,971.7,657S1249,781.1,1249,934.3S1124.8,1211.6,971.7,1211.6z M1251.1,1198l-43-1.1
			l1.1-43l43,1.1L1251.1,1198z M1318.2,1271.8l-43-1.1l1.1-43l43,1.1L1318.2,1271.8z M1384.2,1347.6l-43-1.1l1.1-43l43,1.1
			L1384.2,1347.6z M1444.5,1412.2l-43-1.1l1.1-43l43,1.1L1444.5,1412.2z"/>
	</g>
</g>
<path class="st0" d="M1211.5,902.1h-164.1c-24.4-73.5-48.8-147.1-73.1-220.6C949.1,755,924,828.6,898.8,902.1H731.1
	c-2.7,7.1-6.3,18.9-6.2,33.9c0.1,14.5,3.6,26.1,6.3,33.1h144.8c-21,55-42,110-63.1,164.9c6.5,5.9,15.2,12.7,26,19
	c9.9,5.8,19.3,9.8,27.1,12.5c21.3-65.5,42.5-131,63.8-196.4h86.1c20.3,64,40.7,128,61,191.9c8.5-2.7,18.9-6.7,30-13
	c9.3-5.3,17-10.9,23-16c-20.1-54.3-40.1-108.6-60.2-162.9h141.9c2.8-7.1,6.4-19,6.3-34.1C1217.7,920.5,1214.2,909.1,1211.5,902.1z
	 M973.8,785c9,38.9,18,77.9,27,116.8h-58.4L973.8,785L973.8,785z"/>
</svg>
