<svg version="1.2" xmlns="http://www.w3.org/2000/svg" viewBox="0 0 1938 1868" width="1938" height="1868">
	<title>chaosPink-svg</title>
	<style>
		.s0 { fill: #478989;stroke: #478989 } 
	</style>
	<g id="Layer_12">
		<g id="Layer_8">
			<path id="Layer" fill-rule="evenodd" class="s0" d="m1498.2 1270.9c43.7 106 87.3 211.9 131 317.8-108.3-46.6-216.7-93.2-325-139.8 49.5-4.6 99.1-9.2 148.6-13.8l-70.5-1.9 1.8-68-62.3-1.6 1.8-70.2-71.6-1.9 1.9-73.9-64.8-1.7 1.6-61.4c-49.1 48.3-111.3 80.4-183.8 87.5 0.6 133.2 3.2 283.5 2 416.5h83.7v85h-81.6c0 39.8 0 81.3 0 121h-65c0-39.7 0-81.2 0-121h-86.3v-85h84.8v-416.5c0 0-52.9-6.4-87.6-20.7-32.1-13.3-56.6-29.7-73.4-43-2.8 10.3-8.3 23.2-20 30.7-23.7 15.2-52.2-4.5-61.5 6-15.2 17 47.5 83.1 33.5 101-15.5 19.8-109.1-39.9-129.5-16-12.9 15 17.4 46.7 4.1 76.8-11.1 25.2-46 34.4-74 38.2 37 12 74 23.9 111 35.8-107.4 44.4-214.7 88.8-322 133.2 45.3-108.7 90.7-217.4 136-326.2 9.3 38.4 18.7 76.8 28 115.2 3.9-9.4 10.4-20.5 21.9-25 20.3-8 38.4 11.7 48.2 4.8 15.8-11.1-23.8-68.8-3.5-91.2 16.2-17.9 60.2-6 76.3-1.6 35.3 9.6 54 26.6 58 22 4.1-4.6-13.6-23.9-38.2-61.4-22.5-34.4-42.3-64.7-35.3-72.6 12.2-13.8 92.9 54.9 118.5 34 10.9-8.9 7.7-30.9 4.2-45.7-39.6-45.7-65.9-101.2-73.2-164.4-142.1-1-284.2-1.9-426.3-2.9-17.4 39.7-56.1 64.7-96.7 63-49-2-93.8-42.7-94.7-95.3-0.9-54.5 45.7-97.1 95.7-98.7 39.2-1.2 76.6 22.8 94.6 61 142.4 0.6 284.9 1.2 427.3 1.8 6.8-60.1 30.9-117.1 67.1-161.7-16.6-16.6-33.3-33.3-50-50-9.3 10-18.7 20-28 30-11.7-12-23.5-24.1-35.3-36.1l28.6-28.6-159.6-159.6c-8.6 38.6-17.1 77.3-25.7 116q-69-162.9-138-325.8c110.4 44.6 220.7 89.2 331 133.7-40.7 10.3-81.4 20.6-122.1 30.8l159.7 159.4 30.7-30.7c11.2 11 22.5 21.9 33.7 32.8-10 10.7-20 21.3-30 32l50.4 50.7c45.2-36.7 105.9-60.9 167-67.4v-356.3l7-10c-2.6 3.2-5.2 6.3-7.8 9.4-33.1 40-66.3 80.1-99.5 120.1h-82.8l170.6-193.1-163.9-187.9h83.6l73.6 88.9c9 11.2 18.3 22.5 27.8 33.9 8.7 10.4 15.4 21.2 24 31.2 15.7-22.6 31.8-40.8 52.5-65.1l76.2-88.9h82.8l-169.7 185 173.8 196h-83.6l-108.8-129.5 8 10v356c62 6.1 114 30.8 160 68.5l245.8-245.4c-42-9.8-84.1-19.6-126.2-29.4 111.3-45 222.7-89.9 334-134.8-44.3 110.6-88.7 221.2-133 331.8-9.8-40.8-19.7-81.6-29.5-122.4l-245.8 245.8c12.1 14.7 26.2 34.9 38.2 60.8 18 38.9 23.4 72.3 25.1 96.1q314.3 19.4 628.5 38.7c-209.1 10.8-418.3 21.5-627.5 32.3-2 23.2-7.8 59.3-25 96.9-13.5 29.6-29.8 52-43.1 67.6l64.6 1.7-1.8 69 69 1.8-1.9 74 66 1.7-1.7 64 64 1.7-2 76c10.3-50.6 20.7-101.1 31.3-151.5zm-249.2-336.6c0-153.2-124.1-277.3-277.3-277.3-153.2 0-277.3 124.2-277.3 277.3 0 153.1 124.1 277.3 277.3 277.3 153.1 0 277.3-124.1 277.3-277.3zm3.2 220.7l-43-1.1-1.1 43 43 1.1zm67.1 73.8l-43-1.1-1.1 43 43 1.1zm66 75.8l-43-1.1-1.1 43 43 1.1zm60.3 64.6l-43-1.1-1.1 43 43 1.1z"/>
		</g>
	</g>
	<path id="Layer" fill-rule="evenodd" class="s0" d="m1217.9 935c0.1 15.1-3.5 27-6.3 34.1h-141.9c20.1 54.3 40.1 108.6 60.2 162.9-6 5.1-13.7 10.7-23 16-11.1 6.3-21.5 10.3-30 13-20.3-63.9-40.7-127.9-61-191.9h-86.1c-21.3 65.4-42.5 130.9-63.8 196.4-7.8-2.7-17.2-6.7-27.1-12.5-10.8-6.3-19.5-13.1-26-19 21.1-54.9 42.1-109.9 63.1-164.9h-144.8c-2.7-7-6.2-18.6-6.3-33.1-0.1-15 3.5-26.8 6.2-33.9h167.7c25.2-73.5 50.3-147.1 75.5-220.6 24.3 73.5 48.7 147.1 73.1 220.6h164.1c2.7 7 6.2 18.4 6.4 32.9zm-275.5-33.2h58.4c-9-38.9-18-77.9-27-116.8z"/>
</svg>