<?xml version="1.0" encoding="UTF-8" standalone="no"?>
<svg
   version="1.2"
   viewBox="0 0 980 980"
   width="100"
   height="100"
   id="svg9"
   xmlns="http://www.w3.org/2000/svg"
   xmlns:svg="http://www.w3.org/2000/svg">
  <defs
     id="defs13" />
  <title
     id="title2">Copyleft-svg</title>
  <style
     id="style4">
		.s0 { fill: none;stroke: #b90065;stroke-width: 100 } 
		.s1 { fill: #b90065 } 
	</style>
  <path
     id="Layer"
     class="s0"
     d="M 490,930 C 246.7,930 50,733.3 50,490 50,246.7 246.7,50 490,50 733.3,50 930,246.7 930,490 930,733.3 733.3,930 490,930 Z"
     style="stroke:#7e1172;stroke-opacity:1" />
  <path
     id="path7"
     class="s1"
     d="m 518.3,217.3 c 138.8,16 243.5,133.5 243.5,273.2 0,139.7 -104.7,257.2 -243.5,273.2 C 379.5,779.7 250.8,689.1 219,553 h 131 c 29.4,64.1 99.4,99.1 168.3,84.1 C 587.2,622 636.4,561 636.4,490.5 636.4,420 587.2,359 518.3,343.9 449.4,328.9 379.4,363.9 350,428 H 219 C 250.8,291.9 379.5,201.3 518.3,217.3 Z"
     style="fill:#7e1172;fill-opacity:1" />
</svg>
