<svg version="1.2" xmlns="http://www.w3.org/2000/svg" viewBox="0 0 980 980" width="100" height="100">
	<title>Copyleft-svg</title>
	<style>
		.s0 { fill: none;stroke: #b90065;stroke-width: 100 } 
		.s1 { fill: #b90065 } 
	</style>
	<path id="Layer" class="s0" d="m490 930c-243.3 0-440-196.7-440-440 0-243.3 196.7-440 440-440 243.3 0 440 196.7 440 440 0 243.3-196.7 440-440 440z"/>
	<path id="Layer" class="s1" d="m518.3 217.3c138.8 16 243.5 133.5 243.5 273.2 0 139.7-104.7 257.2-243.5 273.2-138.8 16-267.5-74.6-299.3-210.7h131c29.4 64.1 99.4 99.1 168.3 84.1 68.9-15.1 118.1-76.1 118.1-146.6 0-70.5-49.2-131.5-118.1-146.6-68.9-15-138.9 20-168.3 84.1h-131c31.8-136.1 160.5-226.7 299.3-210.7z"/>
</svg>