<?xml version="1.0" encoding="UTF-8" standalone="no"?>
<svg
   id="Layer_1"
   data-name="Layer 1"
   viewBox="0 0 3093.03 3093.03"
   version="1.1"
   sodipodi:docname="newwneww333.svg"
   inkscape:version="1.2.1 (9c6d41e410, 2022-07-14, custom)"
   inkscape:export-filename="newwneww333.png"
   inkscape:export-xdpi="96"
   inkscape:export-ydpi="96"
   xmlns:inkscape="http://www.inkscape.org/namespaces/inkscape"
   xmlns:sodipodi="http://sodipodi.sourceforge.net/DTD/sodipodi-0.dtd"
   xmlns="http://www.w3.org/2000/svg"
   xmlns:svg="http://www.w3.org/2000/svg">
  <sodipodi:namedview
     id="namedview253"
     pagecolor="#ffffff"
     bordercolor="#000000"
     borderopacity="0.25"
     inkscape:showpageshadow="2"
     inkscape:pageopacity="0.0"
     inkscape:pagecheckerboard="0"
     inkscape:deskcolor="#d1d1d1"
     showgrid="false"
     inkscape:zoom="0.28580389"
     inkscape:cx="1474.7875"
     inkscape:cy="1471.2886"
     inkscape:window-width="1920"
     inkscape:window-height="1037"
     inkscape:window-x="1920"
     inkscape:window-y="18"
     inkscape:window-maximized="1"
     inkscape:current-layer="Layer_1" />
  <defs
     id="defs4">
    <style
       id="style2">.cls-1{stroke:#f20587;stroke-miterlimit:10;stroke-width:200px;}.cls-2{fill:#f20587;}</style>
  </defs>
  <circle
     class="cls-1"
     cx="1546.51"
     cy="1546.51"
     r="1446.51"
     id="circle6"
     style="stroke:#f20587;stroke-opacity:1"
     inkscape:export-filename="./circle6.png"
     inkscape:export-xdpi="96"
     inkscape:export-ydpi="96" />
  <path
     class="cls-2"
     d="M916.07,1289.29,974,1347.66,916.07,1406l-57.89-58.38Zm0,312.36L974,1660l-57.89,58.37L858.18,1660Z"
     transform="translate(46.51 46.51)"
     id="path8"
     style="fill:#f20587;fill-opacity:1" />
  <path
     class="cls-2"
     d="M1220.73,1289.29l57.89,58.37L1220.73,1406l-57.89-58.38Zm0,312.36,57.89,58.38-57.89,58.37L1162.84,1660Z"
     transform="translate(46.51 46.51)"
     id="path10"
     style="fill:#f20587;fill-opacity:1" />
  <path
     class="cls-2"
     d="M1444.15,925.72l8.13,8.19,17.26,17.41c32.5,32.77,144.21,163.86,144.21,427.07S1501,1773.71,1469.54,1805.45l-56.87,58.38a95.82,95.82,0,0,1-9.14,8.19l-17.27-17.41,18.28-18.43c40.63-45.06,134.06-175.13,134.06-416.83,0-242.72-93.43-372.78-134.06-417.85h-1l-17.27-17.41Z"
     transform="translate(46.51 46.51)"
     id="path12"
     style="fill:#f20587;fill-opacity:1" />
  <path
     class="cls-2"
     d="M1779.29,1289.29l57.89,58.37L1779.29,1406l-57.88-58.38Zm0,312.36,57.89,58.38-57.89,58.37L1721.41,1660Z"
     transform="translate(46.51 46.51)"
     id="path14"
     style="fill:#f20587;fill-opacity:1" />
  <path
     class="cls-2"
     d="M2084,1289.29l57.89,58.37L2084,1406l-57.89-58.38Zm0,312.36,57.89,58.38L2084,1718.4,2026.07,1660Z"
     transform="translate(46.51 46.51)"
     id="path16"
     style="fill:#f20587;fill-opacity:1" />
  <path
     d="M437.7,606.6s-.23-1.62-.36-3.63l-.93-14.28c-.24-3.76-.1-9.3,2.48-12.24,4.1-4.67,13.54-6.54,16.89-7.14L424,541.44c-4.14-3.63-10.28.67-14.54.94l-3.12.33L407,552l-4.26.28-1.63-25L388.4,516.08l-11.86,3.29L370.68,526l.82,12.53-4.26.27L365.5,512l5.85-6.67,15.46-4.15,4.26-.28,13.34,11.72,1,15.53,21.93-1.3,33.36,29.28L462.46,583s-13.23,1.62-18.38,7.49c-1.88,2.13-2.55,5.32-2.59,8.6l.47,7.26Z"
     transform="translate(46.51 46.51)"
     id="path18" />
  <path
     d="M482.55,555.87s-.15-1.63-.18-3.63l-.24-14.31c-.06-3.77.35-9.3,3.06-12.11,4.32-4.46,13.84-5.88,17.23-6.31l-30.37-29.38c-4-3.83-10.29.17-14.56.24l-3.14.18.16,9.29-4.27.07-.42-25.11L437.7,463.08l-12,2.71-6.17,6.38.21,12.55-4.27.07L415,457.93l6.17-6.38,15.64-3.4,4.26-.07,12.76,12.34.26,15.57,22-.24L508,506.61l.44,26.86s-13.29,1-18.72,6.59c-2,2-2.8,5.19-3,8.46l.12,7.28Z"
     transform="translate(46.51 46.51)"
     id="path20" />
  <path
     d="M529.81,507.38s-.07-1.64,0-3.64l.46-14.31c.12-3.76.8-9.27,3.65-11.94,4.53-4.25,14.11-5.2,17.51-5.47L522.51,441.2c-3.77-4-10.29-.32-14.55-.46l-3.15,0-.29,9.29-4.27-.14.8-25.09-11.53-12.3-12.13,2.12-6.47,6.07-.41,12.55-4.26-.14.86-26.85,6.47-6.07,15.79-2.64,4.26.14,12.15,12.95-.5,15.56,22,.83,30.37,32.37-.86,26.85s-13.32.33-19,5.67c-2.07,1.94-3.05,5.05-3.41,8.31l-.23,7.27Z"
     transform="translate(46.51 46.51)"
     id="path22" />
  <path
     d="M594.83,447.72s0-1.63.22-3.63l1.36-14.25c.36-3.75,1.38-9.2,4.39-11.69,4.79-3.95,14.41-4.3,17.82-4.35l-26.91-32.58c-3.5-4.25-10.24-1-14.49-1.39l-3.14-.17-.88,9.25L569,388.5l2.38-25-10.74-13-12.23,1.36-6.85,5.65L540.32,370l-4.25-.41,2.55-26.74,6.85-5.66,15.92-1.63,4.25.41,11.3,13.69-1.48,15.49,21.86,2.21,28.27,34.23L623,428.34s-13.31-.51-19.34,4.46c-2.19,1.81-3.36,4.85-3.92,8.08l-.69,7.25Z"
     transform="translate(46.51 46.51)"
     id="path24" />
  <path
     d="M647.19,404.8s.11-1.63.4-3.62l2-14.16c.54-3.73,1.82-9.12,5-11.46,5-3.72,14.6-3.6,18-3.48l-25.29-33.85c-3.29-4.41-10.19-1.48-14.41-2.09l-3.12-.32L628.44,345l-4.22-.61,3.6-24.85L617.72,306l-12.28.76-7.12,5.31-1.79,12.43-4.23-.62,3.85-26.59,7.11-5.31,16-.86,4.22.62L634.09,306l-2.23,15.4,21.73,3.28,26.56,35.55-3.85,26.59s-13.27-1.16-19.53,3.51c-2.28,1.71-3.6,4.69-4.31,7.88l-1.05,7.21Z"
     transform="translate(46.51 46.51)"
     id="path26" />
  <path
     d="M701.6,364.47s.18-1.63.57-3.6l2.73-14.05c.72-3.7,2.27-9,5.51-11.21,5.16-3.47,14.76-2.88,18.16-2.6L705,298c-3.07-4.56-10.1-2-14.29-2.78l-3.1-.48-1.78,9.12-4.19-.82,4.8-24.64-9.43-14-12.31.16-7.36,5-2.4,12.32L650.7,281l5.14-26.37,7.36-5,16-.09,4.19.82,9.93,14.72-3,15.29,21.54,4.32,24.81,36.81-5.14,26.37s-13.21-1.81-19.68,2.56c-2.36,1.59-3.82,4.5-4.69,7.65l-1.39,7.15Z"
     transform="translate(46.51 46.51)"
     id="path28" />
  <path
     d="M775.26,316s.3-1.61.8-3.56l3.63-13.84c.95-3.64,2.83-8.86,6.2-10.83,5.37-3.14,14.92-1.94,18.29-1.45l-21.34-36.47c-2.78-4.75-10-2.6-14.09-3.68l-3.07-.68-2.35,9-4.13-1.08,6.36-24.29L757,214.54l-12.3-.62-7.66,4.49-3.18,12.14-4.13-1.08,6.8-26,7.66-4.48,16,.93,4.13,1.08,9,15.32-3.94,15.07,21.22,5.68L813,275.38l-6.8,26s-13.07-2.64-19.81,1.3c-2.45,1.44-4.09,4.25-5.16,7.34l-1.85,7.05Z"
     transform="translate(46.51 46.51)"
     id="path30" />
  <path
     d="M833.82,282s.37-1.6,1-3.51l4.29-13.66c1.13-3.59,3.27-8.71,6.73-10.51,5.51-2.88,15-1.21,18.34-.55l-19.54-37.47c-2.55-4.88-9.82-3.09-13.89-4.37l-3-.82L824.9,220l-4.07-1.28,7.53-23.95-7.8-15-12.25-1.22-7.87,4.11-3.77,12-4.07-1.28,8.06-25.63,7.87-4.1,15.91,1.71,4.08,1.28,8.21,15.75-4.67,14.85L853,203.94l20.52,39.35-8.06,25.63s-12.92-3.27-19.85.34c-2.52,1.31-4.3,4-5.52,7.08l-2.18,7Z"
     transform="translate(46.51 46.51)"
     id="path32" />
  <path
     d="M893.93,250.94s.45-1.57,1.15-3.46L900,234.05c1.31-3.53,3.69-8.54,7.24-10.17,5.65-2.6,15-.47,18.34.35l-17.68-38.38c-2.3-5-9.66-3.57-13.66-5l-3-1-3.21,8.71-4-1.48,8.7-23.55L885.7,148.2l-12.17-1.82-8.07,3.71-4.34,11.78-4-1.48,9.31-25.2,8.06-3.71L890.29,134l4,1.48,7.43,16.12-5.39,14.6,20.56,7.73,18.57,40.32-9.3,25.2s-12.75-3.9-19.84-.64c-2.58,1.19-4.49,3.83-5.86,6.81l-2.52,6.83Z"
     transform="translate(46.51 46.51)"
     id="path34" />
  <path
     d="M974.44,214.93s.55-1.54,1.36-3.37l5.81-13.09c1.53-3.44,4.23-8.28,7.87-9.69,5.8-2.23,15,.49,18.28,1.52l-15.19-39.43c-2-5.14-9.41-4.18-13.31-5.91l-2.92-1.16-3.77,8.49-3.9-1.73,10.19-23-6.07-15.74-12-2.59-8.29,3.19L947.38,124l-3.9-1.74,10.9-24.55,8.28-3.19L978.28,98l3.9,1.73,6.38,16.57-6.31,14.23,20,9,16,41.42-10.9,24.56s-12.47-4.71-19.76-1.91c-2.65,1-4.73,3.54-6.28,6.42l-3,6.66Z"
     transform="translate(46.51 46.51)"
     id="path36" />
  <path
     d="M1037.68,190.84s.62-1.52,1.52-3.31l6.44-12.78c1.7-3.36,4.63-8.07,8.34-9.29,5.9-2,15,1.22,18.19,2.41l-13.24-40.13c-1.73-5.23-9.19-4.63-13-6.55l-2.86-1.3-4.18,8.29-3.81-1.92,11.3-22.42-5.28-16-11.9-3.18-8.43,2.78-5.65,11.21-3.81-1.92,12.09-24,8.43-2.78,15.43,4.26,3.81,1.92L1056.62,93l-7,13.9,19.56,10L1083.09,159,1071,183s-12.23-5.32-19.65-2.87c-2.69.89-4.89,3.29-6.58,6.1l-3.28,6.5Z"
     transform="translate(46.51 46.51)"
     id="path38" />
  <path
     d="M1102,169.88s.7-1.48,1.69-3.23l7.06-12.44c1.86-3.28,5-7.84,8.79-8.88,6-1.65,14.9,2,18,3.31l-11.25-40.73c-1.46-5.31-8.95-5.08-12.67-7.19l-2.79-1.44-4.58,8.08-3.71-2.1L1115,83.42l-4.48-16.26-11.73-3.76-8.55,2.36L1084,76.68l-3.71-2.11,13.26-23.36,8.55-2.37,15.2,5L1121,56l4.73,17.12-7.68,13.54,19,10.95,11.81,42.78-13.26,23.37s-11.94-5.91-19.47-3.83c-2.74.75-5,3.05-6.88,5.77l-3.6,6.33Z"
     transform="translate(46.51 46.51)"
     id="path40" />
  <path
     d="M1187.27,147.36s.79-1.44,1.89-3.12l7.85-12c2.06-3.15,5.51-7.5,9.33-8.29,6.08-1.27,14.75,2.91,17.79,4.45l-8.62-41.37c-1.12-5.39-8.61-5.64-12.18-8l-2.69-1.61-5.09,7.77L1192,82.9l13.75-21-3.44-16.52-11.45-4.5-8.69,1.81-6.88,10.5-3.58-2.34,14.73-22.47,8.69-1.81,14.84,6,3.58,2.34,3.62,17.38-8.53,13,18.31,12.14,9,43.45-14.72,22.48s-11.54-6.67-19.19-5.07c-2.78.58-5.24,2.72-7.24,5.31l-4,6.1Z"
     transform="translate(46.51 46.51)"
     id="path42" />
  <path
     d="M1253.58,133.79s.86-1.39,2-3L1264,119.2c2.22-3,5.88-7.21,9.73-7.82,6.14-1,14.6,3.63,17.56,5.32L1284.74,75c-.85-5.44-8.32-6.06-11.77-8.57l-2.61-1.74-5.47,7.51-3.45-2.51,14.77-20.31-2.63-16.66-11.22-5.06L1253.59,29l-7.38,10.15-3.46-2.51,15.81-21.73,8.77-1.38,14.53,6.69,3.45,2.51,2.77,17.54-9.16,12.59,17.69,13,6.92,43.84-15.8,21.72s-11.21-7.22-18.92-6c-2.81.44-5.37,2.46-7.49,5L1257,136.3Z"
     transform="translate(46.51 46.51)"
     id="path44" />
  <path
     d="M1320.5,123.49s.92-1.35,2.18-2.91l9-11.15c2.37-2.94,6.22-6.93,10.1-7.35,6.18-.66,14.4,4.34,17.28,6.17l-4.54-42c-.6-5.47-8-6.45-11.35-9.13l-2.52-1.87-5.83,7.24-3.32-2.68,15.74-19.56-1.81-16.77-11-5.6-8.82,1-7.87,9.78-3.33-2.68L1331.25,5l8.83-1,14.19,7.39,3.33,2.68,1.91,17.65-9.76,12.13,17,13.87,4.78,44.13-16.85,20.93s-10.84-7.76-18.6-6.92c-2.83.3-5.48,2.2-7.72,4.58l-4.57,5.68Z"
     transform="translate(46.51 46.51)"
     id="path46" />
  <path
     d="M1408.32,115s1-1.29,2.37-2.78l9.66-10.56c2.54-2.78,6.64-6.51,10.54-6.69,6.21-.28,14.09,5.24,16.85,7.25L1445.85,60c-.24-5.5-7.59-6.94-10.74-9.82l-2.4-2L1426.44,55l-3.15-2.89,16.94-18.52-.75-16.85-10.59-6.28-8.87.39-8.47,9.27-3.15-2.89L1426.53-2.6l8.87-.4,13.7,8.28,3.15,2.88.79,17.73-10.5,11.49,16.12,14.92,2,44.34-18.13,19.83s-10.33-8.43-18.13-8.08c-2.84.13-5.61,1.85-8,4.09l-4.92,5.38Z"
     transform="translate(46.51 46.51)"
     id="path48" />
  <path
     d="M1475.3,111.83s1.08-1.23,2.52-2.62l10.29-10c2.7-2.62,7-6.1,10.93-6,6.21.1,13.75,6.09,16.38,8.26l.68-42.25c.09-5.5-7.16-7.4-10.13-10.46l-2.27-2.17L1497,53.05l-3-3.07,18-17.46.27-16.86-10.18-6.92-8.88-.14-9,8.73-3-3.07,19.3-18.68,8.88.14,13.17,9.09,3,3.07-.29,17.75-11.18,10.83,15.19,15.87-.73,44.38-19.3,18.69s-9.8-9-17.61-9.16c-2.84,0-5.7,1.5-8.22,3.59l-5.24,5.06Z"
     transform="translate(46.51 46.51)"
     id="path50" />
  <path
     d="M1543.76,112.67s1.13-1.18,2.62-2.53l10.62-9.58c2.8-2.53,7.24-5.85,11.14-5.65,6.21.32,13.53,6.56,16.08,8.82l2.17-42.19c.28-5.5-6.89-7.65-9.75-10.82l-2.2-2.24-6.9,6.22-2.86-3.17,18.65-16.82.86-16.84-9.93-7.27-8.87-.46-9.32,8.41-2.86-3.17,20-18,8.86.45,12.85,9.55,2.86,3.17-.92,17.73-11.56,10.43,14.63,16.4-2.28,44.32-19.95,18s-9.48-9.38-17.28-9.78c-2.83-.14-5.75,1.31-8.34,3.31l-5.41,4.87Z"
     transform="translate(46.51 46.51)"
     id="path52" />
  <path
     d="M1631.81,118.17s1.2-1.11,2.77-2.36l11.21-8.9c3-2.34,7.59-5.38,11.47-4.94,6.18.72,13.09,7.41,15.49,9.83l4.83-42c.63-5.47-6.4-8.06-9-11.4l-2-2.39-7.28,5.78-2.65-3.34,19.67-15.61,1.92-16.76-9.45-7.88-8.82-1L1650,25l-2.65-3.34,21-16.7,8.82,1,12.22,10.34,2.65,3.35-2,17.63L1677.89,47l13.56,17.29-5.08,44.09-21,16.7s-8.86-10-16.62-10.85c-2.83-.32-5.83.94-8.54,2.78l-5.71,4.52Z"
     transform="translate(46.51 46.51)"
     id="path54" />
  <path
     d="M1699.06,126.16s1.25-1.06,2.88-2.23l11.64-8.34c3.06-2.19,7.84-5,11.69-4.37,6.13,1,12.71,8,15,10.57l6.87-41.69c.89-5.43-6-8.37-8.49-11.84l-1.93-2.48-7.55,5.42-2.49-3.47,20.41-14.63,2.74-16.65-9.06-8.33L1732,26.68,1721.8,34l-2.48-3.46,21.83-15.66,8.76,1.44,11.7,10.93,2.48,3.47-2.88,17.51-12.66,9.08,12.7,17.92L1754,119l-21.84,15.66s-8.36-10.38-16.07-11.65c-2.8-.46-5.87.65-8.67,2.35l-5.91,4.24Z"
     transform="translate(46.51 46.51)"
     id="path56" />
  <path
     d="M1765.8,137.41s1.3-1,3-2.08l12-7.76c3.17-2,8.08-4.62,11.9-3.8,6.07,1.31,12.3,8.65,14.46,11.29l8.9-41.3c1.16-5.38-5.58-8.65-7.9-12.24l-1.8-2.57-7.81,5-2.31-3.59,21.09-13.61,3.56-16.49-8.65-8.76-8.67-1.87L1793,46.47l-2.32-3.58,22.58-14.57,8.67,1.87,11.15,11.48,2.31,3.59-3.74,17.36-13.08,8.44,11.81,18.52L1821.06,133l-22.58,14.57s-7.85-10.77-15.48-12.42c-2.78-.6-5.89.37-8.77,1.92l-6.12,4Z"
     transform="translate(46.51 46.51)"
     id="path58" />
  <path
     d="M1851.77,157s1.36-.91,3.12-1.89l12.5-7c3.28-1.84,8.35-4.09,12.11-3,6,1.69,11.73,9.41,13.71,12.19l11.53-40.65c1.5-5.3-5-9-7.1-12.72l-1.64-2.68-8.11,4.53-2.08-3.73,21.92-12.24,4.61-16.22-8.07-9.3-8.54-2.43-11,6.12-2.08-3.73,23.46-13.09,8.54,2.42,10.39,12.18,2.08,3.73-4.85,17.08-13.59,7.58,10.59,19.25-12.11,42.7-23.46,13.09s-7.14-11.25-14.66-13.38c-2.73-.78-5.9,0-8.87,1.36l-6.36,3.54Z"
     transform="translate(46.51 46.51)"
     id="path60" />
  <path
     d="M1916.8,175.65s1.4-.84,3.2-1.73l12.83-6.35c3.37-1.68,8.54-3.68,12.25-2.43,5.88,2,11.24,10,13.08,12.85l13.52-40c1.76-5.22-4.57-9.23-6.47-13.05l-1.5-2.76-8.33,4.12-1.89-3.82,22.5-11.14,5.39-16-7.6-9.69-8.41-2.84-11.25,5.57-1.89-3.82,24.07-11.93,8.41,2.84,9.78,12.67,1.89,3.83-5.67,16.82-14,6.91,9.64,19.74-14.2,42-24.07,11.93s-6.58-11.59-14-14.09c-2.69-.91-5.89-.3-8.93.92l-6.52,3.23Z"
     transform="translate(46.51 46.51)"
     id="path62" />
  <path
     d="M1980.83,197.52s1.45-.76,3.29-1.57l13.12-5.71c3.46-1.5,8.72-3.25,12.35-1.82,5.79,2.27,10.75,10.52,12.45,13.48l15.46-39.32c2-5.13-4.11-9.44-5.81-13.36l-1.37-2.82-8.52,3.71-1.7-3.92,23-10,6.17-15.7-7.12-10-8.26-3.24-11.51,5-1.7-3.91,24.63-10.73,8.26,3.25,9.14,13.13,1.71,3.91-6.5,16.53-14.27,6.21,8.66,20.19-16.25,41.31-24.63,10.73s-6-11.9-13.27-14.76c-2.65-1-5.87-.59-9,.48l-6.67,2.91Z"
     transform="translate(46.51 46.51)"
     id="path64" />
  <path
     d="M2062.53,230.7s1.49-.67,3.38-1.35l13.46-4.87c3.54-1.28,8.91-2.69,12.44-1,5.63,2.64,10.05,11.19,11.56,14.25l17.94-38.26c2.34-5-3.5-9.68-4.95-13.69l-1.18-2.91-8.74,3.16-1.45-4,23.61-8.53,7.16-15.27-6.45-10.48-8-3.77-11.81,4.27-1.45-4,25.27-9.13,8,3.77,8.28,13.69,1.45,4-7.54,16.08-14.64,5.29,7.35,20.7-18.85,40.19-25.26,9.13s-5.23-12.26-12.31-15.58c-2.57-1.2-5.82-1-9-.09l-6.85,2.47Z"
     transform="translate(46.51 46.51)"
     id="path66" />
  <path
     d="M2123.72,259.68s1.52-.6,3.44-1.19l13.69-4.2c3.6-1.1,9-2.25,12.48-.41,5.49,2.91,9.49,11.66,10.84,14.79l19.8-37.33c2.57-4.87-3-9.84-4.28-13.93l-1-3-8.88,2.73-1.25-4.08,24-7.37,7.9-14.9L2194.49,180l-7.85-4.16-12,3.69-1.25-4.08,25.68-7.89,7.85,4.16,7.6,14.08,1.25,4.08-8.31,15.69-14.89,4.57,6.33,21-20.79,39.21-25.69,7.89s-4.62-12.5-11.52-16.16c-2.51-1.33-5.77-1.25-9-.54l-7,2.14Z"
     transform="translate(46.51 46.51)"
     id="path68" />
  <path
     d="M2183.39,291.6s1.55-.53,3.5-1l13.87-3.53c3.65-.93,9.12-1.8,12.48.2,5.34,3.17,8.91,12.11,10.11,15.3l21.59-36.32c2.82-4.73-2.53-10-3.58-14.11l-.9-3-9,2.29-1.05-4.14,24.33-6.19,8.62-14.49-5.4-11.07-7.63-4.53-12.17,3.09-1-4.14,26-6.62,7.63,4.54,6.91,14.44,1.05,4.13-9.07,15.26-15.09,3.84,5.3,21.32L2237.18,305l-26,6.62s-4-12.71-10.73-16.7c-2.44-1.45-5.7-1.53-8.92-1l-7.06,1.8Z"
     transform="translate(46.51 46.51)"
     id="path70" />
  <path
     d="M2258.73,337.52s1.58-.42,3.55-.79l14.07-2.64c3.7-.69,9.22-1.22,12.44,1,5.13,3.5,8.13,12.65,9.12,15.91l23.86-34.88c3.11-4.54-1.9-10.11-2.69-14.31l-.7-3.06-9.13,1.71-.79-4.19,24.68-4.63,9.52-13.93L2338,266.32l-7.32-5-12.34,2.31-.79-4.19,26.4-5,7.33,5,6,14.84.79,4.2-10,14.65-15.3,2.87,3.93,21.62-25.06,36.64-26.4,4.95s-3.2-12.94-9.64-17.35c-2.35-1.6-5.6-1.89-8.85-1.53l-7.16,1.34Z"
     transform="translate(46.51 46.51)"
     id="path72" />
  <path
     d="M2314.45,375.94s1.6-.35,3.59-.62l14.17-2c3.74-.51,9.28-.77,12.39,1.59,5,3.76,7.5,13,8.33,16.34l25.53-33.67c3.32-4.39-1.41-10.2-2-14.43l-.55-3.09-9.21,1.27-.58-4.23,24.87-3.43,10.19-13.44-4.13-11.6-7.07-5.36L2377.55,305l-.58-4.22,26.61-3.67,7.08,5.36,5.25,15.12.58,4.23L2405.76,336l-15.42,2.12,2.88,21.78-26.81,35.38-26.62,3.66s-2.56-13.08-8.79-17.8c-2.26-1.71-5.49-2.16-8.76-2l-7.21,1Z"
     transform="translate(46.51 46.51)"
     id="path74" />
  <path
     d="M2368.28,417s1.61-.27,3.61-.44l14.26-1.27c3.75-.33,9.3-.31,12.29,2.19,4.76,4,6.86,13.39,7.53,16.73l27.13-32.4c3.53-4.22-.91-10.25-1.29-14.5l-.4-3.12-9.25.82-.38-4.25,25-2.22,10.83-12.93-3.56-11.78-6.81-5.7-12.5,1.11-.38-4.26,26.76-2.36,6.81,5.69,4.51,15.36.37,4.25-11.4,13.61-15.5,1.38,1.81,21.89-28.5,34-26.76,2.37s-1.92-13.19-7.91-18.2c-2.18-1.83-5.38-2.42-8.66-2.39l-7.25.64Z"
     transform="translate(46.51 46.51)"
     id="path76" />
  <path
     d="M2435.29,474.42s1.63-.16,3.64-.21l14.31-.36c3.76-.1,9.3.27,12.13,3,4.5,4.28,6,13.79,6.46,17.17L2501,463.35c3.79-4-.26-10.29-.37-14.55l-.2-3.14-9.29.24-.11-4.27,25.1-.63,11.63-12.23-2.82-12-6.43-6.12-12.55.32-.11-4.27,26.86-.68,6.43,6.12,3.53,15.61.11,4.27L2530.5,444.9l-15.57.39.43,22-30.58,32.17-26.86.67s-1.09-13.28-6.75-18.66c-2.06-2-5.22-2.76-8.49-2.93l-7.28.18Z"
     transform="translate(46.51 46.51)"
     id="path78" />
  <path
     d="M2484.2,521.27s1.63-.09,3.64,0l14.31.33c3.76.09,9.27.72,12,3.54,4.29,4.5,5.32,14.07,5.62,17.46l30.56-29.17c4-3.8.24-10.29.34-14.56l0-3.14-9.29-.21.1-4.27,25.1.58,12.21-11.64L2576.48,468l-6.13-6.42-12.55-.29.1-4.27,26.86.63,6.12,6.42,2.78,15.76-.1,4.27-12.85,12.26-15.56-.37-.64,22-32.11,30.65-26.85-.63s-.45-13.32-5.84-19c-2-2.06-5.08-3-8.33-3.34l-7.28-.17Z"
     transform="translate(46.51 46.51)"
     id="path80" />
  <path
     d="M2530.75,570.41s1.64,0,3.64.14l14.28,1c3.76.27,9.23,1.16,11.79,4.12,4.06,4.69,4.63,14.3,4.76,17.71l32-27.66c4.16-3.6.74-10.27,1-14.52l.1-3.14-9.27-.67.31-4.26,25,1.8,12.75-11-1.64-12.2L2619.7,515l-12.52-.9.31-4.26,26.79,1.93,5.81,6.71,2,15.88-.31,4.26-13.42,11.62-15.53-1.12-1.7,21.91-33.56,29.05-26.8-1.93s.21-13.33-4.91-19.23c-1.86-2.15-4.92-3.25-8.16-3.74l-7.26-.52Z"
     transform="translate(46.51 46.51)"
     id="path82" />
  <path
     d="M2587.78,637.77s1.64.09,3.63.36l14.18,1.93c3.73.51,9.13,1.75,11.5,4.86,3.76,4.94,3.72,14.57,3.64,18l33.63-25.58c4.38-3.34,1.39-10.2,2-14.43l.3-3.13-9.21-1.25.58-4.23,24.88,3.38,13.42-10.21-.86-12.28-5.38-7.07-12.44-1.69.58-4.23,26.62,3.62,5.37,7.07,1,16-.57,4.23-14.14,10.75-15.42-2.1L2668,643.47l-35.32,26.87L2606,666.72s1-13.28-3.69-19.5c-1.72-2.26-4.71-3.55-7.91-4.24l-7.21-1Z"
     transform="translate(46.51 46.51)"
     id="path84" />
  <path
     d="M2628.56,691.78s1.62.17,3.6.54l14.07,2.62c3.7.68,9,2.19,11.25,5.41,3.52,5.12,3,14.73,2.76,18.13l34.84-23.92c4.53-3.11,1.88-10.12,2.66-14.31l.45-3.11-9.14-1.7.78-4.2,24.69,4.59,13.9-9.55-.26-12.31-5-7.31-12.34-2.3.78-4.19,26.41,4.9,5,7.32.22,16-.78,4.2-14.64,10-15.3-2.84-4.14,21.57-36.59,25.13-26.42-4.91s1.69-13.22-2.73-19.66c-1.6-2.34-4.53-3.78-7.69-4.62l-7.16-1.33Z"
     transform="translate(46.51 46.51)"
     id="path86" />
  <path
     d="M2666.69,747.75s1.61.26,3.57.72l13.92,3.3c3.67.86,8.93,2.63,11,6,3.26,5.29,2.29,14.86,1.87,18.25l36-22.19c4.69-2.9,2.38-10,3.36-14.18l.6-3.08-9-2.14,1-4.15,24.44,5.78,14.35-8.86.33-12.3-4.66-7.56-12.22-2.89,1-4.15,26.14,6.18,4.66,7.56-.56,16-1,4.16-15.11,9.32-15.15-3.58-5.18,21.35-37.77,23.31L2682,778.35s2.33-13.13-1.77-19.77c-1.49-2.42-4.34-4-7.46-5l-7.09-1.67Z"
     transform="translate(46.51 46.51)"
     id="path88" />
  <path
     d="M2712.17,823.31s1.6.36,3.52.94l13.69,4.18c3.61,1.1,8.74,3.19,10.58,6.64,2.92,5.48,1.34,15,.71,18.33L2778,833.54c4.86-2.59,3-9.85,4.25-13.93l.8-3-8.89-2.71,1.25-4.09,24,7.33,14.89-7.93,1.12-12.26-4.18-7.83-12-3.67,1.24-4.08,25.7,7.84,4.17,7.83-1.58,15.93L2827.5,817l-15.67,8.35-14.89-4.54-6.53,21-39.18,20.87-25.7-7.84s3.17-13-.51-19.85c-1.33-2.5-4.08-4.26-7.13-5.45l-7-2.13Z"
     transform="translate(46.51 46.51)"
     id="path90" />
  <path
     d="M2743.77,883.17s1.58.43,3.47,1.11l13.47,4.84c3.54,1.27,8.57,3.62,10.23,7.15,2.65,5.62.61,15-.19,18.34l38.23-18c5-2.35,3.48-9.69,4.92-13.71l.95-3-8.75-3.15,1.45-4,23.62,8.49,15.26-7.19,1.71-12.19-3.78-8-11.81-4.25,1.44-4,25.28,9.08,3.79,8-2.36,15.83-1.44,4-16.06,7.57-14.65-5.27L2821,905.45l-40.15,18.93-25.28-9.09s3.79-12.78.46-19.84c-1.21-2.57-3.87-4.46-6.85-5.8l-6.85-2.47Z"
     transform="translate(46.51 46.51)"
     id="path92" />
  <path
     d="M2772.4,944.51s1.55.51,3.41,1.28l13.21,5.49c3.48,1.45,8.39,4,9.88,7.65,2.37,5.74-.14,15-1.09,18.31l39.06-16.12c5.09-2.1,4-9.51,5.59-13.45l1.09-2.94-8.58-3.57,1.64-3.94,23.19,9.64,15.59-6.44,2.31-12.09-3.39-8.2-11.59-4.82,1.64-3.94,24.81,10.31,3.38,8.21-3.13,15.69-1.63,3.94-16.42,6.77-14.37-6-8.55,20.24-41,16.93-24.81-10.32s4.41-12.58,1.43-19.8c-1.08-2.62-3.64-4.64-6.56-6.13l-6.72-2.79Z"
     transform="translate(46.51 46.51)"
     id="path94" />
  <path
     d="M2805.12,1026.39s1.52.61,3.32,1.5l12.84,6.33c3.38,1.66,8.11,4.56,9.36,8.26,2,5.88-1.09,15-2.25,18.2l40-13.59c5.21-1.77,4.55-9.23,6.44-13.06l1.28-2.87-8.34-4.11,1.89-3.83,22.52,11.11,16-5.42,3.08-11.93-2.85-8.4-11.26-5.55,1.88-3.83,24.1,11.88,2.85,8.41-4.12,15.46-1.89,3.83-16.81,5.71-14-6.89-9.83,19.65-42,14.27-24.1-11.88s5.21-12.27,2.7-19.67c-.91-2.69-3.34-4.86-6.16-6.53l-6.53-3.22Z"
     transform="translate(46.51 46.51)"
     id="path96" />
  <path
     d="M2826.63,1090.52s1.49.69,3.25,1.66l12.5,7c3.3,1.83,7.88,5,8.95,8.71,1.71,6-1.83,14.93-3.14,18.07l40.63-11.6c5.29-1.51,5-9,7.07-12.73l1.41-2.8-8.12-4.52,2.08-3.73,21.94,12.2,16.22-4.63,3.66-11.76-2.44-8.53-11-6.1,2.07-3.73,23.49,13,2.44,8.53-4.88,15.25-2.08,3.73-17.07,4.87-13.61-7.56L2899.25,1125l-42.68,12.19-23.48-13s5.81-12,3.66-19.51c-.78-2.73-3.1-5-5.83-6.83l-6.36-3.54Z"
     transform="translate(46.51 46.51)"
     id="path98" />
  <path
     d="M2845,1155.67s1.46.76,3.16,1.82l12.16,7.56c3.19,2,7.62,5.33,8.5,9.14,1.42,6-2.56,14.81-4,17.89l41.16-9.59c5.36-1.25,5.43-8.74,7.69-12.37l1.55-2.73-7.89-4.91,2.25-3.62,21.32,13.26,16.43-3.83,4.23-11.56-2-8.64-10.66-6.63,2.25-3.63L2963.9,1152l2,8.65-5.62,15-2.26,3.62-17.29,4-13.22-8.22-11.71,18.59-43.23,10.08-22.81-14.19s6.39-11.7,4.62-19.31c-.65-2.77-2.85-5.17-5.49-7.11l-6.18-3.84Z"
     transform="translate(46.51 46.51)"
     id="path100" />
  <path
     d="M2864,1241.78s1.4.85,3,2l11.64,8.32c3.07,2.18,7.27,5.8,7.91,9.66,1,6.13-3.5,14.62-5.16,17.6l41.68-7c5.43-.9,6-8.38,8.46-11.85l1.72-2.63-7.56-5.4,2.48-3.47,20.43,14.59,16.64-2.77,5-11.27-1.46-8.75-10.21-7.3,2.48-3.47,21.86,15.61,1.46,8.76-6.57,14.59-2.48,3.48-17.51,2.91-12.67-9-12.87,17.8-43.78,7.3-21.86-15.62s7.12-11.26,5.83-19c-.46-2.8-2.5-5.34-5-7.44l-5.93-4.23Z"
     transform="translate(46.51 46.51)"
     id="path102" />
  <path
     d="M2874.92,1308.6s1.36.91,2.93,2.16l11.23,8.88c3,2.33,7,6.15,7.43,10,.72,6.17-4.21,14.44-6,17.33l42-4.9c5.47-.64,6.39-8.08,9-11.43l1.85-2.54-7.29-5.76,2.65-3.35,19.7,15.58,16.75-2,5.51-11-1-8.82-9.85-7.78,2.65-3.35,21.07,16.66,1,8.82-7.27,14.26-2.65,3.34-17.64,2.06-12.21-9.65L2941,1354.32l-44.09,5.15-21.07-16.66s7.66-10.91,6.76-18.67c-.33-2.82-2.25-5.45-4.65-7.68l-5.72-4.51Z"
     transform="translate(46.51 46.51)"
     id="path104" />
  <path
     d="M2882.53,1375.86s1.31,1,2.83,2.3l10.78,9.41c2.84,2.48,6.67,6.49,6.93,10.39.42,6.2-4.91,14.21-6.85,17l42.16-2.86c5.49-.37,6.77-7.75,9.57-11l2-2.45-7-6.11,2.81-3.21,18.92,16.51,16.83-1.14,6-10.73-.6-8.86-9.46-8.26,2.81-3.21,20.24,17.67.6,8.85-8,13.89-2.8,3.22-17.72,1.2-11.73-10.24-14.54,16.47-44.28,3-20.24-17.67s8.18-10.52,7.65-18.32c-.19-2.83-2-5.56-4.27-7.89l-5.49-4.79Z"
     transform="translate(46.51 46.51)"
     id="path106" />
  <path
     d="M2887.23,1464.31s1.26,1,2.7,2.44l10.28,10c2.71,2.62,6.33,6.83,6.39,10.73.1,6.21-5.63,13.94-7.72,16.64l42.25-.69c5.5-.09,7.16-7.39,10.13-10.46l2.09-2.34-6.67-6.46,3-3.07,18,17.46,16.86-.27,6.58-10.41L2991,1479l-9-8.74,3-3.06,19.3,18.68.14,8.88-8.66,13.46-3,3.07-17.75.28-11.18-10.82-15.37,15.69-44.38.73-19.31-18.69s8.72-10.09,8.59-17.9c0-2.84-1.69-5.65-3.86-8.1l-5.23-5.07Z"
     transform="translate(46.51 46.51)"
     id="path108" />
  <path
     d="M2887.65,1531.75s1.19,1.12,2.55,2.59l9.68,10.55c2.54,2.77,5.91,7.18,5.74,11.09-.26,6.2-6.44,13.58-8.69,16.15l42.22,1.81c5.5.23,7.59-7,10.73-9.85l2.23-2.21-6.28-6.85,3.14-2.88,17,18.49,16.85.73,7.18-10,.38-8.87-8.49-9.25,3.15-2.89,18.16,19.79-.38,8.87-9.44,12.93-3.14,2.88-17.74-.76L2962,1572.61l-16.28,14.76-44.34-1.9-18.17-19.79s9.3-9.56,9.63-17.36c.12-2.84-1.35-5.75-3.38-8.32l-4.92-5.37Z"
     transform="translate(46.51 46.51)"
     id="path110" />
  <path
     d="M2884.5,1599.4s1.14,1.17,2.43,2.71l9.15,11c2.41,2.9,5.56,7.46,5.2,11.35-.56,6.19-7.09,13.26-9.46,15.72l42.08,3.85c5.48.5,7.92-6.59,11.2-9.32l2.33-2.1-5.95-7.14,3.28-2.73,16.07,19.3,16.79,1.53,7.66-9.64.81-8.84-8-9.65,3.28-2.73,17.19,20.65-.81,8.84-10.06,12.45-3.28,2.73-17.68-1.62-10-12-17,14-44.2-4-17.19-20.65s9.75-9.1,10.46-16.87c.26-2.83-1.08-5.81-3-8.48l-4.66-5.59Z"
     transform="translate(46.51 46.51)"
     id="path112" />
  <path
     d="M2875.5,1687.17s1.06,1.24,2.25,2.86l8.44,11.56c2.22,3,5.07,7.8,4.47,11.66-1,6.14-7.93,12.78-10.44,15.09l41.75,6.51c5.44.85,8.32-6.07,11.76-8.59l2.46-2-5.48-7.51,3.45-2.51,14.81,20.28,16.66,2.6,8.26-9.14,1.37-8.77-7.41-10.14,3.45-2.52,15.84,21.7-1.36,8.77L2975,1748.86l-3.45,2.52-17.54-2.74-9.18-12.57L2927,1748.92l-43.85-6.84-15.85-21.69s10.31-8.46,11.51-16.18c.44-2.81-.7-5.86-2.43-8.64l-4.29-5.88Z"
     transform="translate(46.51 46.51)"
     id="path114" />
  <path
     d="M2864.83,1754s1,1.3,2.1,3l7.87,12c2.07,3.15,4.68,8,3.89,11.87-1.25,6.08-8.54,12.37-11.16,14.55l41.38,8.55c5.39,1.11,8.6-5.66,12.17-8l2.55-1.83-5.1-7.76,3.56-2.34,13.8,21,16.52,3.42,8.69-8.72,1.79-8.7-6.9-10.49,3.57-2.34,14.76,22.44-1.79,8.7-11.39,11.24-3.56,2.35-17.39-3.59-8.56-13-18.42,12-43.47-9L2855,1786.77s10.7-7.94,12.28-15.6c.58-2.78-.41-5.88-2-8.75l-4-6.08Z"
     transform="translate(46.51 46.51)"
     id="path116" />
  <path
     d="M2850.9,1820.22s.93,1.35,1.95,3.08l7.27,12.33c1.91,3.24,4.29,8.25,3.31,12-1.56,6-9.14,11.94-11.87,14l40.92,10.56c5.33,1.38,8.87-5.22,12.54-7.39l2.64-1.7-4.71-8,3.67-2.16,12.75,21.63,16.33,4.21,9.11-8.28,2.22-8.59-6.37-10.82,3.67-2.17,13.65,23.15-2.22,8.59-11.93,10.68-3.68,2.16-17.19-4.44-7.9-13.41-19,11-43-11.1-13.64-23.15s11.08-7.4,13-15c.71-2.75-.12-5.9-1.56-8.84l-3.7-6.27Z"
     transform="translate(46.51 46.51)"
     id="path118" />
  <path
     d="M2827.91,1905.33s.84,1.39,1.75,3.19l6.46,12.77c1.71,3.36,3.75,8.51,2.53,12.22-1.93,5.91-9.88,11.33-12.73,13.2l40.15,13.17c5.23,1.71,9.18-4.65,13-6.58l2.75-1.53-4.2-8.29,3.81-1.93,11.34,22.41,16,5.25,9.62-7.68,2.77-8.44-5.67-11.2,3.81-1.93,12.13,24-2.77,8.44-12.58,9.89-3.81,1.92-16.87-5.53-7-13.89-19.66,9.81-42.17-13.83-12.13-24s11.53-6.69,14-14.11c.89-2.7.25-5.9-1-8.92l-3.28-6.5Z"
     transform="translate(46.51 46.51)"
     id="path120" />
  <path
     d="M2806.58,1969.58s.78,1.43,1.59,3.27l5.83,13.07c1.54,3.44,3.33,8.69,1.93,12.34-2.22,5.8-10.43,10.83-13.37,12.56l39.46,15.12c5.14,2,9.4-4.19,13.3-5.93l2.81-1.39-3.78-8.49,3.9-1.74,10.22,22.94,15.75,6,10-7.2,3.18-8.29-5.12-11.47,3.9-1.73,10.94,24.53-3.17,8.29-13.06,9.26-3.9,1.74-16.58-6.36-6.34-14.21-20.11,8.83-41.45-15.89-10.94-24.53s11.85-6.11,14.64-13.41c1-2.65.54-5.87-.56-9l-3-6.65Z"
     transform="translate(46.51 46.51)"
     id="path122" />
  <path
     d="M2782.14,2032.66s.7,1.48,1.43,3.35l5.18,13.34c1.37,3.51,2.9,8.84,1.32,12.42-2.5,5.68-10.94,10.31-14,11.89l38.67,17c5,2.22,9.6-3.72,13.58-5.27l2.88-1.25-3.36-8.66,4-1.55,9.09,23.41,15.44,6.8,10.33-6.71,3.57-8.12-4.54-11.7,4-1.55,9.72,25-3.57,8.12-13.5,8.61-4,1.54-16.24-7.16-5.64-14.51-20.52,7.84-40.62-17.9-9.73-25s12.13-5.52,15.28-12.67c1.15-2.6.83-5.84-.12-9l-2.63-6.79Z"
     transform="translate(46.51 46.51)"
     id="path124" />
  <path
     d="M2745.68,2113s.61,1.52,1.22,3.44l4.32,13.64c1.13,3.59,2.32,9,.52,12.48-2.86,5.51-11.58,9.59-14.7,11l37.51,19.47c4.88,2.54,9.81-3.11,13.88-4.39l3-1.07-2.8-8.86,4.07-1.29,7.58,23.94,15,7.77,10.73-6,4.09-7.88-3.79-12,4.07-1.28,8.11,25.61-4.09,7.88-14,7.73-4.06,1.28-15.76-8.18-4.7-14.84-21,6.51-39.4-20.45-8.11-25.61s12.46-4.74,16.06-11.67c1.31-2.52,1.2-5.78.46-9l-2.2-6.95Z"
     transform="translate(46.51 46.51)"
     id="path126" />
  <path
     d="M2714.28,2172.92s.53,1.54,1,3.49l3.64,13.84c1,3.64,1.89,9.11-.08,12.48-3.13,5.37-12,9-15.22,10.25l36.51,21.27c4.76,2.77,10-2.62,14.08-3.71l3-.92-2.37-9,4.13-1.09,6.39,24.28,14.58,8.49,11-5.5,4.47-7.67-3.2-12.14,4.13-1.09,6.85,26-4.47,7.67-14.38,7-4.13,1.09-15.34-8.94-4-15.06-21.28,5.48-38.35-22.35-6.85-26s12.68-4.12,16.61-10.87c1.43-2.45,1.48-5.71.89-8.93l-1.85-7Z"
     transform="translate(46.51 46.51)"
     id="path128" />
  <path
     d="M2680,2231.28s.46,1.57.88,3.54l3,14c.78,3.68,1.43,9.19-.7,12.47-3.38,5.21-12.46,8.41-15.69,9.48l35.42,23c4.62,3,10.07-2.13,14.25-3l3-.77-1.92-9.09,4.17-.88,5.21,24.56,14.14,9.19,11.27-4.95,4.84-7.45-2.61-12.28,4.18-.88,5.57,26.28-4.84,7.44-14.7,6.33-4.17.88-14.89-9.67-3.23-15.23-21.51,4.43-37.22-24.19-5.57-26.28s12.86-3.5,17.12-10c1.55-2.38,1.76-5.63,1.33-8.88l-1.51-7.12Z"
     transform="translate(46.51 46.51)"
     id="path130" />
  <path
     d="M2631.07,2304.71s.36,1.6.65,3.59l2.07,14.16c.55,3.72.85,9.26-1.48,12.39-3.71,5-13,7.61-16.27,8.48l33.89,25.23c4.42,3.29,10.19-1.49,14.41-2.11l3.09-.58-1.35-9.19,4.23-.62,3.64,24.84,13.53,10.07,11.56-4.23,5.3-7.12-1.82-12.42,4.22-.62,3.89,26.59-5.3,7.12-15.07,5.38-4.22.61-14.24-10.6-2.26-15.4-21.75,3.06-35.61-26.51-3.89-26.58s13.06-2.67,17.72-8.94c1.7-2.28,2.11-5.51,1.89-8.77l-1.06-7.21Z"
     transform="translate(46.51 46.51)"
     id="path132" />
  <path
     d="M2590.44,2358.88s.28,1.61.47,3.61l1.39,14.24c.36,3.75.4,9.3-2.08,12.31-3.95,4.8-13.33,7-16.66,7.68l32.63,26.85c4.25,3.49,10.24-1,14.49-1.41l3.11-.43-.9-9.25,4.25-.41,2.43,25,13,10.72,11.76-3.67,5.64-6.85-1.22-12.5,4.25-.41,2.6,26.74-5.64,6.85-15.31,4.65-4.25.41-13.71-11.28-1.51-15.5-21.88,2-34.27-28.2-2.6-26.74s13.17-2,18.13-8.07c1.81-2.19,2.38-5.4,2.31-8.67l-.7-7.25Z"
     transform="translate(46.51 46.51)"
     id="path134" />
  <path
     d="M2547.22,2411s.21,1.62.3,3.63l.7,14.29c.18,3.77,0,9.31-2.68,12.2-4.18,4.6-13.65,6.32-17,6.86l31.29,28.4c4.07,3.7,10.28-.5,14.54-.71l3.13-.27-.45-9.28,4.26-.21,1.22,25.08,12.49,11.33,11.92-3.09,6-6.57-.6-12.54,4.26-.21,1.3,26.84-6,6.57-15.52,3.9-4.26.2L2579,2505.5l-.75-15.55-21.95.94-32.87-29.83-1.3-26.84s13.25-1.39,18.5-7.18c1.91-2.1,2.64-5.28,2.73-8.55l-.35-7.27Z"
     transform="translate(46.51 46.51)"
     id="path136" />
  <path
     d="M2487.21,2475.69s.1,1.64.07,3.65l-.21,14.31c-.06,3.76-.64,9.28-3.44,12-4.46,4.33-14,5.44-17.42,5.77l29.44,30.31c3.83,3.95,10.29.16,14.56.22l3.14-.08.14-9.29,4.26.06-.37,25.11,11.75,12.1,12.09-2.33,6.37-6.19.19-12.55,4.26.06-.39,26.87-6.37,6.18-15.74,2.91-4.27-.07L2512.9,2572l.23-15.57-22-.45-30.92-31.84.4-26.87s13.31-.55,18.92-6c2-2,3-5.1,3.26-8.36l.11-7.28Z"
     transform="translate(46.51 46.51)"
     id="path138" />
  <path
     d="M2438.44,2522.69s0,1.64-.1,3.64l-.9,14.29c-.24,3.76-1.09,9.24-4,11.82-4.67,4.11-14.27,4.76-17.67,4.92l27.93,31.71c3.63,4.13,10.27.65,14.53.92l3.14.07.59-9.27,4.26.27-1.59,25.06,11.15,12.65,12.18-1.74,6.67-5.87.79-12.53,4.26.27-1.7,26.81-6.66,5.87-15.86,2.14-4.26-.27-11.73-13.32,1-15.54-21.92-1.51-29.34-33.31,1.7-26.81s13.33.09,19.19-5.07c2.13-1.88,3.21-5,3.66-8.2l.46-7.27Z"
     transform="translate(46.51 46.51)"
     id="path140" />
  <path
     d="M2387.48,2567.25s-.05,1.64-.28,3.64l-1.59,14.22c-.43,3.74-1.54,9.18-4.59,11.61-4.86,3.88-14.48,4.06-17.89,4.06l26.36,33c3.43,4.3,10.23,1.15,14.47,1.63l3.13.22,1-9.23,4.24.48-2.8,24.95,10.52,13.18,12.26-1.15,6.93-5.54,1.4-12.47,4.25.47-3,26.7-6.94,5.54-15.94,1.37-4.25-.48-11.07-13.88,1.74-15.47-21.82-2.57L2356,2612.86l3-26.7s13.31.74,19.41-4.14c2.22-1.77,3.45-4.79,4.06-8l.81-7.23Z"
     transform="translate(46.51 46.51)"
     id="path142" />
  <path
     d="M2317.92,2621.54s-.16,1.63-.51,3.6l-2.49,14.1c-.66,3.7-2.12,9.06-5.32,11.29-5.09,3.56-14.7,3.14-18.11,2.92l24.22,34.63c3.15,4.51,10.13,1.79,14.34,2.53l3.11.43,1.62-9.15,4.2.74-4.37,24.73,9.66,13.82,12.31-.37,7.27-5.09,2.19-12.36,4.2.74-4.68,26.45-7.27,5.09-16,.36-4.21-.75-10.17-14.54,2.71-15.33-21.61-4-25.44-36.37,4.68-26.45s13.24,1.57,19.64-2.9c2.33-1.63,3.74-4.57,4.56-7.74l1.27-7.17Z"
     transform="translate(46.51 46.51)"
     id="path144" />
  <path
     d="M2262.3,2660.13s-.24,1.62-.69,3.58l-3.18,14c-.83,3.67-2.55,8.94-5.85,11-5.26,3.31-14.84,2.42-18.23,2l22.5,35.77c2.93,4.66,10,2.28,14.2,3.23l3.09.57,2.06-9.05,4.16.94-5.57,24.49,9,14.27,12.31.23,7.51-4.73,2.79-12.24,4.16,1-6,26.19-7.52,4.73-16-.42-4.16-1-9.45-15,3.45-15.18-21.39-5-23.64-37.57,6-26.2s13.14,2.22,19.75-1.94c2.41-1.51,4-4.38,4.93-7.5l1.61-7.1Z"
     transform="translate(46.51 46.51)"
     id="path146" />
  <path
     d="M2204.87,2696s-.31,1.6-.86,3.54l-3.85,13.78c-1,3.63-3,8.81-6.39,10.73-5.41,3.05-14.94,1.69-18.3,1.14L2196.2,2762c2.7,4.8,9.91,2.77,14,3.92l3.06.72,2.5-8.94,4.11,1.15-6.76,24.18,8.28,14.7,12.28.82,7.74-4.35,3.38-12.1,4.11,1.15-7.23,25.88-7.74,4.35-16-1.2-4.11-1.15-8.71-15.47,4.19-15-21.13-6-21.77-38.67,7.23-25.88s13,2.86,19.83-1c2.47-1.4,4.16-4.18,5.28-7.26l2-7Z"
     transform="translate(46.51 46.51)"
     id="path148" />
  <path
     d="M2127.55,2738.39s-.42,1.58-1.09,3.47l-4.72,13.51c-1.24,3.56-3.54,8.61-7.06,10.3-5.6,2.7-15,.74-18.34,0l18.34,38.07c2.39,5,9.72,3.4,13.75,4.81l3,.91,3.07-8.77,4,1.41-8.29,23.7,7.32,15.2,12.21,1.61,8-3.86,4.14-11.85,4,1.41-8.87,25.36-8,3.86-15.85-2.22-4-1.41-7.71-16,5.14-14.7-20.7-7.37-19.27-40,8.87-25.37s12.81,3.69,19.85.29c2.56-1.23,4.42-3.9,5.74-6.9l2.4-6.87Z"
     transform="translate(46.51 46.51)"
     id="path150" />
  <path
     d="M2066.47,2767.54s-.5,1.56-1.25,3.42l-5.38,13.26c-1.42,3.49-4,8.42-7.56,9.94-5.72,2.42-15,0-18.32-.92l16.46,38.92c2.14,5.06,9.54,3.87,13.49,5.47l3,1.06,3.49-8.61,4,1.61-9.44,23.27,6.57,15.53,12.11,2.21,8.17-3.46,4.72-11.63,4,1.6-10.1,24.89-8.18,3.46-15.72-3-3.95-1.6-6.92-16.36,5.85-14.42-20.31-8.38-17.28-40.88,10.1-24.89s12.61,4.3,19.81,1.26c2.61-1.11,4.61-3.69,6.07-6.62l2.74-6.74Z"
     transform="translate(46.51 46.51)"
     id="path152" />
  <path
     d="M2004.06,2793.66s-.58,1.54-1.42,3.36l-6,13c-1.58,3.42-4.36,8.22-8,9.56-5.83,2.13-15-.74-18.25-1.83l14.53,39.68c1.89,5.17,9.33,4.33,13.21,6.13l2.89,1.21,3.92-8.43,3.87,1.8-10.57,22.77,5.8,15.84,12,2.8,8.33-3.06,5.29-11.38,3.87,1.79-11.31,24.37-8.34,3.05-15.55-3.75-3.87-1.8-6.11-16.67,6.55-14.12L1975,2868.6l-15.26-41.68,11.31-24.37s12.39,4.92,19.72,2.23c2.67-1,4.79-3.45,6.39-6.31l3.06-6.6Z"
     transform="translate(46.51 46.51)"
     id="path154" />
  <path
     d="M1920.91,2823.05s-.68,1.5-1.64,3.26l-6.84,12.57c-1.8,3.31-4.88,7.92-8.63,9-6,1.75-14.94-1.7-18.1-3l12,40.52c1.56,5.28,9,4.93,12.79,7l2.82,1.39,4.44-8.16,3.75,2-12,22.05,4.77,16.18,11.79,3.56,8.51-2.52,6-11,3.75,2-12.85,23.59-8.51,2.52-15.29-4.75-3.75-2-5-17,7.44-13.67L1887.07,2896l-12.56-42.57,12.85-23.6s12,5.71,19.54,3.5c2.72-.81,5-3.14,6.77-5.89l3.49-6.4Z"
     transform="translate(46.51 46.51)"
     id="path156" />
  <path
     d="M1855.94,2842s-.74,1.46-1.79,3.17l-7.45,12.22c-2,3.21-5.27,7.67-9.06,8.59-6,1.46-14.84-2.43-17.93-3.88l10,41.07c1.3,5.35,8.79,5.36,12.43,7.58l2.75,1.53,4.84-7.93,3.64,2.22L1840.25,2928l4,16.39,11.59,4.13,8.63-2.09,6.54-10.72,3.64,2.22-14,22.94-8.62,2.09-15-5.49-3.65-2.22-4.18-17.26,8.11-13.29-18.69-11.55L1808.11,2870l14-22.94s11.75,6.29,19.35,4.45c2.76-.67,5.14-2.89,7.06-5.55l3.79-6.21Z"
     transform="translate(46.51 46.51)"
     id="path158" />
  <path
     d="M1790.09,2857.66s-.81,1.42-1.94,3.08l-8,11.84c-2.12,3.11-5.64,7.4-9.47,8.13-6.11,1.17-14.7-3.16-17.72-4.75l7.92,41.5c1,5.41,8.52,5.79,12.05,8.19l2.67,1.66,5.22-7.69,3.53,2.4-14.11,20.77,3.16,16.57,11.38,4.69,8.72-1.66,7.06-10.39,3.53,2.4-15.1,22.23-8.72,1.66-14.74-6.22-3.53-2.4-3.33-17.44,8.74-12.88-18.1-12.45-8.32-43.59,15.1-22.23s11.43,6.86,19.1,5.39c2.79-.53,5.28-2.63,7.32-5.19l4.09-6Z"
     transform="translate(46.51 46.51)"
     id="path160" />
  <path
     d="M1703.29,2873.23s-.9,1.36-2.13,2.95l-8.78,11.3c-2.31,3-6.1,7-10,7.52-6.17.77-14.47-4.09-17.38-5.87l5.27,41.93c.68,5.46,8.13,6.31,11.5,8.93l2.55,1.83,5.7-7.34,3.37,2.62-15.4,19.83,2.1,16.73,11.06,5.41,8.81-1.1,7.7-9.92,3.37,2.62-16.48,21.22-8.81,1.1-14.32-7.14-3.37-2.62-2.21-17.62,9.55-12.29-17.28-13.58-5.53-44,16.49-21.22s11,7.57,18.72,6.6c2.82-.36,5.44-2.3,7.64-4.72l4.46-5.75Z"
     transform="translate(46.51 46.51)"
     id="path162" />
  <path
     d="M1636.08,2881.42s-1,1.32-2.28,2.85l-9.32,10.86c-2.45,2.86-6.43,6.72-10.32,7-6.2.48-14.26-4.78-17.08-6.7l3.23,42.13c.42,5.49,7.81,6.7,11,9.48l2.47,2,6-7.05,3.24,2.78-16.34,19.05,1.28,16.82,10.79,5.94,8.85-.67,8.17-9.53,3.24,2.78-17.49,20.39-8.85.68-14-7.84-3.24-2.78-1.35-17.7,10.13-11.82-16.59-14.4-3.39-44.26,17.49-20.39s10.6,8.1,18.39,7.5c2.83-.22,5.54-2,7.85-4.34l4.74-5.53Z"
     transform="translate(46.51 46.51)"
     id="path164" />
  <path
     d="M1568.53,2886.34s-1,1.27-2.41,2.73l-9.83,10.4c-2.59,2.74-6.75,6.41-10.65,6.52-6.22.17-14-5.47-16.73-7.52l1.18,42.24c.16,5.5,7.48,7.07,10.59,10l2.36,2.06,6.39-6.75,3.1,2.94-17.25,18.24.47,16.86,10.49,6.46,8.87-.25,8.62-9.13,3.11,2.94-18.46,19.52-8.87.25-13.56-8.5-3.11-2.93-.5-17.75,10.7-11.31-15.88-15.19-1.25-44.37,18.46-19.52s10.19,8.6,18,8.38c2.84-.08,5.63-1.76,8.05-4l5-5.29Z"
     transform="translate(46.51 46.51)"
     id="path166" />
  <path
     d="M1480.26,2887.86s-1.11,1.21-2.58,2.58l-10.46,9.77c-2.75,2.57-7.13,6-11,5.84-6.22-.22-13.64-6.34-16.23-8.56l-1.45,42.24c-.19,5.5,7,7.52,9.94,10.64l2.23,2.21,6.79-6.34,2.91,3.12L1442,2966.5l-.58,16.85,10.06,7.1,8.87.3,9.18-8.57,2.91,3.12-19.63,18.34-8.88-.3-13-9.33-2.91-3.12.61-17.75,11.38-10.62-14.91-16.15,1.53-44.36,19.63-18.33s9.64,9.21,17.44,9.48c2.84.1,5.74-1.4,8.29-3.45l5.33-5Z"
     transform="translate(46.51 46.51)"
     id="path168" />
  <path
     d="M1412.57,2885.29s-1.17,1.16-2.7,2.45L1399,2897c-2.88,2.44-7.41,5.63-11.31,5.3-6.19-.51-13.32-7-15.79-9.32l-3.49,42.11c-.45,5.49,6.65,7.86,9.41,11.11l2.13,2.32,7.09-6,2.75,3.26L1370.59,2962l-1.4,16.81,9.71,7.57,8.85.73,9.58-8.11,2.76,3.26-20.5,17.36-8.85-.73-12.54-10-2.76-3.25,1.47-17.7,11.87-10.06-14.1-16.84,3.66-44.24,20.5-17.37s9.18,9.67,17,10.32c2.83.23,5.8-1.13,8.45-3.05l5.56-4.7Z"
     transform="translate(46.51 46.51)"
     id="path170" />
  <path
     d="M1345.12,2879.47s-1.22,1.09-2.82,2.31l-11.35,8.71c-3,2.29-7.68,5.25-11.55,4.74-6.17-.81-13-7.62-15.33-10.08l-5.53,41.89c-.72,5.46,6.26,8.17,8.86,11.56l2,2.41,7.37-5.65,2.6,3.39L1299.46,2954l-2.21,16.73,9.32,8,8.8,1.16,10-7.64,2.59,3.39L1306.61,2992l-8.8-1.16-12-10.55-2.59-3.38,2.32-17.61,12.35-9.47-13.26-17.51,5.81-44,21.32-16.35s8.69,10.11,16.44,11.13c2.81.37,5.84-.84,8.58-2.63l5.78-4.43Z"
     transform="translate(46.51 46.51)"
     id="path172" />
  <path
     d="M1257.81,2867s-1.29,1-3,2.13l-11.88,8c-3.13,2.09-8,4.75-11.83,4-6.1-1.2-12.45-8.43-14.65-11l-8.19,41.45c-1.07,5.4,5.73,8.55,8.11,12.1l1.85,2.54,7.72-5.17,2.37,3.54-20.85,14-3.27,16.55,8.79,8.61,8.71,1.72,10.43-7,2.38,3.55-22.32,14.95-8.71-1.72-11.34-11.28-2.38-3.55,3.44-17.42,12.93-8.67L1194,2915.89l8.59-43.54,22.32-15s8,10.64,15.7,12.15c2.79.55,5.88-.47,8.73-2.07l6-4.06Z"
     transform="translate(46.51 46.51)"
     id="path174" />
  <path
     d="M1191.48,2853.6s-1.34,1-3.06,2l-12.27,7.37c-3.22,1.95-8.22,4.36-12,3.42-6-1.5-12-9-14.09-11.74l-10.21,41c-1.33,5.34,5.31,8.82,7.51,12.48l1.72,2.63,8-4.79,2.2,3.66-21.51,12.94-4.08,16.36,8.36,9,8.62,2.14,10.76-6.47,2.2,3.66-23,13.85-8.61-2.15-10.78-11.83-2.2-3.66,4.29-17.23,13.34-8-11.21-18.89,10.72-43.07,23-13.85s7.5,11,15.08,12.9c2.76.69,5.9-.17,8.83-1.64l6.24-3.75Z"
     transform="translate(46.51 46.51)"
     id="path176" />
  <path
     d="M1125.86,2837s-1.38.88-3.15,1.83l-12.62,6.76c-3.32,1.78-8.42,4-12.16,2.82-6-1.8-11.57-9.61-13.5-12.42l-12.21,40.45c-1.59,5.27,4.86,9.07,6.88,12.84l1.59,2.7,8.19-4.39,2,3.77-22.13,11.86-4.87,16.15,7.9,9.43,8.5,2.57,11.07-5.93,2,3.76-23.67,12.69-8.5-2.56L1051,2927l-2-3.76,5.13-17,13.72-7.35-10.27-19.43,12.83-42.49,23.67-12.69s7,11.37,14.43,13.63c2.72.82,5.91.11,8.9-1.21l6.42-3.44Z"
     transform="translate(46.51 46.51)"
     id="path178" />
  <path
     d="M1041.72,2810.58s-1.43.8-3.26,1.63l-13,5.94c-3.42,1.56-8.66,3.4-12.32,2-5.82-2.18-10.92-10.34-12.67-13.26l-14.78,39.58c-1.92,5.16,4.28,9.37,6.05,13.25l1.42,2.81,8.45-3.86,1.77,3.88L980.52,2873l-5.9,15.8,7.29,9.92,8.31,3.1,11.43-5.21,1.77,3.89L979,2911.67l-8.32-3.1-9.37-13-1.77-3.88,6.21-16.63,14.16-6.47-9-20L986.4,2807l24.44-11.16s6.21,11.8,13.53,14.53c2.66,1,5.88.49,9-.64l6.62-3Z"
     transform="translate(46.51 46.51)"
     id="path180" />
  <path
     d="M978.41,2786.69s-1.47.72-3.33,1.46l-13.3,5.3c-3.5,1.39-8.81,3-12.4,1.42-5.71-2.45-10.41-10.85-12-13.86l-16.7,38.81c-2.18,5.06,3.81,9.57,5.39,13.53l1.27,2.87,8.63-3.44,1.58,4L914.22,2846l-6.67,15.49,6.79,10.27,8.16,3.51,11.66-4.65,1.58,4-25,9.94-8.15-3.51-8.73-13.42-1.57-4,7-16.31,14.46-5.76-8-20.46,17.55-40.77,24.95-9.94s5.63,12.08,12.8,15.17c2.61,1.12,5.85.78,9-.19l6.76-2.7Z"
     transform="translate(46.51 46.51)"
     id="path182" />
  <path
     d="M916.36,2759.71s-1.5.65-3.4,1.3l-13.54,4.64c-3.57,1.22-9,2.54-12.46.82-5.58-2.73-9.86-11.35-11.32-14.44L857.06,2790c-2.42,4.94,3.33,9.74,4.72,13.78l1.13,2.93,8.79-3,1.39,4-23.76,8.14L841.92,2831l6.28,10.59,8,3.9,11.88-4.07,1.38,4L844,2854.17l-8-3.91L828,2836.44l-1.38-4,7.81-16,14.73-5-7-20.83,19.51-39.86,25.42-8.71s5,12.35,12,15.78c2.55,1.25,5.81,1.06,9,.24l6.89-2.36Z"
     transform="translate(46.51 46.51)"
     id="path184" />
  <path
     d="M837.58,2720.05s-1.54.55-3.48,1.08l-13.8,3.76c-3.64,1-9.1,2-12.49,0-5.4-3.09-9.12-12-10.37-15.13l-21,36.69c-2.73,4.78,2.71,9.93,3.84,14.05l.94,3,9-2.44,1.12,4.12-24.22,6.61-8.37,14.64,5.59,11,7.71,4.4,12.11-3.3,1.13,4.11-25.92,7.08-7.71-4.41L744.5,2791l-1.12-4.12,8.81-15.41,15-4.1-5.66-21.23,22-38.54,25.92-7.07s4.23,12.64,11,16.51c2.47,1.41,5.73,1.43,8.94.82l7-1.92Z"
     transform="translate(46.51 46.51)"
     id="path186" />
  <path
     d="M778.93,2686.25s-1.57.48-3.53.91l-14,3.09c-3.68.81-9.18,1.51-12.47-.59-5.24-3.34-8.53-12.38-9.63-15.61l-22.72,35.62c-3,4.64,2.22,10,3.14,14.22l.8,3,9.07-2,.92,4.17L706,2734.51,697,2748.73,702,2760l7.48,4.78,12.26-2.71.92,4.17L696.44,2772l-7.49-4.77-6.45-14.65-.92-4.16,9.55-15,15.2-3.36-4.62-21.48,23.87-37.42,26.24-5.8s3.6,12.84,10.19,17c2.39,1.52,5.65,1.71,8.89,1.25l7.11-1.58Z"
     transform="translate(46.51 46.51)"
     id="path188" />
  <path
     d="M722,2649.62s-1.59.4-3.57.73l-14.1,2.41c-3.72.63-9.25,1.07-12.43-1.19-5.07-3.6-7.91-12.79-8.85-16.07L658.58,2670c-3.18,4.49,1.73,10.14,2.45,14.35l.65,3.07,9.16-1.56.72,4.21-24.76,4.22L637.05,2708l4.5,11.46,7.24,5.13,12.38-2.11.72,4.21-26.49,4.52-7.24-5.14-5.73-14.94-.72-4.21L632,2692.47l15.34-2.62-3.56-21.68L669.42,2632l26.49-4.51s3,13,9.35,17.5c2.32,1.65,5.56,2,8.82,1.68l7.17-1.22Z"
     transform="translate(46.51 46.51)"
     id="path190" />
  <path
     d="M650.56,2597.82s-1.61.29-3.61.51l-14.23,1.5c-3.74.4-9.29.48-12.33-2-4.83-3.91-7.08-13.27-7.81-16.6L586,2614.12c-3.46,4.28,1.09,10.24,1.54,14.48l.45,3.11,9.24-1,.45,4.25-25,2.64-10.6,13.12,3.76,11.72,6.91,5.58,12.48-1.32.45,4.24L559,2673.79l-6.9-5.58-4.77-15.28-.45-4.24L558,2634.88l15.48-1.64-2.19-21.86,27.91-34.51L626,2574s2.15,13.15,8.23,18.06c2.21,1.79,5.42,2.33,8.69,2.24l7.24-.77Z"
     transform="translate(46.51 46.51)"
     id="path192" />
  <path
     d="M598.08,2555.07s-1.63.22-3.63.33l-14.29.82c-3.76.21-9.3,0-12.22-2.58-4.63-4.13-6.43-13.59-7-16.95l-28.13,31.53c-3.66,4.11.59,10.28.83,14.54l.31,3.13,9.27-.53.24,4.26-25.06,1.43-11.23,12.59,3.19,11.89,6.63,5.91,12.53-.72.25,4.26-26.83,1.53-6.62-5.9-4-15.49-.24-4.26,11.82-13.25,15.54-.89-1.13-21.94,29.55-33.12,26.82-1.54s1.51,13.25,7.34,18.45c2.12,1.89,5.3,2.59,8.57,2.65l7.27-.41Z"
     transform="translate(46.51 46.51)"
     id="path194" />
  <path
     d="M547.71,2509.8s-1.64.14-3.64.16l-14.32.12c-3.76,0-9.29-.42-12.07-3.16-4.44-4.36-5.77-13.89-6.18-17.27l-29.62,30.13c-3.86,3.92.09,10.29.12,14.56l.16,3.14,9.29-.08,0,4.27-25.1.21-11.83,12,2.61,12,6.33,6.22,12.56-.11,0,4.27-26.86.23-6.33-6.22-3.27-15.67,0-4.27L452,2537.73l15.56-.13-.06-22L498.65,2484l26.86-.23s.87,13.3,6.44,18.78c2,2,5.17,2.84,8.44,3.07l7.28-.07Z"
     transform="translate(46.51 46.51)"
     id="path196" />
  <path
     d="M485.47,2447.25s-1.64,0-3.65-.07l-14.29-.78c-3.76-.21-9.25-1-11.85-3.92-4.15-4.63-4.88-14.22-5.07-17.63l-31.47,28.2c-4.1,3.68-.56,10.28-.8,14.54l0,3.15,9.27.5-.23,4.27-25.07-1.38-12.56,11.26,1.85,12.17,5.92,6.61,12.54.69-.24,4.26L383,2507.65,377,2501l-2.27-15.84.23-4.26,13.22-11.85,15.55.85,1.32-21.93,33.06-29.63,26.82,1.47s0,13.33,5.24,19.15c1.9,2.11,5,3.16,8.23,3.59l7.27.4Z"
     transform="translate(46.51 46.51)"
     id="path198" />
  <path
     d="M440.45,2396.66s-1.64,0-3.63-.25l-14.24-1.48c-3.74-.38-9.19-1.45-11.65-4.48-3.92-4.83-4.18-14.45-4.21-17.86l-32.8,26.64c-4.27,3.48-1.06,10.24-1.5,14.49l-.19,3.13,9.24,1-.44,4.25-25-2.59L343,2430.1l1.26,12.25,5.59,6.89,12.49,1.29-.44,4.25L335.14,2452l-5.6-6.89-1.5-15.93.44-4.25,13.78-11.19,15.48,1.6,2.39-21.84,34.45-28,26.72,2.77s-.62,13.31,4.3,19.37c1.8,2.21,4.83,3.41,8,4l7.24.75Z"
     transform="translate(46.51 46.51)"
     id="path200" />
  <path
     d="M398,2343.94s-1.64-.12-3.62-.43l-14.15-2.16c-3.72-.57-9.11-1.9-11.42-5-3.68-5-3.48-14.63-3.34-18l-34.05,25c-4.43,3.26-1.56,10.18-2.2,14.4l-.35,3.12,9.18,1.4-.64,4.22-24.82-3.79-13.6,10,.66,12.3,5.26,7.15,12.41,1.9-.65,4.22-26.55-4.06-5.26-7.16-.73-16,.65-4.22,14.3-10.52,15.39,2.36,3.45-21.7,35.77-26.28,26.56,4.06s-1.27,13.27,3.35,19.57c1.69,2.29,4.66,3.63,7.84,4.37l7.2,1.1Z"
     transform="translate(46.51 46.51)"
     id="path202" />
  <path
     d="M346.51,2272.28s-1.63-.23-3.59-.65l-14-3.06c-3.68-.81-9-2.48-11.08-5.76-3.35-5.23-2.54-14.82-2.19-18.22L280.1,2267.4c-4.63,3-2.2,10.06-3.11,14.23l-.54,3.09,9.07,2-.91,4.17-24.53-5.36-14.2,9.1-.12,12.31,4.79,7.48,12.27,2.68-.91,4.17-26.25-5.74-4.79-7.47.28-16,.91-4.17,14.95-9.58,15.21,3.33,4.81-21.44,37.37-24,26.25,5.74s-2.11,13.16,2.11,19.73c1.53,2.39,4.41,3.92,7.54,4.87l7.12,1.55Z"
     transform="translate(46.51 46.51)"
     id="path204" />
  <path
     d="M310.17,2215.17s-1.61-.3-3.54-.83l-13.82-3.73c-3.64-1-8.84-2.91-10.78-6.3-3.1-5.39-1.82-14.92-1.3-18.29l-36.64,21c-4.77,2.75-2.69,9.94-3.8,14.06l-.7,3.06,9,2.43-1.11,4.12-24.24-6.55-14.63,8.4-.72,12.29,4.43,7.7,12.12,3.27-1.12,4.12-25.93-7-4.42-7.69,1.06-16,1.11-4.12,15.4-8.85,15,4.07,5.85-21.18,38.48-22.11,25.94,7s-2.74,13,1.15,19.82c1.41,2.46,4.21,4.13,7.3,5.22l7,1.9Z"
     transform="translate(46.51 46.51)"
     id="path206" />
  <path
     d="M276.67,2156.35s-1.59-.38-3.51-1l-13.61-4.41c-3.59-1.16-8.69-3.33-10.46-6.81-2.83-5.53-1.09-15-.41-18.34L211.06,2145c-4.9,2.51-3.17,9.8-4.48,13.86l-.85,3,8.84,2.86-1.31,4.06-23.89-7.72-15,7.67L173,2181l4,7.91,12,3.86-1.32,4.06-25.56-8.27-4-7.9,1.84-15.9,1.32-4.06,15.81-8.08,14.81,4.79,6.88-20.86,39.52-20.2,25.56,8.26s-3.38,12.9.18,19.85c1.29,2.53,4,4.33,7,5.58l6.93,2.24Z"
     transform="translate(46.51 46.51)"
     id="path208" />
  <path
     d="M237.41,2077.4s-1.57-.49-3.43-1.23l-13.31-5.26c-3.5-1.39-8.46-3.88-10-7.47-2.47-5.7-.13-15,.77-18.32l-38.77,16.79c-5,2.18-3.79,9.57-5.36,13.54l-1,3,8.64,3.42-1.57,4L150,2076.56l-15.47,6.71-2.1,12.13,3.52,8.14,11.68,4.62-1.57,4-25-9.88-3.53-8.15,2.85-15.75,1.57-4,16.29-7.06,14.48,5.73,8.2-20.39L201.65,2035l25,9.89s-4.19,12.65-1.09,19.82c1.13,2.6,3.72,4.58,6.67,6l6.77,2.68Z"
     transform="translate(46.51 46.51)"
     id="path210" />
  <path
     d="M210.73,2015.18s-1.53-.56-3.36-1.39l-13-5.91c-3.43-1.55-8.25-4.29-9.63-8-2.18-5.81.61-15,1.67-18.27l-39.55,14.88c-5.15,1.93-4.25,9.37-6,13.26l-1.18,2.91,8.46,3.84-1.76,3.88-22.87-10.37L107.67,2016,105,2028l3.12,8.31,11.43,5.19-1.76,3.88L93.3,2034.3,90.18,2026l3.62-15.59,1.76-3.89,16.62-6.25,14.18,6.43,9.19-20,41.54-15.62,24.47,11.09s-4.81,12.43-2.06,19.75c1,2.65,3.5,4.75,6.36,6.33l6.64,3Z"
     transform="translate(46.51 46.51)"
     id="path212" />
  <path
     d="M187.15,1951.75s-1.51-.64-3.29-1.55l-12.73-6.55c-3.35-1.72-8-4.69-9.23-8.41-1.9-5.92,1.35-15,2.57-18.16L124.23,1930c-5.24,1.68-4.71,9.15-6.66,13l-1.32,2.85,8.26,4.24-2,3.8-22.33-11.48-16.06,5.15-3.28,11.87,2.71,8.45,11.17,5.74-2,3.8-23.9-12.29-2.71-8.45,4.39-15.39,2-3.8,16.9-5.42,13.85,7.12,10.16-19.48,42.26-13.57,23.89,12.29s-5.41,12.18-3,19.62c.87,2.7,3.26,4.92,6,6.63l6.47,3.33Z"
     transform="translate(46.51 46.51)"
     id="path214" />
  <path
     d="M161.16,1867.52s-1.47-.73-3.19-1.77l-12.28-7.34c-3.23-1.93-7.72-5.2-8.67-9-1.52-6,2.3-14.86,3.72-18l-41,10.31c-5.34,1.34-5.28,8.83-7.47,12.49L90.78,1857l8,4.77-2.19,3.67L75,1852.57l-16.36,4.11-4,11.63,2.16,8.61,10.78,6.45L65.38,1887l-23.06-13.79-2.16-8.61,5.36-15.08,2.19-3.66,17.22-4.33,13.36,8,11.38-18.79,43.05-10.83,23.05,13.79s-6.18,11.81-4.28,19.38c.7,2.76,2.94,5.12,5.61,7l6.25,3.73Z"
     transform="translate(46.51 46.51)"
     id="path216" />
  <path
     d="M144.89,1801.82s-1.42-.8-3.09-1.91L129.89,1792c-3.14-2.09-7.45-5.57-8.22-9.4-1.22-6.1,3-14.73,4.6-17.76l-41.44,8.28c-5.39,1.08-5.71,8.57-8.08,12.12l-1.63,2.68,7.73,5.15-2.37,3.56-20.89-13.93L43.05,1786l-4.6,11.42,1.74,8.71,10.45,7-2.37,3.56-22.36-14.91L24.17,1793l6.1-14.79,2.37-3.55,17.41-3.49,13,8.64,12.29-18.21,43.53-8.7,22.35,14.9s-6.75,11.49-5.22,19.16c.55,2.78,2.68,5.25,5.25,7.27l6.06,4Z"
     transform="translate(46.51 46.51)"
     id="path218" />
  <path
     d="M131.87,1735.39s-1.39-.87-3-2.07l-11.5-8.51c-3-2.24-7.17-5.93-7.75-9.8-.92-6.14,3.75-14.56,5.46-17.51l-41.79,6.25c-5.44.81-6.12,8.27-8.66,11.71l-1.77,2.59,7.47,5.53L67.78,1727,47.6,1712.08l-16.68,2.49-5.15,11.18,1.31,8.78L37.17,1742l-2.54,3.43-21.6-16-1.31-8.78,6.81-14.48,2.54-3.43,17.56-2.63,12.52,9.26,13.16-17.59,43.9-6.56,21.6,16s-7.31,11.15-6.15,18.88c.42,2.81,2.42,5.38,4.89,7.52l5.85,4.33Z"
     transform="translate(46.51 46.51)"
     id="path220" />
  <path
     d="M119.79,1648s-1.33-1-2.86-2.25L106,1636.54c-2.88-2.42-6.78-6.37-7.11-10.26-.53-6.19,4.66-14.29,6.56-17.13l-42.11,3.59c-5.48.46-6.63,7.87-9.38,11.13L52,1626.35l7.1,6-2.75,3.26-19.19-16.18-16.81,1.43-5.85,10.83.76,8.84,9.59,8.1-2.75,3.26L1.58,1634.56l-.75-8.84,7.71-14,2.76-3.27,17.69-1.5,11.9,10,14.25-16.71,44.23-3.77,20.54,17.32s-8,10.66-7.34,18.44c.24,2.83,2.07,5.53,4.41,7.82l5.56,4.69Z"
     transform="translate(46.51 46.51)"
     id="path222" />
  <path
     d="M114.29,1580.5s-1.28-1-2.75-2.39l-10.48-9.74c-2.76-2.57-6.47-6.69-6.61-10.6-.23-6.21,5.35-14,7.38-16.79l-42.23,1.55c-5.5.2-7,7.54-9.91,10.66l-2,2.39,6.81,6.32L51.54,1565l-18.39-17.09-16.86.61-6.36,10.54.32,8.87,9.2,8.55-2.9,3.13-19.69-18.29-.32-8.87,8.38-13.64,2.91-3.12,17.74-.65L37,1545.67l15-16L96.38,1528l19.68,18.29s-8.51,10.26-8.22,18.07c.1,2.84,1.81,5.62,4,8l5.33,5Z"
     transform="translate(46.51 46.51)"
     id="path224" />
  <path
     d="M111.91,1513.15s-1.22-1.09-2.62-2.53l-10-10.29c-2.62-2.7-6.11-7-6-10.93.1-6.21,6.08-13.75,8.25-16.38l-42.25-.68c-5.5-.09-7.39,7.16-10.46,10.13l-2.17,2.27,6.47,6.68-3.07,3-17.47-18-16.86-.27-6.91,10.19-.15,8.87,8.73,9-3.06,3-18.69-19.3.15-8.88,9.09-13.17,3.07-3,17.75.29,10.82,11.19,15.88-15.19,44.38.72,18.68,19.3s-9,9.8-9.16,17.61c0,2.84,1.5,5.7,3.59,8.22l5.07,5.24Z"
     transform="translate(46.51 46.51)"
     id="path226" />
  <path
     d="M114,1424.55s-1.16-1.15-2.47-2.67L102.2,1411c-2.46-2.86-5.69-7.37-5.4-11.26.46-6.2,6.87-13.38,9.19-15.88l-42.14-3.12c-5.49-.41-7.8,6.72-11,9.51l-2.3,2.14,6.07,7-3.24,2.78-16.39-19L20.14,1382l-7.49,9.77-.66,8.85,8.2,9.51L17,1412.91-.59,1392.56l.66-8.85,9.84-12.63,3.23-2.78,17.71,1.31L41,1381.4l16.72-14.25,44.27,3.28,17.54,20.35s-9.59,9.26-10.16,17c-.21,2.83,1.17,5.78,3.11,8.42l4.76,5.52Z"
     transform="translate(46.51 46.51)"
     id="path228" />
  <path
     d="M119.26,1357.05s-1.1-1.21-2.34-2.8l-8.8-11.28c-2.32-3-5.32-7.63-4.84-11.51.76-6.16,7.5-13,9.94-15.41l-41.93-5.16c-5.47-.68-8.12,6.33-11.48,9l-2.4,2,5.72,7.32-3.37,2.63L44.31,1312,27.57,1310l-7.95,9.4-1.09,8.81,7.73,9.89-3.37,2.63L6.36,1319.52l1.09-8.81,10.44-12.13,3.36-2.62,17.62,2.17,9.58,12.27L65.85,1297l44.05,5.43,16.53,21.17s-10,8.79-11,16.54c-.35,2.82.89,5.83,2.7,8.56l4.48,5.74Z"
     transform="translate(46.51 46.51)"
     id="path230" />
  <path
     d="M127.79,1289.89s-1.05-1.26-2.2-2.9l-8.25-11.7c-2.17-3.08-4.94-7.88-4.27-11.73,1.06-6.12,8.13-12.64,10.69-14.91l-41.64-7.2c-5.42-.94-8.41,5.93-11.9,8.38l-2.5,1.92,5.36,7.59-3.49,2.46-14.47-20.52L38.5,1238.4l-8.4,9-1.52,8.75,7.24,10.26-3.49,2.46-15.48-22,1.51-8.75,11-11.6,3.49-2.46,17.5,3,9,12.72,18-12.55,43.74,7.57,15.48,22s-10.45,8.28-11.78,16c-.48,2.8.61,5.87,2.28,8.68l4.2,6Z"
     transform="translate(46.51 46.51)"
     id="path232" />
  <path
     d="M143.8,1203.15s-1-1.33-2-3l-7.48-12.2c-2-3.21-4.43-8.18-3.52-12,1.45-6,8.93-12.1,11.62-14.2l-41.09-9.85c-5.35-1.28-8.78,5.38-12.42,7.61l-2.61,1.75,4.86,7.92-3.64,2.23L74.39,1150,58,1146.05l-9,8.45L47,1163.13l6.57,10.7-3.64,2.23-14.05-22.9,2.07-8.63,11.74-10.88,3.64-2.23,17.26,4.14,8.14,13.27,18.8-11.38,43.16,10.35,14,22.9s-11,7.6-12.77,15.2c-.66,2.76.23,5.89,1.72,8.81l3.81,6.21Z"
     transform="translate(46.51 46.51)"
     id="path234" />
  <path
     d="M159.82,1137.41s-.89-1.37-1.86-3.13l-6.87-12.56c-1.81-3.3-4-8.39-2.92-12.14,1.74-6,9.51-11.64,12.3-13.6l-40.56-11.86c-5.28-1.55-9,4.94-12.77,7l-2.7,1.62,4.46,8.15-3.74,2-12.06-22-16.19-4.73-9.36,8-2.49,8.52,6,11-3.74,2-12.9-23.57,2.49-8.52,12.26-10.28,3.74-2,17,5L97.45,1080l19.33-10.44,42.6,12.46,12.91,23.57s-11.32,7-13.51,14.55c-.8,2.73-.06,5.9,1.29,8.88l3.49,6.39Z"
     transform="translate(46.51 46.51)"
     id="path236" />
  <path
     d="M179.05,1072.53s-.83-1.41-1.7-3.22l-6.25-12.87c-1.64-3.39-3.6-8.58-2.33-12.27,2-5.87,10.07-11.17,13-13l-39.93-13.84c-5.2-1.8-9.26,4.49-13.1,6.36l-2.77,1.48,4.06,8.36-3.84,1.86-11-22.59-15.94-5.52-9.75,7.52-2.9,8.39,5.48,11.29-3.84,1.87L76.51,1012.2l2.91-8.39,12.74-9.68L96,992.27l16.78,5.81,6.8,14,19.82-9.48,41.93,14.53,11.73,24.17s-11.64,6.49-14.2,13.87c-.93,2.69-.35,5.89.85,8.94l3.18,6.55Z"
     transform="translate(46.51 46.51)"
     id="path238" />
  <path
     d="M208.85,989.55s-.73-1.46-1.49-3.32L202,973c-1.43-3.49-3-8.79-1.54-12.4,2.41-5.72,10.77-10.5,13.76-12.12l-39-16.37c-5.07-2.13-9.53,3.89-13.48,5.51l-2.86,1.3,3.52,8.6-3.95,1.62-9.5-23.25-15.55-6.53-10.21,6.88-3.44,8.18L124.49,946l-3.95,1.61-10.16-24.87,3.44-8.19,13.34-8.84,4-1.61L147.48,911l5.89,14.41,20.38-8.19,40.93,17.19,10.16,24.87s-12,5.73-15.06,12.93c-1.1,2.62-.73,5.86.27,9l2.76,6.75Z"
     transform="translate(46.51 46.51)"
     id="path240" />
  <path
     d="M235.3,927.23s-.66-1.49-1.33-3.39l-4.76-13.5c-1.25-3.55-2.61-8.92-.92-12.45,2.68-5.6,11.26-10,14.33-11.44L204.51,868.2c-5-2.38-9.71,3.42-13.73,4.84l-2.92,1.16L191,883l-4,1.42-8.34-23.68-15.21-7.29-10.54,6.38-3.83,8,4.17,11.84-4,1.42-8.92-25.34,3.83-8,13.76-8.18,4-1.42,16,7.67L183,860.46l20.76-7.18,40,19.18,8.92,25.33s-12.3,5.14-15.67,12.18c-1.23,2.56-1,5.82-.17,9l2.42,6.87Z"
     transform="translate(46.51 46.51)"
     id="path242" />
  <path
     d="M264.75,866.31s-.58-1.52-1.16-3.45l-4.09-13.71c-1.07-3.61-2.17-9-.31-12.48,2.95-5.47,11.74-9.4,14.88-10.73l-37.17-20.1c-4.84-2.61-9.87,2.94-14,4.16l-3,1,2.66,8.9-4.09,1.22-7.18-24.06-14.83-8-10.84,5.85-4.22,7.81,3.59,12L181,816l-7.68-25.75,4.22-7.81,14.15-7.49,4.09-1.22,15.61,8.45,4.45,14.91,21.09-6.15,39,21.11,7.68,25.74s-12.54,4.53-16.25,11.4c-1.35,2.5-1.3,5.76-.61,9l2.08,7Z"
     transform="translate(46.51 46.51)"
     id="path244" />
  <path
     d="M307.55,789.2s-.48-1.57-.93-3.52l-3.21-13.95c-.85-3.67-1.6-9.17.47-12.48,3.3-5.26,12.32-8.63,15.54-9.75L283.6,727.08c-4.67-2.92-10,2.31-14.19,3.26l-3,.83,2.08,9.05-4.16,1-5.63-24.47-14.3-9-11.18,5.15-4.71,7.53,2.82,12.23-4.16,1-6-26.18,4.71-7.53,14.59-6.58,4.16-1,15.05,9.42L263.11,717l21.44-4.81,37.62,23.55,6,26.18s-12.8,3.72-16.95,10.34c-1.5,2.41-1.66,5.67-1.17,8.9l1.63,7.1Z"
     transform="translate(46.51 46.51)"
     id="path246" />
  <path
     d="M343.69,731.93s-.41-1.58-.77-3.56l-2.52-14.08c-.67-3.71-1.15-9.24,1.08-12.44,3.55-5.1,12.72-8,16-9l-34.69-24.14c-4.51-3.14-10.13,1.82-14.33,2.57l-3.07.68,1.64,9.14-4.2.76-4.43-24.72-13.85-9.63-11.42,4.6-5.07,7.29,2.22,12.35-4.2.76-4.74-26.45,5.07-7.29,14.89-5.86,4.2-.75,14.57,10.14,2.75,15.33,21.65-3.76,36.43,25.35,4.75,26.45s-13,3.09-17.43,9.5c-1.62,2.33-1.93,5.58-1.61,8.83l1.29,7.17Z"
     transform="translate(46.51 46.51)"
     id="path248" />
  <path
     d="M382.56,676.51s-.34-1.6-.6-3.6l-1.83-14.19c-.49-3.73-.7-9.28,1.68-12.37,3.8-4.92,13.1-7.39,16.41-8.2l-33.47-25.79c-4.36-3.36-10.21,1.32-14.44,1.87l-3.1.53,1.2,9.21-4.24.55L341,599.62l-13.36-10.3-11.63,4-5.42,7,1.61,12.45-4.23.55-3.45-26.64,5.42-7,15.16-5.13,4.23-.55,14.06,10.84,2,15.43,21.81-2.69,35.15,27.09,3.45,26.64s-13.1,2.46-17.86,8.64c-1.74,2.25-2.21,5.48-2,8.75l.94,7.22Z"
     transform="translate(46.51 46.51)"
     id="path250" />
</svg>
