<?xml version="1.0" encoding="UTF-8" standalone="no"?>
<svg
   id="Layer_1"
   data-name="Layer 1"
   viewBox="0 0 1757.285 1872.178"
   version="1.1"
   sodipodi:docname="enneagram (1).svg"
   inkscape:export-filename="enneagram (1).svg"
   inkscape:export-xdpi="96"
   inkscape:export-ydpi="96"
   inkscape:version="1.2.1 (9c6d41e410, 2022-07-14, custom)"
   xmlns:inkscape="http://www.inkscape.org/namespaces/inkscape"
   xmlns:sodipodi="http://sodipodi.sourceforge.net/DTD/sodipodi-0.dtd"
   xmlns="http://www.w3.org/2000/svg"
   xmlns:svg="http://www.w3.org/2000/svg">
  <sodipodi:namedview
     id="namedview86"
     pagecolor="#ffffff"
     bordercolor="#000000"
     borderopacity="0.25"
     inkscape:showpageshadow="2"
     inkscape:pageopacity="0.0"
     inkscape:pagecheckerboard="0"
     inkscape:deskcolor="#d1d1d1"
     showgrid="false"
     inkscape:zoom="0.5"
     inkscape:cx="887"
     inkscape:cy="851"
     inkscape:window-width="1914"
     inkscape:window-height="1058"
     inkscape:window-x="1920"
     inkscape:window-y="16"
     inkscape:window-maximized="1"
     inkscape:current-layer="Layer_1" />
  <defs
     id="defs4">
    <style
       id="style2">
      .cls-1, .cls-2 {
        fill: #ed1487;
      }

      .cls-2 {
        fill-rule: evenodd;
      }
    </style>
  </defs>
  <g
     id="g20"
     style="fill:#f20587;fill-opacity:1">
    <g
       id="g10"
       style="fill:#f20587;fill-opacity:1">
      <path
         class="cls-1"
         d="M779.558,992.683l6.607-6.607,6.607,6.607-6.607,6.607-6.607-6.607Zm0,35.354l6.607-6.607,6.607,6.607-6.607,6.607-6.607-6.607Z"
         id="path6"
         style="fill:#f20587;fill-opacity:1" />
      <path
         class="cls-1"
         d="M814.331,992.683l6.607-6.607,6.607,6.607-6.607,6.607-6.607-6.607Zm0,35.354l6.607-6.607,6.607,6.607-6.607,6.607-6.607-6.607Z"
         id="path8"
         style="fill:#f20587;fill-opacity:1" />
    </g>
    <path
       class="cls-1"
       d="M857.362,962.962l6.607-6.607,.928,.927,1.971,1.971c1.391,1.391,2.8,3.111,4.23,5.158,1.429,2.049,3.188,5.042,5.274,8.984s3.767,8.887,5.042,14.837c1.275,5.952,1.913,12.403,1.913,19.358,0,6.878-.658,13.33-1.971,19.358-1.315,6.027-2.996,10.994-5.042,14.895-2.049,3.901-3.787,6.877-5.216,8.925-1.431,2.047-2.84,3.767-4.23,5.158l-6.492,6.607-1.043,.927-1.971-1.97,2.086-2.087c1.467-1.623,2.936-3.575,4.405-5.853,1.467-2.28,3.09-5.332,4.868-9.158,1.777-3.825,3.226-8.538,4.347-14.142,1.119-5.601,1.681-11.61,1.681-18.024s-.562-12.42-1.681-18.024c-1.121-5.602-2.57-10.334-4.347-14.2-1.779-3.863-3.401-6.935-4.868-9.215-1.469-2.278-2.937-4.23-4.405-5.853h-.116l-1.971-1.971Z"
       id="path12"
       style="fill:#f20587;fill-opacity:1" />
    <g
       id="g18"
       style="fill:#f20587;fill-opacity:1">
      <path
         class="cls-1"
         d="M913.636,991.824l6.607-6.607,6.607,6.607-6.607,6.607-6.607-6.607Zm0,35.354l6.607-6.607,6.607,6.607-6.607,6.607-6.607-6.607Z"
         id="path14"
         style="fill:#f20587;fill-opacity:1" />
      <path
         class="cls-1"
         d="M948.409,991.824l6.607-6.607,6.607,6.607-6.607,6.607-6.607-6.607Zm0,35.354l6.607-6.607,6.607,6.607-6.607,6.607-6.607-6.607Z"
         id="path16"
         style="fill:#f20587;fill-opacity:1" />
    </g>
  </g>
  <g
     id="g30"
     style="fill:#f20587;fill-opacity:1"
     inkscape:export-filename="enneagram (1).svg"
     inkscape:export-xdpi="96"
     inkscape:export-ydpi="96">
    <g
       id="g26"
       style="fill:#f20587;fill-opacity:1">
      <path
         class="cls-1"
         d="M743.137,143.167l-87.601,119.52c27.492,10.099,48.577,23.029,63.254,38.792,14.678,15.767,22.017,33.356,22.017,52.771,0,19.727-6.72,39.297-20.153,58.711-13.436,19.417-29.785,34.947-49.042,46.596-19.261,11.649-37.59,17.474-54.983,17.474-18.486,0-36.425-6.058-53.819-18.173-17.397-12.115-31.453-29.275-42.169-51.489l47.528-55.217c2.64,8.235,4.929,15.027,6.873,20.386,1.94,5.358,4.387,11.496,7.339,18.405,2.949,6.913,5.861,12.581,8.737,17.008,2.873,4.427,6.367,9.05,10.484,13.862,4.113,4.816,8.424,8.544,12.93,11.183,4.503,2.643,9.786,4.856,15.843,6.64,6.058,1.787,12.581,2.679,19.571,2.679,14.754,0,26.636-4.58,35.646-13.746,9.006-9.163,13.513-21.121,13.513-35.879,0-8.697-1.747-17.707-5.242-27.026s-8.817-18.675-15.959-28.074c-7.146-9.396-17.281-17.859-30.404-25.395-13.127-7.532-28.231-12.931-45.315-16.192l74.321-103.211c-22.522-2.948-46.287-4.426-71.292-4.426-8.235,0-16.192,1.438-23.881,4.31-7.688,2.876-17.514,9.126-29.472,18.755h-11.649l28.19-86.203c11.649,7.146,24.267,11.922,37.86,14.329,13.589,2.41,29.625,3.611,48.11,3.611h88.766Z"
         id="path22"
         style="fill:#f20587;fill-opacity:1" />
      <path
         class="cls-1"
         d="M1236.541,152.593l-87.602,119.52c27.492,10.099,48.577,23.029,63.255,38.792,14.678,15.767,22.017,33.356,22.017,52.771,0,19.727-6.72,39.297-20.153,58.711-13.436,19.418-29.785,34.947-49.042,46.597-19.261,11.648-37.59,17.474-54.983,17.474-18.486,0-36.426-6.058-53.819-18.173-17.396-12.115-31.452-29.275-42.169-51.489l47.527-55.217c2.64,8.235,4.93,15.027,6.873,20.387,1.94,5.358,4.387,11.496,7.339,18.405,2.949,6.913,5.861,12.581,8.737,17.008,2.872,4.427,6.367,9.05,10.484,13.862,4.113,4.816,8.424,8.544,12.93,11.183,4.504,2.644,9.786,4.856,15.843,6.641,6.058,1.787,12.581,2.679,19.571,2.679,14.754,0,26.636-4.579,35.646-13.746,9.007-9.162,13.513-21.121,13.513-35.879,0-8.696-1.747-17.706-5.241-27.025-3.495-9.319-8.817-18.675-15.96-28.074-7.146-9.396-17.28-17.859-30.403-25.396-13.128-7.531-28.231-12.931-45.315-16.192l74.321-103.211c-22.522-2.948-46.287-4.426-71.292-4.426-8.235,0-16.192,1.438-23.881,4.31-7.688,2.876-17.514,9.127-29.473,18.755h-11.648l28.19-86.203c11.649,7.146,24.267,11.923,37.859,14.329,13.59,2.409,29.625,3.61,48.11,3.61h88.767Z"
         id="path24"
         style="fill:#f20587;fill-opacity:1" />
    </g>
    <path
       class="cls-1"
       d="M952.188,1633.77l-57.953,79.068c18.188,6.681,32.136,15.235,41.846,25.663,9.711,10.43,14.565,22.067,14.565,34.91,0,13.051-4.446,25.997-13.332,38.841-8.89,12.846-19.704,23.119-32.444,30.826-12.742,7.706-24.868,11.56-36.375,11.56-12.229,0-24.097-4.008-35.604-12.022-11.509-8.015-20.807-19.367-27.897-34.062l31.443-36.528c1.746,5.447,3.261,9.941,4.547,13.486,1.283,3.545,2.902,7.605,4.855,12.176,1.951,4.573,3.877,8.323,5.78,11.252,1.9,2.928,4.212,5.986,6.936,9.171,2.722,3.186,5.573,5.651,8.554,7.397,2.979,1.749,6.474,3.213,10.481,4.393,4.008,1.183,8.323,1.772,12.947,1.772,9.76,0,17.621-3.029,23.582-9.093,5.957-6.062,8.939-13.974,8.939-23.736,0-5.754-1.156-11.714-3.469-17.879-2.312-6.165-5.832-12.354-10.558-18.573-4.728-6.216-11.433-11.814-20.114-16.8-8.684-4.982-18.676-8.554-29.978-10.712l49.167-68.279c-14.9-1.951-30.621-2.929-47.164-2.929-5.447,0-10.712,.951-15.798,2.852-5.086,1.902-11.586,6.037-19.497,12.407h-7.707l18.649-57.028c7.707,4.728,16.054,7.888,25.046,9.479,8.99,1.594,19.599,2.389,31.827,2.389h58.725Z"
       id="path28"
       style="fill:#f20587;fill-opacity:1" />
  </g>
  <g
     id="Capa_1"
     style="fill:#f20587;fill-opacity:1">
    <g
       id="_48300496"
       data-name=" 48300496"
       style="fill:#f20587;fill-opacity:1">
      <g
         id="_210138360"
         data-name=" 210138360"
         style="fill:#f20587;fill-opacity:1">
        <path
           class="cls-2"
           d="M878.844,1458.756c0-1.651,133.744-237.771,143.083-248.7l89.726,650.643c-16.153-18.583-42.313-73.976-58.108-99.087-20.762-33.01-37.638-67.391-58.096-101.088-10.522-17.336-116.604-200.968-116.604-201.769h0Zm-238.157,398.321l86.514-647.956,143.403,249.475c-36.39,63.069-72.78,126.138-109.169,189.207-40.249,69.758-80.499,139.516-120.748,209.274h0Zm475.592-811.828l516.441,399.915-1.396,1.983-603.277-249.076,88.233-152.822h0Zm-484.662-1.007l88.93,153.334L114.307,1445.735l-1.187-.444,518.495-401.05h0Zm97.991,155.837c11.275-5.965,136.831-57.703,143.266-57.703,16.997,0,120.207,55.619,145.255,57.703l-143.051,250.844-145.47-250.844h0Zm274.637-113.315l15.684,107.374-138.735-56.851,123.051-50.523h0Zm-274.637,105.358c0-19.124,5.642-44.86,7.898-63.734,4.592-38.416-3.241-42.839,24.215-32.055,19.167,7.528,89.022,33.598,101.203,42.063l-133.316,53.725h0Zm145.32-336.195l108.67,84.392,20.324,140.412c-23.403,5.479-122.306,53.685-133.039,53.685-7.666,0-106.026-46.767-127.348-51.734l17.097-138.346,114.296-88.409h0Zm-152.355,332.829l-81.6-141.266,96.668,38.987-15.067,102.279h0Zm387.245-145.487l-83.828,145.965-15.951-104.879,99.779-41.086Zm-101.63,27.565c-4.797-28.921-15.925-97.106-15.925-123.46m-237.266,1.376c-38.163,29.579-76.326,59.158-114.489,88.738l114.489-88.738h0Zm126.712-97.758l80.514-63.048h0s21.084,143.652,21.084,143.652m-200.061-145.408l87.044,65.874-1.819,1.243-104.742,80.181,19.518-147.298h0Zm404.827,122.198c-24.698,40.402-50.545,85.16-72.442,126.54l-124.667-96.399-22.578-156.308c2.409-.935,6.813-1.988,9.948-1.988h278.575c3.09,13.272-24.629,50.59-32.517,64.985-11.783,21.506-23.553,42.286-36.319,63.17h0Zm81.057-127.993l461.355-.163-604.878,248.743,143.523-248.58h0Zm-480.408,.582l173.694-.745-88.873,66.792-84.82-66.047h0Zm-297.895,5.225c0-3.843-.625-3.544-1.988-5.97h288.524l-20.442,157.121-122.859,97.53-141.324-243.816-1.911,1.104v-5.969h0Zm-481.933-4.999l471.986-.971,143.172,252.938L8.892,781.201h0ZM872.091,28.433c29.741,232.434,59.482,464.868,89.223,697.303l-176.256,.089c29.011-232.464,58.022-464.928,87.033-697.392Zm619.895,350.214l2.04,1.296-228.134,393.759-284.221-.273,510.315-394.782h0ZM483.038,774.161L251.156,372.832l518.765,400.759-286.883,.571h0ZM872.091,11.433l-93.434,713.329c-179.259-122.28-358.517-244.559-537.776-366.839,78.009,138.78,156.018,277.559,234.027,416.339H7.301c205.614,88.214,411.229,176.429,616.843,264.643-3.123,11.699-231.258,182.221-260.309,205.309-28.346,22.528-71.154,54.232-131.328,101.483-60.362,47.399-109.296,86.905-141.627,113.226,210.039-84.984,420.077-169.967,630.116-254.95l-88.893,656.726c80.755-132.279,161.51-264.559,242.265-396.838,81.747,133.606,163.493,267.212,245.24,400.817l-91.319-659.155c210.864,84.133,421.727,168.266,632.591,252.4-179.812-139.797-359.625-279.593-539.438-419.39,209.479-87.203,418.958-174.407,628.438-261.61-159.057-.91-318.114-1.819-477.171-2.729,80.057-139.09,160.114-278.181,240.171-417.271-181.75,123.013-363.499,246.026-545.249,369.039-31.847-238.176-63.694-476.353-95.541-714.529Z"
           id="path32"
           style="fill:#f20587;fill-opacity:1" />
        <g
           id="g80"
           style="fill:#f20587;fill-opacity:1">
          <path
             class="cls-1"
             d="M878.844,1466.256c.167-1.589,1.929-3.735,2.67-5.092,2.41-4.414,4.86-8.807,7.31-13.198,8.325-14.918,16.724-29.795,25.137-44.663,10.991-19.424,22.021-38.826,33.088-58.207,11.231-19.668,22.497-39.315,33.835-58.922,9.048-15.646,18.12-31.281,27.375-46.806,2.976-4.992,5.964-9.978,9.048-14.904,.327-.523,4.003-7.079,4.62-6.906,.592,.166,1.155,8.378,1.245,9.025,1.15,8.337,2.299,16.675,3.449,25.012,1.767,12.812,3.534,25.625,5.301,38.437,2.266,16.433,4.532,32.866,6.798,49.299,2.648,19.2,5.295,38.399,7.943,57.599,2.911,21.112,5.823,42.225,8.734,63.337,3.057,22.171,6.115,44.341,9.172,66.512,3.086,22.375,6.171,44.75,9.257,67.125,3.01,21.826,6.02,43.653,9.03,65.479,2.787,20.212,5.575,40.424,8.362,60.636,2.462,17.85,4.923,35.7,7.385,53.55l6.054,43.901c1.457,10.564,2.913,21.127,4.37,31.691,.778,5.639,1.555,11.278,2.333,16.917,.097,.707,.195,1.414,.292,2.121v-15c-5.23-6.074-9.526-12.954-13.673-19.791-5.429-8.951-10.503-18.115-15.515-27.304-9.487-17.391-18.423-35.176-28.92-51.992-15.574-24.949-29.307-50.947-43.771-76.54-6.489-11.482-13.324-22.755-19.995-34.13-12.712-21.675-25.29-43.43-37.88-65.175-15.574-26.899-31.122-53.813-46.631-80.75-5.838-10.14-11.673-20.283-17.485-30.439-1.865-3.259-3.729-6.519-5.582-9.785-.958-1.689-1.783-3.829-3.001-5.345-.045-.055-.396-.611-.355-.692-.194,.387-.05,1.969-.053,2.197-.02,1.767-.022,3.536-.022,5.303s.001,3.536,.022,5.303c.006,.511,.263,1.777,.053,2.197-.171,.343,1.347,2.48,1.514,2.777,1.46,2.601,2.938,5.191,4.416,7.782,5.211,9.134,10.452,18.251,15.696,27.366,15.143,26.326,30.331,52.626,45.541,78.913,13.483,23.303,26.967,46.607,40.551,69.852,4.012,6.865,8.091,13.687,12.157,20.519,15.166,25.482,28.795,51.837,43.785,77.42,5.789,9.88,12.03,19.486,17.698,29.436,5.059,8.881,9.888,17.892,14.74,26.887,9.577,17.756,18.875,35.918,30.322,52.568,1.997,2.906,4.088,5.75,6.39,8.423-.107-.124,.055-2.361,.053-2.197,.02-1.767,.022-3.536,.022-5.303,0-2.451,.261-5.064-.075-7.5-.407-2.953-.815-5.907-1.222-8.86-1.143-8.29-2.287-16.581-3.43-24.871-1.762-12.774-3.523-25.547-5.285-38.321-2.262-16.402-4.524-32.805-6.786-49.207-2.645-19.177-5.289-38.355-7.934-57.532-2.909-21.098-5.819-42.196-8.728-63.294-3.057-22.165-6.113-44.329-9.17-66.494-3.086-22.377-6.172-44.754-9.258-67.131-2.997-21.736-5.995-43.471-8.992-65.207-2.791-20.24-5.582-40.48-8.373-60.72-2.467-17.89-4.934-35.78-7.401-53.67-2.025-14.686-4.051-29.372-6.076-44.058-1.466-10.628-2.931-21.256-4.397-31.884-.788-5.716-1.576-11.432-2.365-17.148-.031-.228-.184-2.193-.333-2.22-.792-.146-4.474,6.681-4.868,7.312-7.468,11.966-14.556,24.176-21.672,36.353-10.62,18.175-21.134,36.412-31.613,54.668-11.495,20.026-22.94,40.08-34.349,60.154-9.993,17.584-19.961,35.184-29.879,52.811-6.108,10.855-12.242,21.7-18.204,32.637-.688,1.263-2.32,3.257-2.476,4.736-.522,4.954,.52,10.069,0,15Z"
             id="path34"
             style="fill:#f20587;fill-opacity:1" />
          <path
             class="cls-1"
             d="M640.687,1864.577c.408-3.056,.816-6.112,1.224-9.168l3.431-25.698,5.277-39.523c2.254-16.88,4.508-33.761,6.761-50.641,2.628-19.684,5.256-39.368,7.885-59.053,2.882-21.586,5.764-43.172,8.646-64.758,3.016-22.585,6.031-45.171,9.047-67.756,3.029-22.683,6.057-45.366,9.086-68.049,2.908-21.779,5.816-43.557,8.724-65.336,2.695-20.181,5.389-40.363,8.084-60.544,2.347-17.577,4.694-35.153,7.04-52.73,1.879-14.07,3.757-28.139,5.636-42.209,1.29-9.661,2.58-19.321,3.87-28.982l1.164-8.715c.142-1.061-.005-3.41,.578-4.332,.422-.667,.397,.119,.906,1.005l5.265,9.159c7.346,12.78,14.693,25.561,22.039,38.341,10.504,18.273,21.007,36.546,31.511,54.818,11.326,19.703,22.652,39.406,33.977,59.11,9.813,17.071,19.626,34.143,29.439,51.214,5.965,10.377,11.93,20.754,17.895,31.132,.811,1.411,1.622,2.822,2.433,4.233v-15c-29.93,51.873-59.86,103.746-89.79,155.62s-59.841,103.714-89.762,155.57c-16.789,29.097-33.577,58.194-50.366,87.291-.723,1.253,.339,15,0,15h0c.11,0,.114-15,0-15h0v15c26.797-46.443,53.594-92.887,80.391-139.33,26.802-46.453,53.605-92.905,80.407-139.358,13.35-23.138,26.7-46.275,40.05-69.413,6.783-11.755,13.565-23.511,20.348-35.266,1.615-2.799,3.23-5.598,4.845-8.397,1.4-2.427,3.508-4.998,3.914-7.741,.581-3.933,.068-8.398,.008-12.366-.008-.51,.081-1.17-.075-1.661-.766-2.414-2.827-4.918-4.08-7.097l-10.11-17.588c-10.777-18.748-21.553-37.496-32.33-56.244-13.245-23.042-26.49-46.084-39.735-69.127-11.791-20.513-23.583-41.026-35.374-61.539-6.765-11.769-13.531-23.539-20.296-35.308-.149-.259-1.087-2.385-1.388-2.415-.218-.021,.083,.035-.121,.337-.742,1.101-.557,4.168-.728,5.454-1.241,9.296-2.482,18.593-3.724,27.889-2.087,15.634-4.175,31.269-6.262,46.903-2.741,20.531-5.483,41.062-8.224,61.593-3.203,23.987-6.405,47.973-9.608,71.96-3.457,25.894-6.915,51.789-10.372,77.683-3.548,26.574-7.096,53.149-10.645,79.723-3.433,25.712-6.866,51.424-10.299,77.136-3.125,23.408-6.251,46.817-9.376,70.225l-7.876,58.991c-1.933,14.477-3.866,28.955-5.799,43.432-1.048,7.85-2.096,15.7-3.144,23.55-.132,.991-.265,1.982-.397,2.972-.657,4.924,.654,10.105,0,15Z"
             id="path36"
             style="fill:#f20587;fill-opacity:1" />
          <path
             class="cls-1"
             d="M1116.279,1052.749c4.616,3.574,9.232,7.149,13.847,10.723,12.56,9.726,25.119,19.452,37.679,29.177,18.506,14.331,37.013,28.662,55.519,42.992,22.568,17.476,45.137,34.953,67.705,52.429,24.797,19.202,49.594,38.404,74.391,57.606,25.029,19.381,50.057,38.763,75.086,58.144,23.26,18.012,46.52,36.024,69.78,54.035,19.658,15.223,39.316,30.445,58.974,45.668,14.143,10.952,28.287,21.904,42.43,32.856,6.715,5.2,13.323,10.589,20.169,15.618,.292,.214,.574,.444,.86,.666v-15c-1.169,1.66-.761,1.937-2.137,1.677-.931-.175-1.95-.805-2.824-1.166-3.791-1.565-7.581-3.13-11.372-4.695-14.409-5.949-28.818-11.898-43.228-17.847-21.569-8.905-43.139-17.811-64.708-26.716-26.36-10.883-52.719-21.766-79.079-32.65l-86.843-35.855c-29.366-12.124-58.732-24.249-88.098-36.373-27.415-11.319-54.829-22.637-82.244-33.956-23.182-9.571-46.363-19.142-69.545-28.713-16.627-6.865-33.255-13.73-49.882-20.595-7.884-3.255-15.714-6.73-23.681-9.777-.347-.133-.688-.284-1.032-.426v15c9.948-17.231,19.896-34.461,29.845-51.692,15.843-27.441,31.687-54.883,47.53-82.324,3.619-6.269,7.239-12.537,10.858-18.806,.193-.334,.051-2.047,.053-2.197,.02-1.767,.022-3.536,.022-5.303,0-.626-.397-7.399-.075-7.5h0c-.41,.128-.075,6.84-.075,7.5,0,.626,.397,7.399,.075,7.5h0v-15c-9.948,17.231-19.896,34.461-29.845,51.692-15.843,27.441-31.687,54.883-47.53,82.324-3.619,6.269-7.239,12.537-10.858,18.806-.193,.334-.051,2.047-.053,2.197-.02,1.767-.022,3.536-.022,5.303,0,.74-.525,7.252,.075,7.5,5.431,2.242,10.862,4.485,16.293,6.727,14.772,6.099,29.545,12.198,44.317,18.297,21.832,9.014,43.664,18.028,65.497,27.042,26.522,10.95,53.043,21.9,79.565,32.85,29.01,11.977,58.02,23.955,87.03,35.932,29.328,12.109,58.656,24.218,87.985,36.326,27.276,11.262,54.553,22.523,81.829,33.785,22.943,9.472,45.886,18.945,68.829,28.417,16.289,6.725,32.579,13.451,48.868,20.176,4.985,2.058,9.971,4.117,14.956,6.175,2.269,.937,4.979,2.633,7.412,3.06,1.339,.235,.931-.045,2.093-1.695,.186-.265,.052-2.149,.053-2.197,.02-1.767,.022-3.536,.022-5.303s-.001-3.536-.022-5.303c-.004-.341,.172-2.022-.053-2.197-4.616-3.574-9.232-7.149-13.847-10.723-12.56-9.726-25.119-19.452-37.679-29.177-18.506-14.331-37.013-28.662-55.519-42.992-22.568-17.476-45.137-34.953-67.705-52.429-24.797-19.202-49.594-38.404-74.391-57.606-25.029-19.381-50.057-38.763-75.086-58.144-23.26-18.012-46.52-36.024-69.78-54.035-19.658-15.223-39.316-30.445-58.974-45.668-14.143-10.952-28.287-21.904-42.43-32.856-4.427-3.428-8.854-6.857-13.282-10.285-2.262-1.751-4.475-3.791-6.887-5.333-.301-.193-.577-.447-.86-.666,.07,.054-.056,2.463-.053,2.197-.02,1.767-.022,3.536-.022,5.303s.001,3.536,.022,5.303c.004,.341-.172,2.022,.053,2.197Z"
             id="path38"
             style="fill:#f20587;fill-opacity:1" />
          <path
             class="cls-1"
             d="M631.616,1051.741c10.027,17.288,20.054,34.577,30.081,51.865,15.969,27.533,31.937,55.067,47.906,82.6,3.648,6.29,7.296,12.579,10.944,18.869v-15c-5.471,2.239-10.942,4.479-16.413,6.718-14.76,6.042-29.52,12.084-44.281,18.126-21.792,8.92-43.583,17.841-65.375,26.761-26.654,10.911-53.309,21.822-79.963,32.732-29.178,11.944-58.357,23.888-87.535,35.832-29.332,12.007-58.664,24.014-87.996,36.021-27.398,11.215-54.796,22.43-82.194,33.645-23.09,9.452-46.181,18.904-69.271,28.356-16.464,6.739-32.928,13.479-49.392,20.218l-15.215,6.228c-2.531,1.036-5.149,2.457-7.789,3.188-1.059,.294-.613,.409-2.002-.11v15c4.645-3.593,9.29-7.186,13.935-10.779,12.588-9.736,25.175-19.473,37.763-29.209,18.669-14.44,37.338-28.88,56.006-43.32,22.7-17.558,45.399-35.116,68.099-52.673,24.853-19.223,49.706-38.447,74.559-57.67,25.079-19.398,50.157-38.796,75.236-58.194,23.377-18.082,46.753-36.163,70.13-54.245,19.747-15.274,39.494-30.548,59.241-45.822,14.224-11.002,28.447-22.004,42.671-33.005,6.609-5.112,13.823-9.897,20.034-15.496,.109-.098,.66-.645,.823-.636-.183-.011,.407-14.976,0-15-.739-.043-2.95,2.281-3.495,2.703-3.424,2.648-6.848,5.297-10.272,7.945-12.543,9.702-25.087,19.404-37.63,29.107-18.637,14.415-37.273,28.831-55.91,43.246-22.68,17.543-45.359,35.085-68.039,52.628-24.845,19.218-49.691,38.435-74.536,57.653-25.083,19.402-50.166,38.803-75.25,58.205-23.393,18.095-46.787,36.189-70.18,54.284-19.776,15.297-39.552,30.593-59.328,45.89-14.265,11.034-28.53,22.068-42.795,33.102-6.67,5.159-13.901,9.998-20.194,15.62-.27,.241-.579,.448-.866,.67-.145,.112-.055,2.375-.053,2.197-.02,1.767-.022,3.536-.022,5.303,0,.71-.484,7.291,.075,7.5,1.833,.685,3.23-.392,5.024-1.127,3.929-1.608,7.858-3.217,11.788-4.825l43.659-17.871c21.642-8.859,43.283-17.718,64.925-26.576,26.561-10.873,53.122-21.745,79.684-32.618,29.143-11.929,58.286-23.859,87.428-35.788,29.354-12.016,58.708-24.032,88.062-36.047,27.477-11.248,54.954-22.495,82.431-33.743,23.227-9.508,46.454-19.016,69.681-28.524,16.658-6.819,33.315-13.637,49.973-20.456,5.19-2.124,10.38-4.249,15.57-6.373,2.692-1.102,5.6-2.02,8.189-3.352,.321-.165,.679-.278,1.014-.415,.497-.203,.075-6.782,.075-7.5,0-1.768-.001-3.536-.022-5.303-.006-.53,.203-1.754-.053-2.197-10.027-17.288-20.054-34.577-30.081-51.865-15.969-27.533-31.937-55.067-47.906-82.6-3.648-6.29-7.296-12.579-10.944-18.869,.137,.236-.053,2.197-.053,2.197-.02,1.767-.022,3.536-.022,5.303s.001,3.536,.022,5.303c.006,.53-.203,1.754,.053,2.197Z"
             id="path40"
             style="fill:#f20587;fill-opacity:1" />
          <path
             class="cls-1"
             d="M729.607,1207.578c5.168-2.724,10.682-4.887,16.044-7.191,10.104-4.342,20.25-8.587,30.408-12.802,12.015-4.985,24.051-9.918,36.111-14.793,11.193-4.525,22.404-9.01,33.66-13.376,7.457-2.892,14.921-5.839,22.522-8.335,1.425-.468,3.004-1.135,4.522-1.206,2.654-.125,5.556,.939,8.041,1.722,9.808,3.089,19.279,7.343,28.677,11.481,12.712,5.598,25.321,11.427,37.963,17.179,12.497,5.686,25.012,11.352,37.7,16.603,9.204,3.809,18.626,7.795,28.379,9.98,1.482,.332,2.98,.608,4.494,.739v-15c-1.282,2.249-2.565,4.498-3.847,6.747l-10.467,18.354c-5.137,9.008-10.274,18.016-15.411,27.024-6.311,11.066-12.622,22.133-18.933,33.199-6.858,12.027-13.717,24.053-20.575,36.08-6.941,12.172-13.883,24.344-20.824,36.516-6.463,11.332-12.925,22.664-19.388,33.997-5.429,9.52-10.858,19.039-16.287,28.559l-11.697,20.511-3.589,6.293c-.559,.98-1.069,2.394-1.84,3.227-.348,.376-.182,.357-.513-.212l-2.067-3.563c-3.073-5.299-6.146-10.598-9.219-15.898-4.88-8.416-9.761-16.831-14.641-25.247-6.148-10.601-12.296-21.203-18.444-31.804-6.876-11.857-13.752-23.713-20.628-35.57-7.039-12.138-14.078-24.276-21.117-36.413-6.715-11.58-13.431-23.159-20.146-34.739-5.826-10.047-11.653-20.094-17.479-30.141-4.385-7.562-8.77-15.123-13.156-22.685-2.438-4.204-4.876-8.408-7.314-12.612-.313-.54-.627-1.081-.94-1.621v15h0c.11,0,.114-15,0-15h0c-.088,0-.075,6.94-.075,7.5,0,1.768,.003,3.536,.022,5.303,.006,.53-.203,1.755,.053,2.197,1.293,2.23,2.587,4.461,3.88,6.691,3.521,6.071,7.041,12.142,10.562,18.212,5.187,8.944,10.374,17.888,15.56,26.832,6.377,10.997,12.755,21.994,19.132,32.991,6.939,11.965,13.877,23.929,20.816,35.894,7.034,12.129,14.067,24.257,21.101,36.386,6.565,11.32,13.13,22.64,19.694,33.96,5.538,9.55,11.077,19.101,16.615,28.651l12.044,20.768c1.921,3.312,3.71,6.759,5.786,9.977,.344,.533,.158,.53,.506,.085,.756-.964,1.283-2.249,1.888-3.31,2.956-5.183,5.911-10.366,8.867-15.549,4.767-8.36,9.535-16.72,14.302-25.08,6.042-10.594,12.084-21.189,18.125-31.783,6.779-11.886,13.557-23.773,20.336-35.659,6.953-12.192,13.906-24.384,20.859-36.576,6.642-11.647,13.284-23.294,19.926-34.941,5.768-10.115,11.537-20.23,17.305-30.345,4.345-7.618,8.689-15.237,13.034-22.855l7.25-12.713c.311-.545,.622-1.09,.932-1.635,.193-.338,.051-2.041,.053-2.197,.019-1.768,.023-3.536,.022-5.303,0-.561,.132-7.482-.075-7.5-3.508-.303-6.962-1.284-10.316-2.31-4.859-1.487-9.631-3.258-14.362-5.106-12.305-4.805-24.384-10.188-36.424-15.615-12.895-5.812-25.731-11.754-38.633-17.552-10.513-4.724-21.057-9.482-31.878-13.469-3.396-1.251-6.851-2.484-10.399-3.235-1.714-.363-3.222-.54-4.909-.086-6.331,1.704-12.493,4.276-18.61,6.606-10.584,4.033-21.111,8.215-31.622,12.432-12.159,4.879-24.292,9.824-36.404,14.819-10.846,4.473-21.678,8.982-32.476,13.57-6.798,2.889-13.628,5.741-20.316,8.88-.73,.342-1.459,.688-2.172,1.064-.117,.062-.056,2.45-.053,2.197-.019,1.768-.023,3.536-.022,5.303s.003,3.536,.022,5.303c.003,.254,.158,2.142,.053,2.197Z"
             id="path42"
             style="fill:#f20587;fill-opacity:1" />
          <path
             class="cls-1"
             d="M1004.244,1094.263c.522,3.571,1.043,7.142,1.565,10.712,1.246,8.532,2.492,17.064,3.739,25.596,1.513,10.359,3.026,20.718,4.539,31.077,1.303,8.92,2.606,17.84,3.909,26.76,.635,4.346,1.252,8.695,1.905,13.039,.01,.064,.019,.127,.028,.191v-15c-4.614-1.891-9.228-3.781-13.841-5.672-11.075-4.538-22.15-9.076-33.224-13.615-13.311-5.455-26.622-10.909-39.932-16.364-11.569-4.741-23.137-9.481-34.706-14.222-5.591-2.291-11.147-4.71-16.787-6.879-.082-.032-.163-.067-.245-.1v15c4.08-1.675,8.16-3.351,12.241-5.026,9.798-4.023,19.597-8.046,29.395-12.069,11.853-4.867,23.706-9.733,35.559-14.6,10.244-4.206,20.489-8.413,30.733-12.619,4.953-2.034,10.064-3.861,14.918-6.125,.067-.031,.137-.056,.205-.084l-.075-7.5h0c0,1.768,.003,3.536,.022,5.303,.005,.507-.111,1.62,.053,2.197-.151-.532,.048-1.712,.053-2.197,.017-1.768,.022-3.536,.022-5.303h0c0-1.768-.002-3.536-.022-5.303-.003-.238-.129-2.165-.053-2.197-4.08,1.675-8.16,3.351-12.241,5.026-9.798,4.023-19.597,8.046-29.395,12.069-11.853,4.867-23.706,9.733-35.559,14.6-10.244,4.206-20.489,8.413-30.733,12.619-3.374,1.385-6.748,2.771-10.123,4.156l-3.149,1.293c-.483,.198-1.229,.354-1.646,.676-.052,.04-.143,.059-.205,.084-.102,.042-.056,2.479-.053,2.197-.019,1.768-.023,3.536-.022,5.303s.002,3.536,.022,5.303c.003,.263-.105,2.132,.053,2.197,4.614,1.891,9.228,3.781,13.841,5.672,11.075,4.538,22.15,9.076,33.224,13.615,13.311,5.455,26.622,10.909,39.932,16.364,11.569,4.741,23.137,9.481,34.706,14.222,3.806,1.56,7.613,3.12,11.419,4.679l3.514,1.44c.511,.209,1.295,.727,1.853,.759,.073,.004,.174,.071,.245,.1-.022-.009,.057-2.529,.053-2.197,.019-1.768,.023-3.536,.022-5.303-.001-2.445,.28-5.072-.075-7.5-.522-3.571-1.043-7.142-1.565-10.712-1.246-8.532-2.492-17.064-3.739-25.596-1.513-10.359-3.026-20.718-4.539-31.077-1.303-8.92-2.606-17.84-3.909-26.76l-1.29-8.83c-.2-1.369-.256-2.871-.615-4.209-.016-.061-.019-.128-.028-.191,.092,.631-.047,1.614-.053,2.197-.019,1.768-.023,3.536-.022,5.303,.001,2.445-.28,5.072,.075,7.5Z"
             id="path44"
             style="fill:#f20587;fill-opacity:1" />
          <path
             class="cls-1"
             d="M729.679,1194.115c-.001,.813-.007,1.626-.016,2.439-.004,.342-.003,.293,.005-.15-.005,.152,.014-.46,.011-.36,.021-.693,.049-1.386,.081-2.078,.064-1.358,.15-2.716,.249-4.072l-.02,.268c1.719-22.775,7.151-45.077,8.802-67.869,.308-4.246,.501-8.499,.811-12.744l-.02,.268c.216-2.898,.241-6.458,1.779-9.038,1.193-2,3.376-2.223,5.502-1.911,4.246,.622,8.379,2.445,12.349,3.985,3.819,1.481,7.633,2.975,11.456,4.446,10.563,4.065,21.132,8.118,31.672,12.242,11.78,4.609,23.54,9.278,35.192,14.203,8.05,3.403,16.41,6.693,23.921,11.211,.498,.299,.989,.61,1.467,.94v-15c-4.445,1.791-8.89,3.583-13.335,5.374-10.629,4.283-21.257,8.566-31.886,12.85-12.843,5.176-25.686,10.351-38.529,15.527-11.114,4.479-22.229,8.958-33.343,13.437-3.627,1.462-7.255,2.924-10.882,4.385l-3.376,1.361c-.523,.211-1.296,.371-1.754,.707-.009,.007-.203,.094-.212,.085,.094,.094-.055,2.406-.053,2.197-.019,1.768-.023,3.536-.022,5.303s.002,3.536,.022,5.303c.005,.393-.195,1.949,.053,2.197,.178,.178,3.289-1.325,3.543-1.428l9.646-3.887c10.604-4.273,21.207-8.546,31.811-12.82,12.841-5.175,25.683-10.35,38.524-15.525,11.136-4.488,22.273-8.976,33.409-13.464,3.647-1.47,7.294-2.94,10.942-4.409l3.413-1.375c.529-.213,1.336-.377,1.795-.723,.06-.045,.162-.065,.233-.094,.101-.041,.056-2.481,.053-2.197,.019-1.768,.023-3.536,.022-5.303s-.002-3.536-.022-5.303c-.004-.322,.16-2.049-.053-2.197-2.845-1.966-6.043-3.46-9.154-4.945-4.933-2.354-9.948-4.536-14.978-6.673-12.481-5.304-25.094-10.299-37.724-15.234-11.07-4.325-22.172-8.569-33.26-12.847-4.479-1.728-8.928-3.544-13.444-5.172-2.039-.735-4.105-1.454-6.225-1.919-1.322-.29-2.755-.529-4.101-.253-2.519,.516-3.357,3.02-3.793,5.266-.903,4.654-.901,9.52-1.192,14.237-.105,1.704-.219,3.407-.345,5.109l.02-.268c-1.543,20.615-6.112,40.813-8.234,61.357-.708,6.852-.945,13.686-.957,20.573-.004,1.926-.004,3.853,.008,5.779,.007,1.065-.111,2.372,.045,3.447,.116,.801,.06-.899,.058-.756,.026-1.494,.032-2.988,.034-4.482Z"
             id="path46"
             style="fill:#f20587;fill-opacity:1" />
          <path
             class="cls-1"
             d="M874.927,863.426c3.702,2.875,7.404,5.75,11.106,8.624,8.887,6.902,17.775,13.804,26.662,20.705,10.623,8.25,21.246,16.499,31.869,24.749,9.002,6.991,18.004,13.982,27.006,20.972l8.511,6.609,2.465,1.914c.272,.211,.85,.499,1.031,.801,.425,.708,.345,2.256,.462,3.059,.459,3.17,.918,6.339,1.376,9.509,1.552,10.722,3.104,21.444,4.656,32.166,1.923,13.284,3.846,26.568,5.768,39.851,1.717,11.861,3.434,23.721,5.15,35.582,.934,6.452,1.868,12.905,2.802,19.357,.044,.301,.087,.602,.131,.904v-15c-7.173,1.692-14.118,4.614-20.94,7.345-10.399,4.164-20.688,8.602-30.96,13.07-11.187,4.867-22.344,9.803-33.523,14.689-9.676,4.229-19.359,8.455-29.148,12.418-3.499,1.417-7.012,2.806-10.573,4.06-2.197,.774-4.453,1.598-6.759,1.986-1.4,.235-2.624-.106-3.964-.522-2.648-.822-5.238-1.841-7.816-2.86-8.626-3.408-17.136-7.112-25.645-10.8-10.808-4.685-21.592-9.425-32.396-14.118-10.521-4.57-21.055-9.116-31.666-13.474-7.712-3.167-15.468-6.391-23.44-8.857-1.176-.364-2.36-.705-3.559-.987v15c.588-4.755,1.175-9.51,1.763-14.264,1.403-11.354,2.806-22.708,4.209-34.062,1.674-13.544,3.348-27.087,5.021-40.631,1.418-11.471,2.835-22.941,4.253-34.412l1.323-10.706,.377-3.05c.038-.309-.009-.932,.149-1.209,.103-.18,.437-.349,.599-.474l2.041-1.579c2.589-2.003,5.178-4.005,7.767-6.008,8.784-6.795,17.568-13.589,26.353-20.384,10.769-8.33,21.537-16.659,32.306-24.989,9.598-7.424,19.197-14.849,28.795-22.273,5.242-4.055,10.484-8.11,15.727-12.165l.71-.549c.145-.112,.055-2.375,.053-2.197,.019-1.768,.023-3.536,.022-5.303s-.002-3.536-.022-5.303c-.007-.648,.15-1.588-.053-2.197h0c.143,.43-.05,1.91-.053,2.197-.019,1.768-.023,3.536-.022,5.303s.002,3.536,.022,5.303c.007,.648-.15,1.588,.053,2.197h0v-15c-3.671,2.84-7.342,5.679-11.013,8.519-8.859,6.852-17.717,13.704-26.576,20.557-10.779,8.338-21.558,16.675-32.337,25.013-9.549,7.386-19.098,14.773-28.647,22.159-5.053,3.909-10.106,7.817-15.16,11.726-.704,.544-.606,.787-.721,1.714l-.958,7.748c-1.277,10.333-2.554,20.666-3.831,30.999-1.66,13.431-3.32,26.863-4.98,40.294-1.515,12.257-3.029,24.513-4.544,36.77-.838,6.777-1.675,13.554-2.513,20.332-.038,.308-.076,.615-.114,.923-.301,2.437-.076,5.048-.075,7.5,0,1.768,.002,3.536,.022,5.303,.003,.236-.06,2.17,.053,2.197,6.897,1.62,13.579,4.454,20.141,7.066,10.226,4.072,20.351,8.399,30.457,12.758,10.988,4.739,21.945,9.549,32.915,14.329,9.313,4.059,18.625,8.126,28.021,11.992,3.21,1.321,6.43,2.626,9.691,3.818,1.793,.656,3.691,1.456,5.597,1.721,1.519,.211,3.164-.371,4.598-.797,2.99-.888,5.918-1.991,8.827-3.112,9.085-3.5,18.028-7.373,26.959-11.245,11.048-4.79,22.061-9.662,33.091-14.492,10.683-4.678,21.377-9.337,32.154-13.795,7.934-3.282,15.919-6.609,24.131-9.143,1.257-.388,2.522-.75,3.803-1.052,.336-.079,.075-6.878,.075-7.5-.001-2.446,.277-5.071-.075-7.5-.654-4.52-1.309-9.041-1.963-13.561-1.585-10.948-3.169-21.896-4.754-32.844-1.926-13.305-3.852-26.61-5.778-39.915-1.694-11.706-3.389-23.411-5.083-35.117-.887-6.128-1.774-12.256-2.661-18.384-.117-.808-.515-.924-1.186-1.445l-6.27-4.869c-8.104-6.293-16.208-12.587-24.311-18.88-10.541-8.186-21.082-16.372-31.623-24.558-9.598-7.454-19.197-14.908-28.795-22.362l-15.827-12.291c-.248-.192-.495-.384-.743-.577,.07,.055-.056,2.463-.053,2.197-.019,1.768-.023,3.536-.022,5.303s.002,3.536,.022,5.303c.004,.342-.173,2.021,.053,2.197Z"
             id="path48"
             style="fill:#f20587;fill-opacity:1" />
          <path
             class="cls-1"
             d="M722.572,1181.255c-2.715-4.7-5.43-9.401-8.145-14.101-6.497-11.247-12.993-22.494-19.49-33.741-7.875-13.633-15.75-27.266-23.624-40.898-6.783-11.742-13.565-23.484-20.348-35.226-3.286-5.688-6.503-11.422-9.859-17.069-.045-.076-.089-.154-.133-.23v15c3.195,1.288,6.389,2.577,9.584,3.865,7.712,3.11,15.425,6.221,23.137,9.331,9.295,3.749,18.59,7.497,27.885,11.246,8.066,3.253,16.133,6.506,24.199,9.76,3.895,1.571,7.763,3.254,11.699,4.718,.055,.021,.109,.044,.164,.066v-15c-.502,3.405-1.003,6.809-1.505,10.214-1.204,8.171-2.407,16.342-3.611,24.513-1.449,9.833-2.897,19.666-4.346,29.5l-3.767,25.57c-.604,4.103-1.335,8.21-1.816,12.33,0,.007-.019,.154-.023,.154-.11,0-.114,15,0,15,.232,0,1.401-9.508,1.482-10.059,1.2-8.144,2.4-16.288,3.599-24.432,1.448-9.832,2.897-19.663,4.345-29.495,1.259-8.547,2.518-17.094,3.777-25.64,.612-4.152,1.349-8.307,1.838-12.476,.007-.059,.017-.117,.026-.176,.355-2.407,.076-5.071,.075-7.5,0-1.768-.002-3.536-.022-5.303-.003-.262,.103-2.134-.053-2.197-3.195-1.288-6.389-2.577-9.584-3.865-7.712-3.11-15.425-6.221-23.137-9.331-9.295-3.749-18.59-7.497-27.885-11.246-8.066-3.253-16.133-6.506-24.199-9.76l-7.935-3.2-2.471-.996c-.323-.13-.941-.535-1.294-.522-.045,.002-.119-.048-.164-.066,.021,.009-.057,2.53-.053,2.197-.019,1.768-.023,3.536-.022,5.303s.002,3.536,.022,5.303c.006,.531-.203,1.753,.053,2.197,2.715,4.7,5.43,9.401,8.145,14.101,6.497,11.247,12.993,22.494,19.49,33.741,7.875,13.633,15.75,27.266,23.624,40.898,6.783,11.742,13.565,23.484,20.348,35.226l6.669,11.545,2.099,3.633c.326,.565,.632,1.422,1.092,1.891,.056,.057,.092,.159,.133,.23-.137-.237,.053-2.195,.053-2.197,.019-1.768,.023-3.536,.022-5.303s-.002-3.536-.022-5.303c-.006-.531,.203-1.753-.053-2.197Z"
             id="path50"
             style="fill:#f20587;fill-opacity:1" />
          <path
             class="cls-1"
             d="M1109.817,1035.768c-1.904,3.315-3.807,6.63-5.711,9.945-4.806,8.368-9.611,16.736-14.417,25.104-6.329,11.02-12.658,22.04-18.986,33.06-6.517,11.348-13.035,22.697-19.552,34.045-5.374,9.357-10.748,18.715-16.122,28.072-2.852,4.965-5.703,9.931-8.555,14.896-.036,.062-.411,.839-.478,.833-.046-.004-.133-.822-.145-.904-.418-2.751-.837-5.501-1.255-8.252-1.665-10.946-3.33-21.892-4.994-32.838-1.944-12.783-3.888-25.566-5.832-38.349-1.186-7.798-2.372-15.595-3.558-23.393l-.172-1.131v15c3.308-1.362,6.615-2.724,9.923-4.086,7.943-3.271,15.887-6.542,23.83-9.812,9.61-3.957,19.22-7.914,28.83-11.871,8.307-3.421,16.614-6.841,24.922-10.262l8.187-3.371,2.589-1.066c.375-.154,1.016-.283,1.33-.548,.04-.034,.119-.049,.169-.069,.102-.042,.056-2.479,.053-2.197,.019-1.768,.023-3.536,.022-5.303s-.002-3.536-.022-5.303c-.003-.238-.129-2.165-.053-2.197-3.308,1.362-6.615,2.724-9.923,4.086-7.943,3.271-15.887,6.542-23.83,9.812l-28.83,11.871c-8.307,3.421-16.614,6.841-24.922,10.262l-8.187,3.371-2.589,1.066c-.375,.154-1.016,.283-1.33,.548-.04,.034-.119,.049-.169,.069-.102,.042-.056,2.479-.053,2.197-.019,1.768-.023,3.536-.022,5.303s.002,3.536,.022,5.303c.008,.718-.055,1.487,.053,2.197,.847,5.571,1.695,11.142,2.542,16.713,1.855,12.197,3.71,24.394,5.565,36.591,1.828,12.02,3.656,24.039,5.484,36.059l1.764,11.599c.038,.253,.469,3.896,.605,3.902,.283,.012,1.607-2.798,1.75-3.047l4.359-7.59c4.888-8.511,9.775-17.021,14.663-25.532,6.381-11.11,12.762-22.221,19.142-33.331,6.478-11.279,12.955-22.558,19.433-33.837,5.304-9.236,10.609-18.472,15.913-27.708l8.194-14.268,.365-.636c.193-.336,.051-2.045,.053-2.197,.019-1.768,.023-3.536,.022-5.303s-.002-3.536-.022-5.303c-.005-.476-.266-1.826-.053-2.197Z"
             id="path52"
             style="fill:#f20587;fill-opacity:1" />
          <path
             class="cls-1"
             d="m 1008.187,1063.333 c -13.11997,-148.01963 -27.76735,-158.93699 -3.959,-9.293 1.29,8.102 2.615,16.199 3.958,24.293 -0.101,-0.611 0.047,-1.644 0.053,-2.197 0.019,-1.768 0.023,-3.536 0.022,-5.303 -10e-4,-1.767 0,-3.536 -0.022,-5.303 -0.01,-0.714 0.064,-1.492 -0.053,-2.197 v 0 z"
             id="path54"
             sodipodi:nodetypes="cccsssscc"
             style="fill:#f20587;fill-opacity:1" />
          <path
             class="cls-1"
             d="M754.995,941.249c-14.87,11.526-29.741,23.051-44.611,34.577-14.87,11.526-29.741,23.051-44.611,34.577-8.422,6.528-16.844,13.056-25.266,19.583-.145,.112-.055,2.375-.053,2.197-.019,1.768-.023,3.536-.022,5.303s.002,3.536,.022,5.303c.003,.299,.206,2.078,.053,2.197,3.864-2.995,7.729-5.99,11.593-8.985l27.762-21.518,33.312-25.82c9.498-7.361,18.995-14.723,28.493-22.084l9.139-7.083,2.78-2.155c.397-.307,1.008-.627,1.322-1.025,.02-.026,.062-.036,.081-.063,.043-.063,.001-.202,.027-.274,.308-.86,.04-2.579,.045-3.447,.007-1.183,.01-2.611,.01-3.785,0-1.768-.003-3.536-.022-5.303-.005-.507,.111-1.62-.053-2.197,.151,.532-.048,1.712-.053,2.197-.017,1.768-.022,3.536-.022,5.303h0c.025-2.5,.05-5,.075-7.5-3.802,2.947-7.604,5.894-11.406,8.84-9.128,7.075-18.256,14.15-27.384,21.225-11.037,8.555-22.075,17.11-33.112,25.665-9.485,7.352-18.97,14.703-28.455,22.055-4.642,3.598-9.361,7.115-13.935,10.8-.065,.052-.131,.102-.197,.153v15c14.87-11.526,29.741-23.051,44.611-34.577,14.87-11.526,29.741-23.051,44.611-34.577,8.422-6.528,16.844-13.056,25.266-19.583,.145-.112,.055-2.375,.053-2.197,.019-1.768,.023-3.536,.022-5.303s-.002-3.536-.022-5.303c-.003-.299-.206-2.078-.053-2.197Z"
             id="path56"
             style="fill:#f20587;fill-opacity:1" />
          <path
             class="cls-1"
             d="M881.708,858.491c2.675-2.094,5.349-4.189,8.024-6.283,6.421-5.028,12.842-10.056,19.264-15.085,7.732-6.054,15.463-12.109,23.195-18.163,6.711-5.255,13.422-10.51,20.133-15.766l6.587-5.158,2.076-1.626c.328-.257,.834-.525,1.092-.855,.034-.043,.098-.077,.142-.111,.146-.114,.055-2.372,.053-2.197,.019-1.768,.023-3.536,.022-5.303s-.002-3.536-.022-5.303c-.003-.25-.151-2.148-.053-2.197h0c-.113,.057-.056,2.457-.053,2.197-.019,1.768-.023,3.536-.022,5.303,.001,2.444-.281,5.073,.075,7.5,.701,4.776,1.402,9.552,2.103,14.328l5.048,34.394c2.028,13.818,4.056,27.636,6.084,41.454,1.752,11.94,3.505,23.879,5.257,35.819,.578,3.935,1.155,7.87,1.733,11.805,.268,1.824,.347,3.821,.823,5.606,.021,.078,.024,.165,.036,.246-.092-.63,.047-1.616,.053-2.197,.019-1.768,.023-3.536,.022-5.303-.001-2.444,.281-5.073-.075-7.5-.701-4.776-1.402-9.552-2.103-14.328l-5.048-34.394c-2.028-13.818-4.056-27.636-6.084-41.454-1.752-11.94-3.505-23.879-5.257-35.819-.852-5.803-1.683-11.61-2.555-17.411-.012-.082-.024-.164-.036-.246v15h0v-15c-2.675,2.094-5.349,4.189-8.024,6.283l-19.264,15.085c-7.732,6.054-15.463,12.109-23.195,18.163-6.711,5.255-13.422,10.51-20.133,15.766l-6.587,5.158-2.076,1.626c-.328,.257-.834,.525-1.092,.855-.034,.043-.098,.077-.142,.111-.146,.114-.055,2.372-.053,2.197-.019,1.768-.023,3.536-.022,5.303s.002,3.536,.022,5.303c.003,.3,.207,2.076,.053,2.197h0Z"
             id="path58"
             style="fill:#f20587;fill-opacity:1" />
          <path
             class="cls-1"
             d="M783.244,793.687c2.891,2.188,5.782,4.376,8.673,6.564,6.941,5.253,13.882,10.506,20.823,15.758,8.36,6.327,16.72,12.654,25.08,18.98,7.255,5.49,14.51,10.981,21.765,16.471,3.513,2.659,6.977,5.405,10.55,7.984,.052,.037,.102,.077,.153,.116v-15c-3.748,2.56-7.286,5.428-10.889,8.186-8.272,6.333-16.545,12.665-24.817,18.998-10.228,7.829-20.455,15.659-30.683,23.488-8.939,6.843-17.878,13.685-26.816,20.528-4.389,3.36-8.859,6.637-13.178,10.088-.058,.047-.119,.091-.178,.136v15c.653-4.928,1.306-9.856,1.959-14.784,1.555-11.739,3.111-23.478,4.666-35.217,1.879-14.177,3.757-28.354,5.636-42.531,1.622-12.242,3.244-24.483,4.866-36.725,.786-5.935,1.707-11.87,2.361-17.822,.001-.012,.039-.214,.029-.219-.035-.018,.056-2.517,.053-2.197,.019-1.768,.023-3.536,.022-5.303s-.002-3.536-.022-5.303c-.003-.281,.125-2.108-.053-2.197,.187,.093-.482,3.636-.515,3.887l-1.423,10.741c-1.552,11.712-3.104,23.425-4.656,35.137-1.878,14.176-3.757,28.351-5.635,42.527-1.625,12.265-3.25,24.531-4.876,36.796-.793,5.987-1.677,11.97-2.381,17.969-.009,.08-.021,.161-.032,.241-.321,2.426-.076,5.056-.075,7.5,0,1.768,.002,3.536,.022,5.303,.003,.297,.204,2.081,.053,2.197,3.593-2.751,7.186-5.501,10.779-8.252,8.583-6.57,17.165-13.14,25.748-19.71,10.245-7.843,20.49-15.686,30.736-23.529,8.665-6.633,17.331-13.267,25.996-19.9,3.82-2.924,7.583-5.948,11.471-8.781,.597-.435,1.222-.836,1.832-1.252,.135-.092,.055-2.404,.053-2.197,.019-1.768,.023-3.536,.022-5.303s-.002-3.536-.022-5.303c-.004-.337,.17-2.028-.053-2.197-2.891-2.188-5.782-4.376-8.673-6.564-6.941-5.253-13.882-10.506-20.823-15.758-8.36-6.327-16.72-12.654-25.08-18.98-7.255-5.49-14.51-10.981-21.765-16.471l-7.125-5.392-2.244-1.699c-.306-.232-.804-.792-1.181-.893-.049-.013-.111-.084-.153-.116,.068,.051-.056,2.467-.053,2.197-.019,1.768-.023,3.536-.022,5.303s.002,3.536,.022,5.303c.004,.337-.17,2.028,.053,2.197Z"
             id="path60"
             style="fill:#f20587;fill-opacity:1" />
          <path
             class="cls-1"
             d="M1188.071,900.885c-17.717,28.989-34.909,58.305-51.46,87.976-4.125,7.395-8.209,14.814-12.245,22.258-1.939,3.577-3.867,7.16-5.783,10.749-.896,1.678-1.693,3.489-2.709,5.096-1.051,1.661-.011,.393-.311,.41-.363,.021-1.441-1.114-1.716-1.327l-3.775-2.919c-10.133-7.836-20.266-15.671-30.4-23.507-13.914-10.759-27.827-21.518-41.741-32.276-11.716-9.06-23.433-18.119-35.149-27.179l-9.725-7.52c-.888-.686-2.024-1.134-2.188-2.27-1.265-8.759-2.53-17.519-3.796-26.278-2.37-16.41-4.741-32.82-7.111-49.229-2.399-16.608-4.798-33.217-7.197-49.825l-4.185-28.971c-.065-.451-.13-.903-.196-1.354v15c6.233-2.351,12.459-1.988,18.939-1.988,9.666,0,19.333,0,28.999,0,14.189,0,28.377,0,42.566,0,16.743,0,33.486,0,50.229,0,17.001,0,34.002,0,51.003,0h90.834c1.775,0,3.679-.197,5.446,0,.096,.011,.36-.055,.44,0,.291,.198,.237,1.119,.276,1.497l.003-13.495c-.004,.134-.011,.269-.019,.403-.014,.152-.025,.305-.04,.458-.039,.398-.096,.795-.161,1.19-.148,.901-.351,1.793-.587,2.675-.534,1.998-1.238,3.948-2.017,5.863-3.948,9.709-9.555,18.756-15.093,27.619-4.869,7.79-10.142,15.384-14.612,23.415-7.91,14.209-15.752,28.448-23.954,42.492-4.12,7.054-8.306,14.069-12.565,21.04-.191,.313-.052,2.078-.053,2.197-.019,1.768-.023,3.536-.022,5.303s.002,3.536,.022,5.303c.003,.245-.077,2.158,.053,2.197h0c-.228-.068,.075-6.886,.075-7.5,0-1.768-.002-3.536-.022-5.303-.003-.245,.077-2.158-.053-2.197h0v15c8.786-14.381,17.25-28.955,25.5-43.649,5.89-10.49,11.509-21.087,17.974-31.237,5.772-9.06,11.642-18.078,16.813-27.501,2.405-4.384,4.695-8.866,6.476-13.544,1.52-3.991,2.321-7.813,2.365-12.081,.045-4.354,.169-8.757-.043-13.11-.016-.323,.03-1.823-.249-2.033-.043-.033-.167,.02-.217,0-.394-.16-1.198,0-1.617,0h-7.548c-9.88,0-19.76,0-29.64,0-14.463,0-28.926,0-43.388,0h-181.57c-4.812,0-9.625-.039-14.436,0-3.414,.028-6.916,.785-10.105,1.988-.097,.037-.056,2.487-.053,2.197-.019,1.768-.023,3.536-.022,5.303,.001,2.446-.276,5.071,.075,7.5,.991,6.863,1.983,13.725,2.974,20.588,2.258,15.633,4.516,31.266,6.774,46.9,2.47,17.102,4.94,34.203,7.411,51.305,1.63,11.283,3.26,22.567,4.889,33.85,.149,1.034,.049,2.98,.707,3.804,.474,.593,1.387,1.072,1.982,1.533l4.075,3.151c10.398,8.04,20.795,16.08,31.193,24.12,13.866,10.722,27.732,21.444,41.599,32.166,11.596,8.967,23.192,17.934,34.788,26.9l9.188,7.105c.236,.182,1.31,1.288,1.62,1.253,.186-.021,.433-.698,.534-.889,.984-1.856,1.971-3.711,2.961-5.564,1.92-3.593,3.853-7.179,5.796-10.759,16.248-29.933,33.229-59.47,50.728-88.688,4.125-6.887,8.281-13.756,12.467-20.605,.191-.313,.052-2.078,.053-2.197,.019-1.768,.023-3.536,.022-5.303s-.002-3.536-.022-5.303c-.005-.46-.266-1.849-.053-2.197Z"
             id="path62"
             style="fill:#f20587;fill-opacity:1" />
          <path
             class="cls-1"
             d="M1269.128,787.892c4.126-.001,8.253-.003,12.379-.004,11.165-.004,22.329-.008,33.494-.012,16.582-.006,33.164-.012,49.746-.018,20.141-.007,40.282-.014,60.422-.021,22.16-.008,44.319-.016,66.479-.023,22.27-.008,44.54-.016,66.81-.024,20.859-.007,41.719-.015,62.578-.022,17.552-.006,35.104-.012,52.656-.019,12.681-.004,25.363-.009,38.044-.013,5.964-.002,12.002,.271,17.961-.006,.261-.012,.525,0,.786,0v-15c-5.433,2.234-10.865,4.468-16.298,6.702l-43.983,18.087c-21.653,8.904-43.306,17.809-64.96,26.713-26.498,10.897-52.996,21.793-79.494,32.69-29.026,11.936-58.052,23.873-87.078,35.809-29.206,12.01-58.413,24.021-87.619,36.031-27.32,11.235-54.639,22.469-81.959,33.704-23.082,9.492-46.164,18.984-69.246,28.476-16.547,6.805-33.094,13.609-49.641,20.414-7.853,3.229-15.836,6.249-23.594,9.703-.331,.147-.671,.276-1.006,.414v15c4.758-8.241,9.516-16.482,14.274-24.723,11.475-19.874,22.949-39.748,34.424-59.622,13.824-23.944,27.649-47.888,41.473-71.832,11.969-20.73,23.938-41.46,35.907-62.19l11.668-20.209c1.775-3.074,4.278-6.31,5.562-9.633,.038-.099,.133-.296,.215-.372,.159-.147,.054-2.323,.053-2.197,.02-1.767,.022-3.536,.022-5.303s-.001-3.536-.022-5.303c-.004-.329-.228-2.035-.053-2.197-1.605,1.491-2.705,4.684-3.783,6.552-3.434,5.948-6.868,11.896-10.302,17.844-11.442,19.817-22.884,39.634-34.326,59.452-13.823,23.941-27.645,47.881-41.468,71.822-11.998,20.78-23.996,41.561-35.994,62.341l-11.745,20.343c-1.817,3.147-4.316,6.422-5.663,9.809-.058,.145-.163,.283-.242,.418-.193,.334-.051,2.047-.053,2.197-.02,1.767-.022,3.536-.022,5.303,0,.687,.51,7.321,.075,7.5,5.433-2.234,10.865-4.468,16.298-6.702,14.661-6.029,29.322-12.058,43.983-18.087,21.653-8.904,43.306-17.809,64.96-26.713,26.498-10.897,52.996-21.793,79.494-32.69,29.026-11.936,58.052-23.873,87.078-35.809,29.206-12.01,58.413-24.021,87.619-36.031,27.32-11.235,54.639-22.469,81.959-33.704,23.082-9.492,46.164-18.984,69.246-28.476,16.547-6.805,33.094-13.609,49.641-20.414,5.154-2.12,10.308-4.239,15.463-6.359,2.673-1.099,5.562-2.015,8.132-3.344,.318-.165,.674-.277,1.006-.414,.498-.205,.075-6.781,.075-7.5,0-.547,.014-7.5-.075-7.5-4.126,.001-8.253,.003-12.379,.004-11.165,.004-22.329,.008-33.494,.012-16.582,.006-33.164,.012-49.746,.018-20.141,.007-40.282,.014-60.422,.021-22.16,.008-44.319,.016-66.479,.023-22.27,.008-44.54,.016-66.81,.024-20.859,.007-41.719,.015-62.578,.022l-52.656,.019c-12.681,.004-25.363,.009-38.044,.013l-11.825,.004c-1.844,0-4.334-.442-6.135,.002-.232,.057-.543,0-.786,0-.112,0-.113,15,0,15Z"
             id="path64"
             style="fill:#f20587;fill-opacity:1" />
          <path
             class="cls-1"
             d="M788.72,788.475c1.553-.007,3.106-.013,4.659-.02,4.199-.018,8.399-.036,12.598-.054,6.24-.027,12.48-.054,18.719-.08,7.576-.033,15.152-.065,22.729-.098,8.34-.036,16.68-.072,25.02-.107,8.42-.036,16.84-.072,25.259-.108,7.814-.034,15.627-.067,23.441-.101,6.637-.028,13.274-.057,19.912-.085,4.771-.02,9.541-.041,14.312-.061,2.248-.01,4.503,.029,6.751-.029,.098-.003,.196,0,.295-.001v-15c-2.867,2.155-5.734,4.309-8.601,6.464-6.882,5.172-13.765,10.345-20.647,15.517-8.429,6.335-16.858,12.67-25.288,19.005-7.401,5.562-14.802,11.125-22.204,16.687l-11.726,8.812c-.588,.442-.639,.128-1.233-.335l-4.852-3.778c-6.308-4.912-12.616-9.824-18.924-14.735-8.226-6.405-16.451-12.81-24.677-19.215-7.528-5.862-15.057-11.724-22.585-17.586l-12.392-9.649-.567-.442c.07,.055-.056,2.462-.053,2.197-.017,1.768-.022,3.536-.022,5.303h0c0,1.768,.003,3.536,.022,5.303,.005,.507-.111,1.62,.053,2.197-.151-.532,.048-1.712,.053-2.197,.017-1.768,.022-3.536,.022-5.303h0c-.025,2.5-.05,5-.075,7.5,2.911,2.267,5.822,4.534,8.733,6.8,6.922,5.39,13.843,10.779,20.765,16.169,8.324,6.482,16.649,12.964,24.973,19.446l21.044,16.386,6.609,5.146,1.914,1.491c.138,.108,.584,.594,.769,.599,.462,.014,1.647-1.218,2.002-1.486l6.06-4.555c6.784-5.098,13.567-10.196,20.351-15.294,8.386-6.302,16.772-12.605,25.158-18.907,7.511-5.645,15.022-11.29,22.534-16.935l12.225-9.187,.556-.418c.142-.107,.055-2.382,.053-2.197,.019-1.768,.023-3.536,.022-5.303,0-.547,.008-7.5-.075-7.5-1.553,.007-3.106,.013-4.659,.02-4.199,.018-8.399,.036-12.598,.054-6.24,.027-12.48,.054-18.719,.08-7.576,.033-15.152,.065-22.729,.098-8.34,.036-16.68,.072-25.02,.107-8.42,.036-16.84,.072-25.259,.108-7.814,.034-15.627,.067-23.441,.101-6.637,.028-13.274,.057-19.912,.085l-14.312,.061-4.413,.019c-.686,.003-1.672-.175-2.338,.01-.085,.024-.205,0-.295,.001-.132,0-.093,15,0,15Z"
             id="path66"
             style="fill:#f20587;fill-opacity:1" />
          <path
             class="cls-1"
             d="M490.878,780.896c-.013-1.693,.188-3.767-.413-5.409-.364-.994-1.103-1.847-1.628-2.757v15h276.812c3.738,0,7.483,.064,11.221,0,.163-.003,.327,0,.491,0v-15c-.614,4.718-1.228,9.435-1.841,14.153-1.496,11.497-2.992,22.994-4.487,34.491-1.853,14.245-3.707,28.491-5.56,42.736-1.701,13.077-3.403,26.155-5.104,39.232-1.036,7.965-2.072,15.929-3.109,23.894-.096,.74-.014,2.08-.44,2.694-.275,.397-.933,.741-1.307,1.037l-2.703,2.146c-7.299,5.795-14.599,11.589-21.898,17.384-10.754,8.537-21.507,17.073-32.261,25.61-11.046,8.769-22.092,17.538-33.139,26.307-8.162,6.48-16.325,12.959-24.487,19.439-2.014,1.599-4.029,3.198-6.043,4.797-.113,.09-.761,.754-.914,.726-.075-.014-.189-.327-.238-.393-.805-1.084-1.401-2.416-2.077-3.583-1.335-2.303-2.669-4.605-4.004-6.908-4.288-7.398-8.576-14.796-12.864-22.194-5.921-10.216-11.843-20.431-17.764-30.647-6.948-11.987-13.896-23.975-20.845-35.962-7.298-12.59-14.595-25.181-21.893-37.771-7.061-12.181-14.121-24.363-21.182-36.544-6.146-10.602-12.291-21.205-18.437-31.807-4.624-7.978-9.248-15.956-13.873-23.933l-7.43-12.818c-.154-.265-.355-.856-.603-1.041-.541-.404-1.413,.536-2.032,.894l.075,7.5v-5.969c0-1.768-.003-3.536-.022-5.303-.005-.507,.111-1.62-.053-2.197,.151,.532-.048,1.712-.053,2.197-.017,1.768-.022,3.536-.022,5.303v5.969c0,1.768,.002,3.536,.022,5.303,.003,.263,.169,2.13,.053,2.197,.644-.372,1.487-1.326,2.042-.877,.272,.22,.479,.826,.653,1.126l2.861,4.936,11.034,19.036c5.494,9.478,10.987,18.955,16.481,28.433,6.687,11.537,13.375,23.074,20.062,34.612,7.251,12.51,14.502,25.02,21.753,37.53,7.208,12.435,14.415,24.87,21.623,37.304,6.505,11.222,13.009,22.444,19.514,33.666,5.151,8.887,10.302,17.774,15.453,26.66,3.19,5.504,6.381,11.008,9.571,16.512,.615,1.061,1.167,2.514,1.989,3.431,.073,.081,.131,.315,.219,.328,.181,.027,.878-.697,1.013-.804,5.636-4.474,11.273-8.949,16.909-13.423,10.085-8.006,20.17-16.012,30.255-24.018,11.291-8.963,22.581-17.926,33.872-26.889,9.347-7.42,18.694-14.84,28.041-22.26l8.857-7.031,2.616-2.077c.336-.267,.98-.599,1.215-.965,.418-.651,.329-2.109,.428-2.869l1.234-9.488c1.45-11.141,2.899-22.283,4.349-33.424,1.844-14.177,3.689-28.354,5.533-42.53,1.73-13.294,3.459-26.589,5.189-39.883,1.104-8.482,2.207-16.965,3.311-25.447,.153-1.176,.306-2.352,.459-3.528,.184-1.414,.06-15,0-15H493.186c-1.232,0-2.638-.19-3.859,0-.155,.024-.332,0-.491,0-.088,0-.075,6.94-.075,7.5,0,1.768,.002,3.536,.022,5.303,.006,.532-.203,1.752,.053,2.197,.442,.767,1.011,1.475,1.412,2.264,.155,.304,.27,.62,.353,.951,.137,.549,.187,2.732,.17,.559-.003-.345,.012,2.197,.053,2.197,.041,0,.056-2.542,.053-2.197,.035-3.535,.028-7.071,0-10.607Z"
             id="path68"
             style="fill:#f20587;fill-opacity:1" />
          <path
             class="cls-1"
             d="M8.891,788.701c10.557-.022,21.114-.043,31.671-.065,26.606-.055,53.213-.11,79.819-.164,35.253-.073,70.506-.145,105.76-.218,36.593-.075,73.185-.151,109.778-.226,30.243-.062,60.486-.124,90.729-.187,16.798-.035,33.595-.069,50.393-.104,2.238-.005,3.468-.659,4.56,1.27l10.193,18.007c14.961,26.432,29.923,52.864,44.884,79.296,17.668,31.214,35.336,62.428,53.004,93.641,10.927,19.305,21.855,38.61,32.782,57.915,.529,.934,1.057,1.868,1.586,2.802v-15c-5.532-2.266-11.063-4.531-16.595-6.797l-44.781-18.342c-22.044-9.029-44.088-18.058-66.132-27.087-26.973-11.048-53.945-22.096-80.918-33.144-29.541-12.1-59.083-24.2-88.624-36.3-29.718-12.172-59.436-24.345-89.154-36.517-27.788-11.382-55.576-22.764-83.365-34.146-23.463-9.611-46.927-19.221-70.39-28.832-16.798-6.88-33.596-13.761-50.394-20.641l-15.654-6.412c-2.671-1.094-5.404-2.544-8.179-3.35-.246-.071-.774-.22-.973-.399,.084,.076-.056,2.432-.053,2.197-.02,1.767-.022,3.536-.022,5.303s.001,3.536,.022,5.303c.004,.371-.187,1.981,.053,2.197,.932,.84,3.052,1.25,4.189,1.716l12.205,4.999,44.624,18.278c22.006,9.014,44.012,18.027,66.018,27.041,26.949,11.038,53.898,22.077,80.848,33.115,29.533,12.096,59.065,24.193,88.598,36.289,29.723,12.175,59.447,24.349,89.17,36.524,27.808,11.39,55.616,22.78,83.425,34.17,23.498,9.625,46.996,19.249,70.494,28.874,16.847,6.9,33.693,13.801,50.54,20.701,5.248,2.15,10.496,4.299,15.744,6.449,2.711,1.111,5.469,2.553,8.28,3.391,.348,.104,.688,.282,1.025,.42-.331-.136,.075-6.834,.075-7.5,0-1.768-.001-3.536-.022-5.303-.006-.537,.202-1.746-.053-2.197-7.82-13.815-15.64-27.63-23.459-41.445-16.951-29.946-33.902-59.893-50.852-89.839-16.474-29.105-32.949-58.21-49.423-87.314-5.066-8.949-10.131-17.898-15.197-26.847l-3.589-6.34c-.379-.669-.423-.931-.995-1.152-.938-.362-2.755,.006-3.745,.008l-7.599,.016-25.761,.053c-27.821,.057-55.643,.115-83.464,.172-35.593,.073-71.186,.146-106.779,.22-36.328,.075-72.657,.15-108.985,.224-29.289,.06-58.577,.121-87.866,.181-15.143,.031-30.285,.062-45.428,.093-.672,.001-1.344,.003-2.016,.004-.12,0-.104,15,0,15Z"
             id="path70"
             style="fill:#f20587;fill-opacity:1" />
          <path
             class="cls-1"
             d="M872.091,35.933c11.602,90.672,23.204,181.345,34.806,272.017,11.602,90.672,23.204,181.345,34.806,272.017,6.537,51.09,13.074,102.179,19.611,153.269v-15c-19.905,.01-39.809,.02-59.714,.03-31.584,.016-63.167,.032-94.751,.048-7.264,.004-14.528,.007-21.792,.011v15c11.34-90.864,22.679-181.728,34.019-272.592,11.282-90.403,22.564-180.805,33.846-271.208,6.389-51.197,12.779-102.395,19.168-153.592,.616-4.934-.612-10.093,0-15-11.34,90.864-22.679,181.728-34.019,272.592-11.282,90.403-22.564,180.805-33.846,271.208-6.389,51.197-12.779,102.395-19.168,153.592-.177,1.415-.064,15,0,15,19.905-.01,39.809-.02,59.714-.03,31.584-.016,63.167-.032,94.751-.048,7.264-.004,14.528-.007,21.792-.011,.075,0,.166-13.704,0-15-11.602-90.672-23.204-181.345-34.806-272.017-11.602-90.672-23.204-181.345-34.806-272.017-6.537-51.09-13.074-102.179-19.611-153.269,.627,4.903-.631,10.069,0,15Z"
             id="path72"
             style="fill:#f20587;fill-opacity:1" />
          <path
             class="cls-1"
             d="M1491.985,386.147l2.04,1.296v-15c-1.366,2.358-2.732,4.716-4.098,7.074-3.77,6.506-7.539,13.013-11.309,19.519-5.721,9.874-11.441,19.748-17.162,29.621-7.256,12.525-14.513,25.049-21.769,37.574-8.27,14.273-16.539,28.546-24.809,42.82-8.904,15.368-17.808,30.736-26.712,46.105-9,15.534-18,31.069-27.001,46.603-8.725,15.059-17.449,30.118-26.174,45.177-7.913,13.657-15.825,27.315-23.738,40.972-6.719,11.597-13.437,23.193-20.156,34.79-5.007,8.642-10.014,17.285-15.021,25.927-2.886,4.981-5.772,9.962-8.658,14.943-.343,.592-.885,2.163-1.476,2.548-.444,.29-1.551,.086-2.097,.086l-21.532-.021c-13.05-.013-26.1-.025-39.15-.038-16.713-.016-33.426-.032-50.14-.048-17.9-.017-35.8-.034-53.699-.052-16.923-.016-33.845-.032-50.768-.049-13.467-.013-26.934-.026-40.402-.039-7.806-.007-15.612-.015-23.418-.022-1.022,0-2.044-.002-3.066-.003v15c4.575-3.539,9.15-7.079,13.725-10.618,12.362-9.563,24.724-19.126,37.085-28.69,18.374-14.214,36.748-28.429,55.122-42.643,22.293-17.246,44.586-34.492,66.878-51.738,24.545-18.988,49.09-37.976,73.635-56.964,24.637-19.059,49.274-38.118,73.91-57.177,23.088-17.861,46.175-35.721,69.263-53.582,19.394-15.003,38.787-30.006,58.181-45.009,14.002-10.832,28.004-21.664,42.006-32.496,6.564-5.078,13.127-10.155,19.691-15.233,.241-.187,.533-.514,.818-.633,.503-.209,.075-6.777,.075-7.5,0-.69-.516-7.316-.075-7.5-1.224,.51-2.478,1.917-3.514,2.718l-10.069,7.789c-12.325,9.534-24.649,19.069-36.974,28.603-18.347,14.193-36.694,28.387-55.041,42.58-22.276,17.233-44.552,34.466-66.828,51.699-24.539,18.983-49.077,37.966-73.616,56.95-24.641,19.062-49.281,38.124-73.922,57.187-23.102,17.872-46.204,35.743-69.305,53.615-19.418,15.022-38.836,30.044-58.254,45.066-14.037,10.859-28.074,21.718-42.11,32.577l-19.826,15.337c-.285,.22-.57,.441-.855,.661-.145,.112-.055,2.375-.053,2.197-.019,1.768-.022,3.536-.022,5.303,0,.547-.015,7.5,.075,7.5,4.212,.004,8.424,.008,12.636,.012l33.028,.032c15.497,.015,30.994,.03,46.491,.045,17.761,.017,35.521,.034,53.282,.051,17.538,.017,35.076,.034,52.614,.05,15.148,.015,30.296,.029,45.444,.044l30.889,.03,7.934,.008c.551,0,1.535,.185,1.968-.11,.632-.429,1.185-2.045,1.558-2.689l3.466-5.982c4.048-6.987,8.097-13.975,12.145-20.962,5.93-10.235,11.859-20.469,17.789-30.704,7.41-12.79,14.821-25.581,22.231-38.371,8.367-14.441,16.734-28.882,25.101-43.324,8.946-15.44,17.891-30.88,26.837-46.32,8.986-15.51,17.972-31.019,26.957-46.529,8.654-14.937,17.308-29.874,25.962-44.811,7.787-13.44,15.573-26.879,23.36-40.319,6.536-11.281,13.072-22.562,19.607-33.843,4.769-8.232,9.538-16.463,14.308-24.695,2.591-4.472,5.182-8.943,7.772-13.415,.325-.562,.651-1.123,.976-1.685,.193-.332,.051-2.05,.053-2.197,.019-1.768,.022-3.536,.022-5.303s-.003-3.536-.022-5.303c-.003-.309,.151-2.067-.053-2.197l-2.04-1.296c.053,.034-.056,2.493-.053,2.197-.019,1.768-.022,3.536-.022,5.303s.003,3.536,.022,5.303c.003,.309-.151,2.067,.053,2.197Z"
             id="path74"
             style="fill:#f20587;fill-opacity:1" />
          <path
             class="cls-1"
             d="M483.038,766.661c-2.069-3.58-4.137-7.161-6.206-10.741-5.63-9.744-11.26-19.487-16.889-29.231-8.326-14.41-16.652-28.821-24.978-43.231-10.158-17.581-20.316-35.161-30.473-52.742l-33.245-57.538c-11.228-19.433-22.457-38.867-33.685-58.3-10.469-18.12-20.938-36.239-31.408-54.359-8.816-15.258-17.632-30.516-26.448-45.775-6.368-11.022-12.736-22.044-19.105-33.065-3.017-5.221-5.948-10.505-9.055-15.672-.134-.222-.26-.45-.39-.675v15c4.642,3.586,9.284,7.172,13.926,10.758,12.63,9.757,25.26,19.514,37.89,29.271,18.618,14.383,37.236,28.766,55.854,43.149,22.703,17.538,45.405,35.077,68.108,52.615,24.859,19.205,49.719,38.409,74.578,57.614,25.089,19.382,50.177,38.763,75.266,58.145,23.39,18.07,46.78,36.139,70.171,54.209,19.764,15.268,39.528,30.537,59.292,45.805,14.21,10.978,28.421,21.956,42.631,32.934l20.187,15.595c.288,.222,.575,.444,.863,.667v-15c-9.561,.019-19.123,.038-28.684,.057-22.942,.046-45.885,.091-68.827,.137-27.628,.055-55.257,.11-82.885,.165-23.836,.047-47.672,.095-71.508,.142-7.83,.016-15.659,.031-23.489,.047l-7.278,.014c-.987,.002-2.836-.362-3.768,.008-.021,.008-.444,.002-.444,0,.382,4.96-.383,10.023,0,15,.025,.329,26.861-.053,28.358-.056,22.886-.046,45.773-.091,68.659-.137,27.625-.055,55.251-.11,82.876-.165,23.886-.048,47.771-.095,71.657-.143,7.874-.016,15.748-.031,23.622-.047l7.359-.015c1.036-.002,2.875,.359,3.859-.008,.127-.047,.351,0,.492,0,.091,0,.075-6.939,.075-7.5,0-1.768-.003-3.536-.022-5.303-.004-.341,.172-2.023-.053-2.197-4.642-3.586-9.284-7.172-13.926-10.758-12.63-9.757-25.26-19.514-37.89-29.271-18.618-14.383-37.236-28.766-55.854-43.149-22.703-17.538-45.405-35.077-68.108-52.615-24.859-19.205-49.719-38.409-74.578-57.614-25.089-19.382-50.177-38.763-75.266-58.145-23.39-18.07-46.78-36.139-70.171-54.209-19.764-15.268-39.528-30.537-59.292-45.805-14.21-10.978-28.421-21.956-42.631-32.934-6.729-5.198-13.458-10.397-20.187-15.595-.288-.222-.575-.444-.863-.667,.07,.054-.056,2.464-.053,2.197-.019,1.768-.022,3.536-.022,5.303s.003,3.536,.022,5.303c.006,.531-.203,1.754,.053,2.197,2.069,3.58,4.137,7.161,6.206,10.741l16.889,29.231,24.978,43.231c10.158,17.581,20.316,35.161,30.473,52.742,11.082,19.179,22.163,38.359,33.245,57.538,11.228,19.433,22.457,38.867,33.685,58.3l31.408,54.359c8.816,15.258,17.632,30.516,26.448,45.775,6.368,11.022,12.736,22.044,19.105,33.065l5.946,10.291c1.019,1.764,1.924,3.722,3.109,5.382,.149,.208,.261,.453,.39,.675-.137-.237,.053-2.195,.053-2.197,.019-1.768,.022-3.536,.022-5.303s-.003-3.536-.022-5.303c-.006-.531,.203-1.754-.053-2.197Z"
             id="path76"
             style="fill:#f20587;fill-opacity:1" />
          <path
             class="cls-1"
             d="M872.091,3.933c-23.159,176.808-46.318,353.616-69.477,530.424-5.75,43.897-11.5,87.794-17.249,131.692-1.437,10.974-2.875,21.949-4.312,32.923-.597,4.559-.452,10.274-1.917,14.632-2.08,6.19,.599,2.682-3.535,1.574-3.001-.805-6.493-4.429-9.167-6.253-18.333-12.506-36.667-25.012-55-37.518-73.842-50.371-147.685-100.742-221.527-151.113-83.009-56.624-166.018-113.248-249.027-169.871,2.055,1.402-1.41,12.492,0,15,60.775,108.119,121.549,216.238,182.324,324.357,17.235,30.661,34.469,61.321,51.704,91.982v-15H7.301c.477,0-.934,14.599,0,15,160.424,68.827,320.849,137.653,481.273,206.48,45.19,19.388,90.38,38.776,135.57,58.163v-15c-1.908,5.772-11.123,11.485-15.441,15.191-12.062,10.349-24.491,20.274-36.934,30.159-34.759,27.614-70.005,54.615-105.28,81.564-64.529,49.296-129.038,98.6-193.315,148.224-61.438,47.432-122.098,95.885-182.294,144.881-1.885,1.534,1.877,14.241,0,15,163.807-66.278,327.615-132.556,491.422-198.834,46.231-18.706,92.463-37.411,138.694-56.117v-15c-2.956,21.835-5.911,43.67-8.867,65.506-7.055,52.123-14.11,104.246-21.166,156.369-8.575,63.349-17.15,126.698-25.724,190.047-7.382,54.537-14.764,109.074-22.146,163.61-3.603,26.617-8.242,53.319-10.837,80.059-.037,.379-.103,.758-.154,1.136-.505,3.731,1.854,11.963,0,15,63.45-103.934,126.901-207.868,190.351-311.802,16.023-26.246,32.046-52.492,48.069-78.738l1.923-3.15c.961-3.675,1.924-4.199,2.888-1.571,1.751,.954,3.801,6.213,4.828,7.89,3.862,6.312,7.724,12.624,11.586,18.936,8.368,13.676,16.736,27.352,25.103,41.029,31.54,51.549,63.08,103.097,94.62,154.646,36.046,58.913,72.092,117.826,108.137,176.738-1.855-3.032,.511-11.311,0-15-3.015-21.766-6.031-43.531-9.046-65.297-7.286-52.594-14.573-105.187-21.859-157.781-8.777-63.354-17.554-126.707-26.331-190.061-7.594-54.814-15.188-109.629-22.782-164.443-3.707-26.756-6.521-53.823-11.144-80.44-.065-.374-.105-.755-.157-1.132v15c164.451,65.615,328.901,131.23,493.352,196.844,46.413,18.518,92.826,37.037,139.239,55.555-1.822-.727,1.853-13.56,0-15-139.962-108.815-279.924-217.629-419.886-326.444-39.85-30.982-79.701-61.964-119.551-92.946v15c163.371-68.009,326.742-136.018,490.113-204.028,46.108-19.194,92.216-38.388,138.325-57.583,.987-.411-.525-15.003,0-15-123.916-.709-247.833-1.417-371.749-2.126-35.14-.201-70.281-.402-105.421-.603v15c62.198-108.062,124.396-216.125,186.594-324.187,17.859-31.028,35.718-62.056,53.577-93.084,1.474-2.561-2.097-13.581,0-15-149.076,100.898-298.151,201.797-447.227,302.695-18.379,12.44-36.758,24.879-55.138,37.319-8.679,5.874-17.358,11.748-26.037,17.623-4.242,2.871-9.03,7.314-13.784,9.33-5.515,2.338-2.019,2.417-3.553-1.591-1.099-2.873-1.061-7.937-1.47-10.993-5.879-43.971-11.759-87.942-17.638-131.913-11.922-89.163-23.844-178.327-35.767-267.49-13.392-100.156-26.784-200.312-40.176-300.469,.655,4.895-.658,10.075,0,15,23.844,178.327,47.689,356.654,71.533,534.981,5.879,43.971,11.759,87.942,17.638,131.913,1.47,10.993,2.94,21.986,4.41,32.978,.21,1.574,.757,14.117,1.96,14.657,1.643,.737,13.631-9.226,15.316-10.366,18.379-12.44,36.758-24.879,55.138-37.319,74.538-50.449,149.076-100.898,223.613-151.347,83.727-56.669,167.455-113.338,251.182-170.007v-15c-62.198,108.062-124.396,216.125-186.594,324.187-17.859,31.028-35.718,62.056-53.577,93.084-.718,1.248,.323,15.002,0,15,123.916,.709,247.833,1.417,371.749,2.126,35.14,.201,70.281,.402,105.421,.603v-15c-163.371,68.009-326.742,136.018-490.113,204.028-46.108,19.194-92.216,38.388-138.325,57.583-.41,.171-.624,14.515,0,15,139.962,108.815,279.924,217.629,419.886,326.444,39.85,30.982,79.701,61.964,119.551,92.946v-15c-164.451-65.615-328.901-131.23-493.352-196.844-46.413-18.518-92.826-37.037-139.239-55.555,.867,.346-.227,13.36,0,15,3.015,21.766,6.031,43.531,9.046,65.297,7.286,52.594,14.573,105.187,21.859,157.781,8.777,63.354,17.554,126.707,26.331,190.061,7.594,54.814,15.188,109.629,22.782,164.443,3.707,26.756,6.521,53.823,11.144,80.44,.065,.374,.105,.755,.157,1.132v-15c-63.724-104.149-127.448-208.299-191.172-312.448-16.092-26.3-32.184-52.601-48.276-78.901-1.026-1.678-3.076-6.936-4.828-7.89l-.966-1.578c-1.282,2.1-2.564,4.199-3.845,6.299-3.845,6.299-7.691,12.598-11.536,18.897-8.332,13.648-16.664,27.296-24.996,40.944-31.405,51.442-62.81,102.884-94.214,154.326-35.891,58.791-71.782,117.582-107.673,176.373v15c2.956-21.835,5.911-43.67,8.867-65.506,7.055-52.123,14.11-104.246,21.166-156.369,8.575-63.349,17.15-126.698,25.724-190.047,7.382-54.537,14.764-109.074,22.146-163.61,3.603-26.617,8.242-53.319,10.837-80.059,.037-.379,.103-.758,.154-1.136,.238-1.755-.886-14.641,0-15-163.807,66.278-327.615,132.556-491.422,198.834-46.231,18.706-92.463,37.411-138.694,56.117v15c92.223-75.065,186.219-147.807,280.336-220.463,62.909-48.565,126.683-95.997,189.126-145.169,15.001-11.813,29.984-23.67,44.58-35.982,5.226-4.409,16.924-11.454,19.222-18.404,.457-1.382,.721-14.691,0-15-160.424-68.827-320.849-137.653-481.273-206.48-45.19-19.388-90.38-38.776-135.57-58.163v15H474.908c-.274,0,.65-13.843,0-15-60.775-108.119-121.549-216.238-182.324-324.357-17.235-30.661-34.469-61.321-51.704-91.982v15c147.685,100.742,295.369,201.483,443.054,302.225,18.333,12.506,36.667,25.012,55,37.518,8.657,5.906,17.315,11.811,25.972,17.717,1.059,.723,12.466,9.956,13.75,9.379,1.545-.694,2.106-16.081,2.396-18.29,5.75-43.897,11.5-87.794,17.249-131.692,11.579-88.404,23.159-176.808,34.738-265.212,13.017-99.378,26.034-198.757,39.051-298.135,.645-4.927-.642-10.102,0-15Z"
             id="path78"
             style="fill:#f20587;fill-opacity:1" />
        </g>
      </g>
    </g>
  </g>
</svg>
