<svg version="1.2" xmlns="http://www.w3.org/2000/svg" viewBox="0 0 3094 3094" width="3094" height="3094">
	<title>newwneww333-svg</title>
	<style>
		.s0 { fill: #f20587 } 
	</style>
	<path id="path8" class="s0" d="m155 1019.6l138.1 139.2-138.1 139.1-138-139.2zm0 744.6l138.1 139.1-138 139.1-138.1-139.1z"/>
	<path id="path10" class="s0" d="m881.2 1019.6l138 139.2-138 139.1-138-139.2zm0 744.6l138 139.1-138 139.2-138-139.2z"/>
	<path id="path12" class="s0" d="m1413.8 153l19.4 19.5 41.1 41.5c77.5 78.1 343.8 390.6 343.8 1018 0 627.5-268.8 942.4-343.8 1018l-135.6 139.2q-2.5 2.6-5.2 5.1-2.6 2.6-5.3 5-2.8 2.4-5.6 4.8-2.8 2.3-5.6 4.6l-41.2-41.5 43.6-43.9c96.8-107.4 319.5-417.5 319.5-993.6 0-578.6-222.7-888.6-319.5-996.1h-2.4l-41.2-41.5z"/>
	<path id="path14" class="s0" d="m2212.7 1019.6l138 139.2-138 139.1-138-139.2zm0 744.6l138 139.1-138 139.2-138-139.2z"/>
	<path id="path16" class="s0" d="m2939 1019.6l138 139.2-138 139.1-138-139.2zm0 744.6l138 139.1-138 139.2-138.1-139.2z"/>
</svg>